<svg width="24" height="24" viewBox="0 0 24 24" fill="none" xmlns="http://www.w3.org/2000/svg">
<path d="M15.8672 2.17669V6.53008H14.1488V2.17669C14.1488 1.86737 13.8739 1.71844 13.6906 1.71844C13.6333 1.71844 13.576 1.7299 13.5187 1.75281L4.43389 5.17823C3.8267 5.40736 3.43719 5.98017 3.43719 6.63318V7.40075C2.39467 8.17978 1.71875 9.42854 1.71875 10.8377V6.63318C1.71875 5.26989 2.55506 4.05552 3.8267 3.57436L12.923 0.137475C13.175 0.045825 13.4385 0 13.6906 0C14.8362 0 15.8672 0.927958 15.8672 2.17669Z" fill="#0D0D12"/>
<path d="M23.4861 14.2623V15.4079C23.4861 15.7172 23.2455 15.9693 22.9247 15.9807H21.2521C20.6449 15.9807 20.095 15.5339 20.0492 14.9382C20.0148 14.583 20.1523 14.2508 20.3814 14.0217C20.5876 13.804 20.874 13.6895 21.1834 13.6895H22.9133C23.2455 13.7009 23.4861 13.9529 23.4861 14.2623Z" fill="#0D0D12"/>
<path d="M4.58251 14.835C3.50562 14.835 2.50892 15.213 1.71844 15.8431C0.664464 16.6794 0 17.974 0 19.4175C0 20.2767 0.240582 21.0901 0.664464 21.7775C1.45495 23.1064 2.90989 24 4.58251 24C5.73959 24 6.79357 23.5761 7.59551 22.8544C7.95065 22.5565 8.25997 22.1899 8.50055 21.7775C8.92444 21.0901 9.16502 20.2767 9.16502 19.4175C9.16502 16.8856 7.11435 14.835 4.58251 14.835ZM2.77242 18.7988C2.44019 18.4666 2.44019 17.9167 2.77242 17.5845C3.11611 17.2522 3.65455 17.2522 3.99824 17.5845L4.59397 18.1916L5.16678 17.6074C5.51047 17.2751 6.04891 17.2751 6.3926 17.6074C6.72483 17.9511 6.72483 18.4895 6.3926 18.8332L5.80833 19.406L6.41551 20.0017C6.74774 20.3454 6.74774 20.8839 6.41551 21.2276C6.24367 21.3879 6.026 21.4681 5.80833 21.4681C5.59066 21.4681 5.37299 21.3879 5.20115 21.2276L4.59397 20.6204L3.96387 21.2505C3.79203 21.4223 3.57436 21.5025 3.35669 21.5025C3.13902 21.5025 2.92135 21.4223 2.74951 21.2505C2.41727 20.9182 2.41727 20.3683 2.74951 20.0361L3.3796 19.406L2.77242 18.7988Z" fill="#0D0D12"/>
<path d="M21.1715 12.4866H22.34C22.9701 12.4866 23.4857 11.971 23.4857 11.3409V10.8369C23.4857 8.46541 21.5496 6.5293 19.1781 6.5293H6.02631C5.05253 6.5293 4.15894 6.85007 3.43719 7.39997C2.39467 8.179 1.71875 9.42773 1.71875 10.8369V12.8761C1.71875 13.3114 2.177 13.5864 2.58943 13.4489C3.23098 13.2312 3.9069 13.1167 4.58282 13.1167C8.05407 13.1167 10.8838 15.9464 10.8838 19.4176C10.8838 20.2425 10.6661 21.1475 10.3224 21.9494C10.1391 22.3619 10.4255 22.8545 10.8723 22.8545H19.1781C21.5496 22.8545 23.4857 20.9184 23.4857 18.5469V18.3293C23.4857 17.6992 22.9701 17.1836 22.34 17.1836H21.3433C20.2435 17.1836 19.1896 16.5077 18.9032 15.4423C18.674 14.5716 18.949 13.7238 19.5218 13.1739C19.9457 12.7386 20.5299 12.4866 21.1715 12.4866ZM14.8935 12.2574H9.16533C8.69562 12.2574 8.30611 11.8679 8.30611 11.3982C8.30611 10.9285 8.69562 10.539 9.16533 10.539H14.8935C15.3632 10.539 15.7527 10.9285 15.7527 11.3982C15.7527 11.8679 15.3632 12.2574 14.8935 12.2574Z" fill="#0D0D12"/>
</svg>
