<svg width="18" height="22" viewBox="0 0 18 22" fill="none" xmlns="http://www.w3.org/2000/svg">
<path d="M8.99951 21C13.117 21 16.4995 17.737 16.4995 13.549C16.4995 12.521 16.447 11.419 15.877 9.706C15.307 7.993 15.1925 7.772 14.59 6.714C14.3325 8.8725 12.955 9.7725 12.605 10.0415C12.605 9.7615 11.772 6.668 10.5085 4.8165C9.26801 3 7.58101 1.8085 6.59201 1C6.59201 2.535 6.16051 4.817 5.54201 5.98C4.92401 7.1425 4.80801 7.185 4.03551 8.05C3.26351 8.915 2.90901 9.1825 2.26301 10.2325C1.61751 11.2825 1.49951 12.681 1.49951 13.709C1.49951 17.897 4.88201 21 8.99951 21Z" stroke="#FE6321" stroke-width="2" stroke-linejoin="round"/>
</svg>
