<svg width="18" height="18" viewBox="0 0 18 18" fill="none" xmlns="http://www.w3.org/2000/svg">
<path d="M6.5 4.83333H2.83333C2.36662 4.83333 2.13327 4.83333 1.95501 4.92416C1.79821 5.00406 1.67072 5.13154 1.59083 5.28834C1.5 5.4666 1.5 5.69996 1.5 6.16667V15.1667C1.5 15.6334 1.5 15.8667 1.59083 16.045C1.67072 16.2018 1.79821 16.3293 1.95501 16.4092C2.13327 16.5 2.36662 16.5 2.83333 16.5H6.5M6.5 16.5H11.5M6.5 16.5L6.5 2.83333C6.5 2.36662 6.5 2.13327 6.59083 1.95501C6.67072 1.79821 6.79821 1.67072 6.95501 1.59083C7.13327 1.5 7.36662 1.5 7.83333 1.5L10.1667 1.5C10.6334 1.5 10.8667 1.5 11.045 1.59083C11.2018 1.67072 11.3293 1.79821 11.4092 1.95501C11.5 2.13327 11.5 2.36662 11.5 2.83333V16.5M11.5 8.16667H15.1667C15.6334 8.16667 15.8667 8.16667 16.045 8.25749C16.2018 8.33739 16.3293 8.46487 16.4092 8.62167C16.5 8.79993 16.5 9.03329 16.5 9.5V15.1667C16.5 15.6334 16.5 15.8667 16.4092 16.045C16.3293 16.2018 16.2018 16.3293 16.045 16.4092C15.8667 16.5 15.6334 16.5 15.1667 16.5H11.5" stroke="#808897" stroke-width="2" stroke-linecap="round" stroke-linejoin="round"/>
</svg>
