<svg width="48" height="48" viewBox="0 0 48 48" fill="none" xmlns="http://www.w3.org/2000/svg">
<rect width="48" height="48" rx="24" fill="#F8F9FB"/>
<g clip-path="url(#clip0_2009_5298)">
<path d="M30.3556 30.9427C30.9611 28.2087 32.3004 25.8595 34.2105 24.1469C35.5245 22.9422 37.1759 22.0447 38.9348 21.3953L40.2606 21.0017L40.6754 20.9126L40.813 21.8051C40.7723 21.8681 40.8353 21.9088 40.8576 22.0125C40.9022 22.2199 40.8838 22.3866 40.8877 22.657L40.8955 23.1978L40.3363 23.3722C40.2326 23.3945 40.0252 23.4391 39.8808 23.5244C38.2033 24.0478 36.7593 24.9008 35.5896 26.0202C34.0498 27.4362 32.9324 29.3037 32.4451 31.5783C32.0352 33.4565 30.7339 36.991 26.7576 39.6903L26.6132 39.7756L26.3022 39.8425C26.2392 39.8018 26.1985 39.8648 26.0948 39.887C25.5133 39.9578 24.9318 40.0286 24.328 39.9957L21.5612 39.9939L23.9975 38.7106C27.5483 36.808 29.6134 34.3027 30.3556 30.9427Z" fill="#CDCDCD"/>
<path d="M29.1274 17.9164C27.5875 19.3323 26.4702 21.1999 25.9828 23.4745C25.4364 25.9788 23.1699 31.8363 14.1968 34.2538L12.6413 34.5883L12.5376 34.6106L12.1228 34.6997L11.8893 34.3702C11.678 34.1444 11.4444 33.8149 11.2108 33.4855L6.55397 27.6279L4.90896 24.288C0.0736165 13.3573 14.8297 -7.31861 15.0283 7.58861C19.6539 6.64831 12.2218 12.0467 13.6325 5.99345C14.2381 3.25949 16.7572 7.20752 18.6673 5.49496C20.5366 3.84539 25.1697 0.47326 27.7398 -0.187823L34.2945 5.49496L36.0574 9.83181C36.1204 9.87252 37.1851 10.4007 36.6627 12.0252L36.5132 12.075L36.7624 12.2744C37.0367 12.5409 37.3356 12.7556 37.6099 13.0221L38.1256 14.3543L36.8997 14.4552C36.733 14.4368 36.5886 14.5221 36.4219 14.5036C34.3703 15.0533 31.489 15.7812 29.1274 17.9164Z" fill="#D5D5D5"/>
<path d="M33.4584 35.5386L33.9178 35.6568L33.4584 35.5386C33.5176 35.3089 33.5359 35.1422 33.595 34.9125C34.2006 32.1786 35.5399 29.8293 37.4499 28.1168C37.8608 27.7572 38.2717 27.3976 38.7456 27.0788L40.4154 26.0145L40.8485 25.7587L40.4755 27.3035C40.3573 27.7629 40.2391 28.2222 40.1209 28.6816L40.0618 28.9113L39.8767 29.0596C39.6916 29.2079 39.4435 29.3155 39.3214 29.5045C39.24 29.6304 39.0956 29.7157 38.9512 29.801C37.5964 31.0687 36.5382 32.7066 35.9656 34.8368C35.9065 35.0665 35.8881 35.2332 35.8289 35.4629L35.7514 35.8593L35.5663 36.0075C35.1554 36.3671 34.7038 36.7897 34.2707 37.0456L32.5011 38.4024L33.2404 36.2907C33.2995 36.061 33.3993 35.7683 33.4584 35.5386Z" fill="#CDCDCD"/>
<path d="M14.1908 36.7515L15.7462 36.4171C15.9536 36.3725 16.161 36.3279 16.3684 36.2833C20.494 35.2878 25.826 32.8395 27.074 27.0382C27.6795 24.3042 29.0188 21.955 30.9288 20.2424C32.7575 18.6558 34.9051 17.5431 37.4345 16.9451L38.8455 16.6959L39.3233 16.6474L39.5385 17.1436C39.6684 17.4954 39.7759 17.7435 39.9465 18.0323L40.2693 18.7766L39.4174 18.8512C39.3137 18.8735 39.1063 18.9181 39.0026 18.9404C36.3879 19.3941 34.3218 20.3808 32.5968 21.9451C31.0569 23.3611 29.9396 25.2286 29.4523 27.5032C29.0017 29.4444 28.1325 31.2044 26.8853 32.7202C24.6981 35.4145 21.188 37.2541 17.9773 38.2157C17.7699 38.2603 17.6255 38.3455 17.4181 38.3901L17.107 38.457L16.918 38.3349C16.5401 38.0907 16.0584 37.8688 15.6804 37.6246L14.1908 36.7515Z" fill="#CDCDCD"/>
</g>
<defs>
<clipPath id="clip0_2009_5298">
<rect width="33" height="33.0997" rx="16.5" transform="matrix(-1 0 0 1 41 7.08984)" fill="white"/>
</clipPath>
</defs>
</svg>
