<svg width="15" height="18" viewBox="0 0 15 18" fill="none" xmlns="http://www.w3.org/2000/svg">
<path d="M10.8333 15.667H4.16667C3.50363 15.667 2.86774 15.4036 2.3989 14.9348C1.93006 14.4659 1.66667 13.83 1.66667 13.167V4.83366C1.66667 4.61265 1.57887 4.40068 1.42259 4.2444C1.26631 4.08812 1.05435 4.00033 0.833333 4.00033C0.61232 4.00033 0.400358 4.08812 0.244078 4.2444C0.0877973 4.40068 0 4.61265 0 4.83366V13.167C0 14.2721 0.438987 15.3319 1.22039 16.1133C2.00179 16.8947 3.0616 17.3337 4.16667 17.3337H10.8333C11.0543 17.3337 11.2663 17.2459 11.4226 17.0896C11.5789 16.9333 11.6667 16.7213 11.6667 16.5003C11.6667 16.2793 11.5789 16.0674 11.4226 15.9111C11.2663 15.7548 11.0543 15.667 10.8333 15.667ZM15 6.45033C14.9913 6.37377 14.9746 6.29835 14.95 6.22533V6.15033C14.9099 6.06464 14.8565 5.98588 14.7917 5.91699L9.79167 0.916992C9.72278 0.852172 9.64402 0.798726 9.55833 0.758659H9.48333L9.21667 0.666992H5.83333C5.17029 0.666992 4.53441 0.930384 4.06557 1.39923C3.59673 1.86807 3.33333 2.50395 3.33333 3.16699V11.5003C3.33333 12.1634 3.59673 12.7993 4.06557 13.2681C4.53441 13.7369 5.17029 14.0003 5.83333 14.0003H12.5C13.163 14.0003 13.7989 13.7369 14.2678 13.2681C14.7366 12.7993 15 12.1634 15 11.5003V6.50033C15 6.50033 15 6.50033 15 6.45033ZM10 3.50866L12.1583 5.66699H10.8333C10.6123 5.66699 10.4004 5.5792 10.2441 5.42291C10.0878 5.26663 10 5.05467 10 4.83366V3.50866ZM13.3333 11.5003C13.3333 11.7213 13.2455 11.9333 13.0893 12.0896C12.933 12.2459 12.721 12.3337 12.5 12.3337H5.83333C5.61232 12.3337 5.40036 12.2459 5.24408 12.0896C5.0878 11.9333 5 11.7213 5 11.5003V3.16699C5 2.94598 5.0878 2.73402 5.24408 2.57774C5.40036 2.42146 5.61232 2.33366 5.83333 2.33366H8.33333V4.83366C8.33333 5.4967 8.59672 6.13259 9.06557 6.60143C9.53441 7.07027 10.1703 7.33366 10.8333 7.33366H13.3333V11.5003Z" fill="#808897"/>
</svg>
