<svg width="16" height="16" viewBox="0 0 16 16" fill="none" xmlns="http://www.w3.org/2000/svg">
<path d="M13.9996 1.99966L13.9996 7.33299M14.3329 14.333L12.91 10.6335C12.819 10.3969 12.7735 10.2786 12.7141 10.1679C12.6613 10.0695 12.6004 9.97581 12.532 9.88765C12.4549 9.78839 12.3653 9.69876 12.186 9.51949L4.66622 1.99966C3.92984 1.26328 2.73593 1.26328 1.99955 1.99966C1.26317 2.73604 1.26317 3.92994 1.99955 4.66632L9.51936 12.1862C9.69864 12.3654 9.78827 12.4551 9.88752 12.5321C9.97569 12.6005 10.0694 12.6614 10.1677 12.7142C10.2784 12.7736 10.3967 12.8191 10.6334 12.9101L14.3329 14.333ZM14.3329 14.333L10.7655 12.9609C10.5102 12.8627 10.3826 12.8137 10.3241 12.7294C10.273 12.6559 10.2537 12.5648 10.2705 12.4768C10.2898 12.3761 10.3865 12.2794 10.5799 12.086L12.0859 10.58C12.2793 10.3866 12.376 10.2899 12.4767 10.2706C12.5647 10.2538 12.6558 10.2731 12.7293 10.3242C12.8135 10.3827 12.8626 10.5103 12.9608 10.7656L14.3329 14.333Z" stroke="#808897" stroke-width="2" stroke-linecap="round" stroke-linejoin="round"/>
</svg>
