<svg width="19" height="19" viewBox="0 0 19 19" fill="none" xmlns="http://www.w3.org/2000/svg">
<path d="M9.13477 1.33691C4.71694 1.33691 1.13477 4.91909 1.13477 9.33691C1.13477 13.7547 4.71694 17.3369 9.13477 17.3369C13.5526 17.3369 17.1348 13.7547 17.1348 9.33691C17.1348 4.91909 13.5526 1.33691 9.13477 1.33691Z" stroke="#808897" stroke-width="2" stroke-miterlimit="10"/>
<path d="M7.91699 8.11963H9.3083V13.1631" stroke="#808897" stroke-width="2" stroke-linecap="round" stroke-linejoin="round"/>
<path d="M7.39551 13.3369H11.2216" stroke="#808897" stroke-width="2" stroke-miterlimit="10" stroke-linecap="round"/>
<path d="M9.13434 4.20654C8.91076 4.20654 8.6922 4.27284 8.50631 4.39706C8.32041 4.52127 8.17552 4.69782 8.08996 4.90438C8.0044 5.11094 7.98201 5.33823 8.02563 5.55751C8.06925 5.7768 8.17691 5.97822 8.335 6.13632C8.4931 6.29441 8.69452 6.40207 8.9138 6.44569C9.13309 6.48931 9.36038 6.46692 9.56694 6.38136C9.7735 6.2958 9.95005 6.15091 10.0743 5.96501C10.1985 5.77911 10.2648 5.56056 10.2648 5.33698C10.2648 5.03717 10.1457 4.74964 9.93368 4.53764C9.72168 4.32564 9.43415 4.20654 9.13434 4.20654Z" fill="#808897"/>
</svg>
