<svg width="386" height="295" viewBox="0 0 386 295" fill="none" xmlns="http://www.w3.org/2000/svg">
<g opacity="0.24">
<path d="M192.315 135.399C203.762 134.046 212.394 145.573 207.874 156.177L193.695 189.442C189.676 198.871 194.852 209.686 204.717 212.469L239.519 222.29C250.613 225.421 254.176 239.374 245.943 247.441L220.112 272.748C212.791 279.921 213.435 291.893 221.483 298.24L249.878 320.632C258.929 327.769 256.882 342.024 246.188 346.326L212.639 359.822C203.13 363.647 199.143 374.955 204.15 383.898L221.815 415.451C227.446 425.509 220.099 437.896 208.573 437.778L172.413 437.408C162.164 437.303 154.154 446.224 155.357 456.403L159.602 492.314C160.955 503.761 149.428 512.394 138.824 507.874L105.558 493.694C96.1296 489.675 85.3149 494.851 82.5313 504.716L72.7106 539.518C69.5801 550.612 55.6267 554.176 47.5597 545.942L22.2527 520.112C15.0797 512.79 3.10736 513.434 -3.2393 521.482L-25.6308 549.877C-32.7684 558.929 -47.0234 556.881 -51.3254 546.187L-64.8212 512.639C-68.6465 503.129 -79.9538 499.143 -88.8973 504.149L-120.451 521.814C-130.509 527.445 -142.895 520.098 -142.777 508.572L-142.407 472.413C-142.302 462.163 -151.223 454.153 -161.402 455.356L-197.313 459.601C-208.761 460.954 -217.393 449.427 -212.873 438.823L-198.693 405.558C-194.674 396.129 -199.851 385.314 -209.715 382.531L-244.517 372.71C-255.611 369.579 -259.175 355.626 -250.941 347.559L-225.111 322.252C-217.79 315.079 -218.433 303.107 -226.482 296.76L-254.877 274.369C-263.928 267.231 -261.881 252.976 -251.187 248.674L-217.638 235.178C-208.129 231.353 -204.142 220.046 -209.149 211.102L-226.813 179.549C-232.444 169.491 -225.098 157.104 -213.571 157.222L-177.412 157.592C-167.163 157.697 -159.152 148.776 -160.355 138.597L-164.601 102.686C-165.954 91.2386 -154.426 82.6064 -143.822 87.1263L-110.557 101.306C-101.128 105.325 -90.3135 100.149 -87.5299 90.2842L-77.7091 55.4818C-74.5786 44.3881 -60.6253 40.8243 -52.5583 49.058L-27.2513 74.8884C-20.0783 82.2097 -8.10594 81.566 -1.75927 73.5177L20.6322 45.1228C27.7698 36.0715 42.0248 38.1187 46.3268 48.8128L59.8226 82.3615C63.6479 91.8705 74.9552 95.8574 83.8987 90.8506L115.452 73.1859C125.51 67.5551 137.897 74.9015 137.779 86.4279L137.409 122.587C137.304 132.837 146.225 140.847 156.403 139.644L192.315 135.399Z" stroke="url(#paint0_linear_2337_4683)" stroke-width="2"/>
<path d="M168.203 151.581C179.65 150.228 188.282 161.755 183.762 172.359L173.115 197.337C169.096 206.766 174.273 217.58 184.137 220.364L210.269 227.738C221.363 230.869 224.927 244.822 216.693 252.889L197.298 271.891C189.976 279.064 190.62 291.036 198.668 297.383L219.989 314.196C229.04 321.334 226.993 335.589 216.299 339.891L191.108 350.024C181.599 353.85 177.613 365.157 182.619 374.1L195.883 397.793C201.514 407.851 194.168 420.237 182.641 420.119L155.49 419.841C145.241 419.736 137.231 428.657 138.434 438.836L141.621 465.801C142.974 477.248 131.447 485.88 120.843 481.36L95.8654 470.713C86.4365 466.694 75.6219 471.871 72.8383 481.735L65.4642 507.867C62.3337 518.961 48.3804 522.525 40.3134 514.291L21.3112 494.896C14.1382 487.574 2.16585 488.218 -4.18078 496.266L-20.9938 517.587C-28.1314 526.638 -42.3864 524.591 -46.6884 513.897L-56.8219 488.707C-60.6472 479.198 -71.9545 475.211 -80.898 480.218L-104.59 493.481C-114.648 499.112 -127.035 491.766 -126.917 480.239L-126.639 453.088C-126.534 442.839 -135.455 434.829 -145.634 436.032L-172.598 439.219C-184.046 440.573 -192.678 429.045 -188.158 418.441L-177.511 393.463C-173.492 384.035 -178.668 373.22 -188.533 370.436L-214.665 363.062C-225.758 359.932 -229.322 345.978 -221.089 337.912L-201.693 318.909C-194.372 311.736 -195.016 299.764 -203.064 293.417L-224.385 276.604C-233.436 269.467 -231.389 255.212 -220.695 250.91L-195.504 240.776C-185.995 236.951 -182.008 225.644 -187.015 216.7L-200.279 193.008C-205.91 182.95 -198.563 170.563 -187.037 170.681L-159.886 170.959C-149.637 171.064 -141.626 162.143 -142.83 151.964L-146.017 125C-147.37 113.552 -135.843 104.92 -125.239 109.44L-100.261 120.087C-90.8323 124.106 -80.0177 118.93 -77.2341 109.065L-69.86 82.9334C-66.7295 71.8396 -52.7762 68.2758 -44.7092 76.5096L-25.707 95.9047C-18.534 103.226 -6.56165 102.582 -0.214987 94.5341L16.598 73.2133C23.7356 64.162 37.9906 66.2091 42.2926 76.9033L52.4261 102.094C56.2514 111.603 67.5587 115.59 76.5022 110.583L100.195 97.3191C110.253 91.6883 122.639 99.0348 122.521 110.561L122.243 137.712C122.138 147.961 131.059 155.972 141.238 154.769L168.203 151.581Z" stroke="url(#paint1_linear_2337_4683)" stroke-width="2"/>
<path d="M145.59 169.764C157.037 168.411 165.669 179.939 161.149 190.542L153.745 207.912C149.726 217.341 154.903 228.155 164.767 230.939L182.939 236.067C194.033 239.198 197.597 253.151 189.363 261.218L175.876 274.432C168.554 281.605 169.198 293.577 177.246 299.924L192.073 311.616C201.124 318.753 199.077 333.008 188.383 337.31L170.865 344.357C161.356 348.182 157.369 359.49 162.376 368.433L171.6 384.909C177.231 394.967 169.884 407.353 158.358 407.235L139.477 407.042C129.228 406.937 121.217 415.858 122.421 426.037L124.637 444.788C125.99 456.236 114.463 464.868 103.859 460.348L86.4894 452.944C77.0607 448.925 66.246 454.101 63.4624 463.966L58.3344 482.138C55.204 493.232 41.2506 496.795 33.1836 488.562L19.9695 475.074C12.7965 467.753 0.82414 468.397 -5.52249 476.445L-17.2142 491.271C-24.3519 500.323 -38.6069 498.275 -42.9088 487.581L-49.9557 470.064C-53.7809 460.555 -65.0883 456.568 -74.0318 461.575L-90.5074 470.798C-100.565 476.429 -112.952 469.083 -112.834 457.556L-112.641 438.676C-112.536 428.426 -121.457 420.416 -131.636 421.619L-150.387 423.836C-161.834 425.189 -170.466 413.662 -165.946 403.058L-158.543 385.688C-154.523 376.259 -159.7 365.445 -169.564 362.661L-187.736 357.533C-198.83 354.403 -202.394 340.449 -194.16 332.382L-180.673 319.168C-173.351 311.995 -173.995 300.023 -182.043 293.676L-196.87 281.984C-205.921 274.847 -203.874 260.592 -193.18 256.29L-175.662 249.243C-166.153 245.418 -162.166 234.11 -167.173 225.167L-176.397 208.691C-182.028 198.633 -174.681 186.247 -163.155 186.365L-144.274 186.558C-134.025 186.663 -126.014 177.742 -127.218 167.563L-129.434 148.812C-130.787 137.365 -119.26 128.732 -108.656 133.252L-91.2866 140.656C-81.8578 144.675 -71.0432 139.499 -68.2596 129.634L-63.1316 111.462C-60.0011 100.369 -46.0478 96.8047 -37.9808 105.039L-24.7667 118.526C-17.5937 125.847 -5.62134 125.204 0.725328 117.155L12.4171 102.329C19.5547 93.2775 33.8097 95.3246 38.1117 106.019L45.1585 123.536C48.9838 133.045 60.2911 137.032 69.2346 132.025L85.7102 122.802C95.7683 117.171 108.155 124.517 108.037 136.044L107.844 154.925C107.739 165.174 116.66 173.184 126.838 171.981L145.59 169.764Z" stroke="url(#paint2_linear_2337_4683)" stroke-width="2"/>
<path d="M123.276 188.348C134.723 186.995 143.355 198.522 138.835 209.126L134.617 219.023C130.598 228.452 135.774 239.267 145.638 242.05L155.993 244.972C167.087 248.103 170.65 262.056 162.417 270.123L154.731 277.652C147.41 284.825 148.054 296.798 156.102 303.144L164.55 309.806C173.602 316.944 171.554 331.199 160.86 335.501L150.879 339.516C141.37 343.341 137.383 354.649 142.39 363.592L147.645 372.98C153.276 383.038 145.93 395.425 134.403 395.307L123.645 395.197C113.396 395.092 105.385 404.013 106.589 414.191L107.852 424.876C109.205 436.323 97.6774 444.955 87.0736 440.435L77.1764 436.217C67.7476 432.198 56.9329 437.374 54.1493 447.238L51.2274 457.593C48.0969 468.687 34.1436 472.25 26.0766 464.017L18.5472 456.332C11.3742 449.01 -0.598176 449.654 -6.94481 457.702L-13.6068 466.15C-20.7444 475.202 -34.9994 473.155 -39.3014 462.46L-43.3167 452.479C-47.1419 442.97 -58.4493 438.983 -67.3928 443.99L-76.7806 449.245C-86.8387 454.876 -99.2251 447.53 -99.1072 436.003L-98.9971 425.245C-98.8922 414.996 -107.813 406.986 -117.992 408.189L-128.676 409.452C-140.124 410.805 -148.756 399.278 -144.236 388.674L-140.017 378.776C-135.998 369.348 -141.174 358.533 -151.039 355.749L-161.393 352.828C-172.487 349.697 -176.051 335.744 -167.817 327.677L-160.132 320.147C-152.811 312.974 -153.454 301.002 -161.503 294.655L-169.951 287.993C-179.002 280.856 -176.955 266.601 -166.261 262.299L-156.279 258.283C-146.77 254.458 -142.783 243.151 -147.79 234.207L-153.046 224.82C-158.677 214.761 -151.33 202.375 -139.804 202.493L-129.046 202.603C-118.796 202.708 -110.786 193.787 -111.989 183.608L-113.252 172.924C-114.605 161.476 -103.078 152.844 -92.4742 157.364L-82.5769 161.583C-73.1481 165.602 -62.3335 160.426 -59.5499 150.561L-56.628 140.207C-53.4975 129.113 -39.5442 125.549 -31.4772 133.783L-23.9478 141.468C-16.7747 148.789 -4.8024 148.146 1.54427 140.097L8.20623 131.649C15.3438 122.598 29.5988 124.645 33.9008 135.339L37.9161 145.321C41.7414 154.83 53.0487 158.817 61.9922 153.81L71.38 148.554C81.4381 142.923 93.8246 150.27 93.7066 161.796L93.5965 172.555C93.4917 182.804 102.413 190.814 112.591 189.611L123.276 188.348Z" stroke="url(#paint3_linear_2337_4683)" stroke-width="2"/>
<path d="M126.359 249.844L126.63 248.881L126.359 249.844C137.453 252.974 141.017 266.928 132.783 274.995L131.638 276.116C124.317 283.289 124.961 295.261 133.009 301.608L134.267 302.6C143.318 309.738 141.271 323.993 130.577 328.295L129.091 328.892C119.582 332.718 115.595 344.025 120.602 352.969L121.384 354.366C127.015 364.425 119.669 376.811 108.142 376.693L106.54 376.677C96.2911 376.572 88.2805 385.493 89.4838 395.671L89.6718 397.262C91.025 408.71 79.4977 417.342 68.8938 412.822L67.42 412.194C57.9912 408.175 47.1766 413.351 44.3929 423.216L43.9579 424.757C40.8273 435.851 26.874 439.415 18.807 431.181L17.6859 430.037C10.5128 422.715 -1.45951 423.359 -7.80617 431.407L-8.79818 432.665C-15.9358 441.717 -30.1908 439.67 -34.4928 428.975L-35.0907 427.489C-38.916 417.98 -50.2233 413.993 -59.1668 419L-60.5647 419.783C-70.6228 425.414 -83.0093 418.067 -82.8913 406.541L-82.8749 404.939C-82.77 394.69 -91.691 386.679 -101.87 387.882L-103.461 388.07C-114.908 389.424 -123.54 377.896 -119.02 367.292L-118.392 365.818C-114.373 356.39 -119.549 345.575 -129.414 342.791L-130.956 342.356C-142.049 339.226 -145.613 325.272 -137.379 317.206L-136.235 316.084C-128.914 308.911 -129.557 296.939 -137.606 290.592L-138.864 289.6C-147.915 282.463 -145.868 268.208 -135.174 263.906L-133.687 263.308C-124.178 259.483 -120.191 248.175 -125.198 239.232L-125.981 237.834C-131.612 227.776 -124.265 215.389 -112.739 215.507L-111.137 215.524C-100.888 215.628 -92.8773 206.708 -94.0805 196.529L-94.2686 194.938C-95.6218 183.49 -84.0944 174.858 -73.4905 179.378L-73.0984 178.458L-73.4905 179.378L-72.0168 180.006C-62.588 184.025 -51.7733 178.849 -48.9897 168.985L-48.5546 167.443C-45.4241 156.349 -31.4708 152.785 -23.4038 161.019L-22.2826 162.163C-15.1096 169.485 -3.13722 168.841 3.20944 160.793L4.20145 159.535C11.3391 150.483 25.5941 152.531 29.8961 163.225L30.494 164.711C34.3192 174.22 45.6266 178.207 54.5701 173.2L55.968 172.418C66.026 166.787 78.4126 174.133 78.2946 185.66L78.2782 187.262C78.1733 197.511 87.0942 205.521 97.273 204.318L98.864 204.13C110.311 202.777 118.944 214.304 114.424 224.908L115.344 225.3L114.424 224.908L113.795 226.382C109.776 235.81 114.953 246.625 124.817 249.409L126.359 249.844Z" stroke="url(#paint4_linear_2337_4683)" stroke-width="2"/>
<path d="M79.8211 221.02C89.412 219.886 96.6444 229.544 92.8575 238.428C89.4135 246.508 93.8491 255.775 102.302 258.161C111.597 260.784 114.583 272.474 107.684 279.233C101.41 285.38 101.962 295.639 108.859 301.077C116.442 307.057 114.727 319.001 105.767 322.605C97.6186 325.883 94.2022 335.573 98.4926 343.236C103.21 351.663 97.0553 362.041 87.398 361.942C78.6155 361.852 71.7511 369.497 72.7822 378.219C73.9159 387.81 64.2579 395.043 55.3736 391.256C47.2939 387.812 38.0267 392.247 35.6414 400.7C33.0186 409.995 21.328 412.981 14.5692 406.082C8.42252 399.808 -1.83674 400.36 -7.27527 407.257C-13.2554 414.84 -25.1988 413.125 -28.8031 404.165C-32.081 396.017 -41.7704 392.6 -49.4342 396.891C-57.8612 401.609 -68.2391 395.453 -68.1402 385.796C-68.0504 377.014 -75.6948 370.149 -84.4171 371.18C-94.0081 372.314 -101.24 362.656 -97.4535 353.772C-94.0095 345.692 -98.4452 336.425 -106.898 334.04C-116.193 331.417 -119.179 319.726 -112.28 312.967C-106.006 306.821 -106.558 296.561 -113.455 291.123C-121.038 285.143 -119.323 273.199 -110.363 269.595C-102.215 266.317 -98.7982 256.628 -103.089 248.964C-107.806 240.537 -101.651 230.159 -91.9941 230.258C-83.2115 230.348 -76.3472 222.703 -77.3782 213.981C-78.512 204.39 -68.8539 197.158 -59.9697 200.945C-51.89 204.389 -42.6228 199.953 -40.2375 191.5C-37.6146 182.205 -25.924 179.219 -19.1652 186.118C-13.0186 192.392 -2.75931 191.84 2.67923 184.943C8.65937 177.36 20.6027 179.075 24.2071 188.035C27.485 196.183 37.1744 199.6 44.8382 195.309C53.2652 190.592 63.643 196.747 63.5442 206.404C63.4543 215.187 71.0988 222.051 79.8211 221.02Z" stroke="url(#paint5_linear_2337_4683)" stroke-width="2"/>
<path d="M62.582 239.439C70.047 238.557 75.6763 246.074 72.7287 252.989C69.9433 259.524 73.5308 267.019 80.3673 268.948C87.6017 270.989 89.9258 280.089 84.5564 285.349C79.4823 290.32 79.9284 298.618 85.5063 303.016C91.4088 307.671 90.0738 316.967 83.1 319.772C76.5097 322.423 73.7466 330.26 77.2166 336.458C80.8886 343.017 76.0978 351.095 68.5812 351.018C61.4782 350.945 55.9265 357.128 56.7604 364.182C57.6428 371.647 50.1256 377.276 43.2106 374.329C36.676 371.543 29.1809 375.131 27.2518 381.967C25.2103 389.202 16.111 391.526 10.8504 386.156C5.87915 381.082 -2.41825 381.528 -6.81677 387.106C-11.4713 393.009 -20.7673 391.674 -23.5727 384.7C-26.2238 378.11 -34.0603 375.347 -40.2586 378.817C-46.8177 382.489 -54.8951 377.698 -54.8182 370.181C-54.7455 363.078 -60.9281 357.526 -67.9825 358.36C-75.4475 359.243 -81.0768 351.726 -78.1292 344.811C-75.3438 338.276 -78.9313 330.781 -85.7678 328.852C-93.0022 326.81 -95.3263 317.711 -89.9568 312.45C-84.8828 307.479 -85.3289 299.182 -90.9067 294.783C-96.8093 290.129 -95.4743 280.833 -88.5004 278.027C-81.9102 275.376 -79.1471 267.54 -82.6171 261.341C-86.2891 254.782 -81.4983 246.705 -73.9817 246.782C-66.8786 246.855 -61.3269 240.672 -62.1608 233.618C-63.0433 226.153 -55.526 220.523 -48.6111 223.471C-42.0765 226.256 -34.5814 222.669 -32.6522 215.832C-30.6108 208.598 -21.5115 206.274 -16.2509 211.643C-11.2796 216.717 -2.98223 216.271 1.41629 210.693C6.07087 204.791 15.3668 206.126 18.1722 213.1C20.8233 219.69 28.6599 222.453 34.8581 218.983C41.4172 215.311 49.4947 220.102 49.4177 227.618C49.345 234.721 55.5276 240.273 62.582 239.439Z" stroke="url(#paint6_linear_2337_4683)" stroke-width="2"/>
<path d="M44.2866 255.805C49.4288 255.197 53.3065 260.375 51.2761 265.139C49.2102 269.985 51.8709 275.544 56.9413 276.975C61.9247 278.381 63.5256 284.649 59.8269 288.273C56.0637 291.96 56.3946 298.114 60.5314 301.376C64.5974 304.582 63.6778 310.986 58.8739 312.918C53.9861 314.884 51.9368 320.696 54.5104 325.293C57.0398 329.812 53.7397 335.376 48.562 335.323C43.2939 335.269 39.1764 339.854 39.7949 345.086C40.4027 350.229 35.2245 354.106 30.4612 352.076C25.6147 350.01 20.0559 352.671 18.6251 357.741C17.2188 362.724 10.9509 364.325 7.32712 360.627C3.64012 356.863 -2.51375 357.194 -5.77599 361.331C-8.98226 365.397 -15.3857 364.477 -17.3182 359.674C-19.2844 354.786 -25.0965 352.737 -29.6935 355.31C-34.2117 357.84 -39.7758 354.539 -39.7228 349.362C-39.6689 344.094 -44.2543 339.976 -49.4863 340.595C-54.6285 341.202 -58.5062 336.024 -56.4758 331.261C-54.41 326.414 -57.0707 320.856 -62.141 319.425C-67.1244 318.019 -68.7254 311.751 -65.0266 308.127C-61.2634 304.44 -61.5943 298.286 -65.7312 295.024C-69.7971 291.817 -68.8775 285.414 -64.0736 283.481C-59.1859 281.515 -57.1366 275.703 -59.7101 271.106C-62.2396 266.588 -58.9395 261.024 -53.7617 261.077C-48.4936 261.131 -44.3761 256.545 -44.9946 251.313C-45.6024 246.171 -40.4243 242.294 -35.6609 244.324C-30.8144 246.39 -25.2556 243.729 -23.8248 238.659C-22.4186 233.675 -16.1506 232.074 -12.5269 235.773C-8.83987 239.536 -2.68599 239.205 0.576247 235.069C3.78252 231.003 10.186 231.922 12.1185 236.726C14.0847 241.614 19.8968 243.663 24.4938 241.09C29.012 238.56 34.5761 241.86 34.5231 247.038C34.4692 252.306 39.0546 256.424 44.2866 255.805Z" stroke="url(#paint7_linear_2337_4683)" stroke-width="2"/>
</g>
<defs>
<linearGradient id="paint0_linear_2337_4683" x1="219.623" y1="131.164" x2="-224.622" y2="463.836" gradientUnits="userSpaceOnUse">
<stop stop-color="#E6E6E6"/>
<stop offset="1" stop-color="#808080"/>
</linearGradient>
<linearGradient id="paint1_linear_2337_4683" x1="195.511" y1="147.346" x2="-199.907" y2="443.455" gradientUnits="userSpaceOnUse">
<stop stop-color="#E6E6E6"/>
<stop offset="1" stop-color="#808080"/>
</linearGradient>
<linearGradient id="paint2_linear_2337_4683" x1="172.898" y1="165.529" x2="-177.695" y2="428.071" gradientUnits="userSpaceOnUse">
<stop stop-color="#E6E6E6"/>
<stop offset="1" stop-color="#808080"/>
</linearGradient>
<linearGradient id="paint3_linear_2337_4683" x1="150.584" y1="184.113" x2="-155.985" y2="413.687" gradientUnits="userSpaceOnUse">
<stop stop-color="#E6E6E6"/>
<stop offset="1" stop-color="#808080"/>
</linearGradient>
<linearGradient id="paint4_linear_2337_4683" x1="126.173" y1="199.895" x2="-130.769" y2="392.305" gradientUnits="userSpaceOnUse">
<stop stop-color="#E6E6E6"/>
<stop offset="1" stop-color="#808080"/>
</linearGradient>
<linearGradient id="paint5_linear_2337_4683" x1="102.96" y1="217.278" x2="-107.556" y2="374.923" gradientUnits="userSpaceOnUse">
<stop stop-color="#E6E6E6"/>
<stop offset="1" stop-color="#808080"/>
</linearGradient>
<linearGradient id="paint6_linear_2337_4683" x1="80.946" y1="236.261" x2="-86.3464" y2="361.538" gradientUnits="userSpaceOnUse">
<stop stop-color="#E6E6E6"/>
<stop offset="1" stop-color="#808080"/>
</linearGradient>
<linearGradient id="paint7_linear_2337_4683" x1="57.4333" y1="253.244" x2="-62.633" y2="343.156" gradientUnits="userSpaceOnUse">
<stop stop-color="#E6E6E6"/>
<stop offset="1" stop-color="#808080"/>
</linearGradient>
</defs>
</svg>
