<svg width="150" height="30" viewBox="0 0 150 30" fill="none" xmlns="http://www.w3.org/2000/svg">
<g clip-path="url(#clip0_190_796)">
<path d="M15.7967 20.2718C16.2225 18.3492 17.1644 16.6971 18.5076 15.4927C19.4317 14.6455 20.5931 14.0143 21.83 13.5576L22.7624 13.2809L23.0541 13.2182L23.1509 13.8458C23.1222 13.8901 23.1666 13.9188 23.1822 13.9917C23.2136 14.1376 23.2006 14.2548 23.2034 14.4449L23.2089 14.8252L22.8156 14.9479C22.7427 14.9636 22.5968 14.995 22.4953 15.0549C21.3156 15.423 20.3001 16.0228 19.4775 16.8101C18.3946 17.8058 17.6089 19.1192 17.2661 20.7188C16.9779 22.0397 16.0627 24.5253 13.2665 26.4235L13.1649 26.4835L12.9461 26.5305C12.9018 26.5019 12.8732 26.5462 12.8003 26.5619C12.3914 26.6117 11.9824 26.6615 11.5578 26.6383L9.61204 26.637L11.3254 25.7346C13.8225 24.3966 15.2747 22.6347 15.7967 20.2718Z" fill="black"/>
<path d="M14.9333 11.1114C13.8503 12.1071 13.0646 13.4205 12.7219 15.0201C12.3376 16.7812 10.7437 20.9005 4.43335 22.6006L3.33949 22.8358L3.26656 22.8515L2.97487 22.9142L2.81061 22.6825C2.66202 22.5237 2.49776 22.292 2.3335 22.0603L-0.941418 17.941L-2.09827 15.5922C-5.49871 7.90524 4.87849 -6.63506 5.01812 3.84841C8.27108 3.18714 3.04444 6.98357 4.03655 2.72661C4.46241 0.803962 6.23396 3.5804 7.57722 2.37605C8.89185 1.216 12.15 -1.15544 13.9574 -1.62035L18.567 2.37605L19.8068 5.42593C19.8511 5.45456 20.5998 5.82598 20.2325 6.9684L20.1273 7.00346L20.3026 7.14368C20.4955 7.3311 20.7057 7.48211 20.8985 7.66952L21.2612 8.60637L20.3991 8.6773C20.2819 8.66435 20.1803 8.72433 20.0631 8.71139C18.6203 9.0979 16.5941 9.60984 14.9333 11.1114Z" fill="#FE6321"/>
<path d="M17.9789 23.5033L18.302 23.5864L17.9789 23.5033C18.0205 23.3417 18.0334 23.2245 18.075 23.063C18.5008 21.1403 19.4427 19.4882 20.7859 18.2839C21.0749 18.031 21.3638 17.7782 21.6971 17.5539L22.8713 16.8055L23.176 16.6256L22.9136 17.712C22.8305 18.035 22.7474 18.3581 22.6643 18.6811L22.6227 18.8426L22.4925 18.9469C22.3623 19.0512 22.1879 19.1269 22.102 19.2598C22.0448 19.3484 21.9432 19.4084 21.8417 19.4683C20.8889 20.3599 20.1447 21.5117 19.742 23.0097C19.7005 23.1713 19.6875 23.2885 19.646 23.45L19.5914 23.7288L19.4613 23.8331C19.1723 24.0859 18.8547 24.3831 18.5501 24.563L17.3056 25.5173L17.8256 24.0321C17.8671 23.8706 17.9373 23.6648 17.9789 23.5033Z" fill="black"/>
<path d="M4.42929 24.3563L5.52315 24.1211C5.669 24.0898 5.81484 24.0584 5.96069 24.0271C8.86197 23.327 12.6117 21.6052 13.4893 17.5254C13.9152 15.6028 14.857 13.9507 16.2003 12.7463C17.4863 11.6306 18.9965 10.8481 20.7753 10.4275L21.7676 10.2523L22.1036 10.2182L22.255 10.5671C22.3463 10.8145 22.422 10.989 22.5419 11.1921L22.7689 11.7155L22.1698 11.768C22.0969 11.7837 21.9511 11.815 21.8781 11.8307C20.0394 12.1498 18.5863 12.8437 17.3733 13.9437C16.2903 14.9395 15.5046 16.2529 15.1619 17.8525C14.845 19.2176 14.2337 20.4554 13.3567 21.5213C11.8185 23.4161 9.35004 24.7098 7.09212 25.386C6.94628 25.4174 6.84474 25.4773 6.69889 25.5087L6.4801 25.5557L6.3472 25.4699C6.08139 25.2981 5.74266 25.1421 5.47685 24.9703L4.42929 24.3563Z" fill="black"/>
</g>
<path d="M41.169 11.1985C41.1118 10.5695 40.8573 10.0805 40.4055 9.73165C39.9595 9.37708 39.3218 9.19979 38.4926 9.19979C37.9435 9.19979 37.486 9.27128 37.12 9.41425C36.754 9.55722 36.4795 9.75452 36.2965 10.0062C36.1135 10.2521 36.0191 10.5352 36.0134 10.8554C36.002 11.1185 36.0535 11.3501 36.1678 11.5503C36.2879 11.7504 36.4595 11.9277 36.6825 12.0821C36.9113 12.2308 37.1858 12.3623 37.5061 12.4767C37.8263 12.5911 38.1866 12.6912 38.5869 12.777L40.0967 13.1201C40.966 13.3088 41.7323 13.5604 42.3957 13.875C43.0648 14.1895 43.6253 14.5641 44.0771 14.9987C44.5346 15.4334 44.8806 15.9338 45.115 16.5C45.3495 17.0661 45.4696 17.7009 45.4753 18.4044C45.4696 19.5138 45.1894 20.466 44.6347 21.2609C44.0799 22.0559 43.2821 22.6649 42.2413 23.0881C41.2062 23.5113 39.9566 23.7229 38.4926 23.7229C37.0228 23.7229 35.7418 23.5027 34.6495 23.0624C33.5572 22.622 32.7079 21.9529 32.1017 21.0551C31.4955 20.1572 31.1838 19.022 31.1667 17.6495H35.2328C35.2671 18.2156 35.4187 18.6874 35.6874 19.0649C35.9562 19.4423 36.3251 19.7283 36.7941 19.9227C37.2687 20.1172 37.8177 20.2144 38.4411 20.2144C39.013 20.2144 39.4991 20.1372 39.8994 19.9828C40.3055 19.8284 40.6171 19.6139 40.8344 19.3394C41.0518 19.0649 41.1633 18.7503 41.169 18.3958C41.1633 18.0641 41.0603 17.781 40.8602 17.5465C40.66 17.3063 40.3512 17.1004 39.9337 16.9289C39.522 16.7516 38.9958 16.5886 38.3553 16.4399L36.5195 16.011C34.9983 15.6621 33.8002 15.0988 32.9252 14.3211C32.0502 13.5376 31.6156 12.4796 31.6213 11.1471C31.6156 10.0605 31.9073 9.10829 32.4963 8.29049C33.0853 7.47269 33.9003 6.83503 34.9411 6.37752C35.982 5.92001 37.1686 5.69125 38.5011 5.69125C39.8622 5.69125 41.0432 5.92287 42.044 6.3861C43.0505 6.84361 43.8311 7.48698 44.3859 8.31622C44.9406 9.14546 45.2237 10.1062 45.2351 11.1985H41.169ZM52.5772 23.7401C51.2389 23.7401 50.0523 23.5113 49.0172 23.0538C47.9878 22.5906 47.1757 21.9529 46.5809 21.1408C45.9861 20.3288 45.683 19.3937 45.6716 18.3357H49.9436C49.9608 18.7189 50.0837 19.0592 50.3125 19.3565C50.5412 19.6482 50.8529 19.877 51.2475 20.0428C51.6421 20.2087 52.0911 20.2916 52.5943 20.2916C53.0976 20.2916 53.5408 20.2029 53.924 20.0257C54.3129 19.8427 54.616 19.5939 54.8333 19.2793C55.0506 18.9591 55.1564 18.5931 55.1507 18.1813C55.1564 17.7696 55.0392 17.4035 54.799 17.0833C54.5588 16.763 54.2185 16.5143 53.7781 16.337C53.3435 16.1597 52.8288 16.071 52.234 16.071H50.5269V13.0515H52.234C52.7545 13.0515 53.212 12.9657 53.6066 12.7941C54.0069 12.6225 54.3186 12.3824 54.5416 12.0735C54.7646 11.759 54.8733 11.3987 54.8676 10.9927C54.8733 10.5981 54.7789 10.2521 54.5845 9.95469C54.3958 9.65158 54.1298 9.41711 53.7867 9.25126C53.4493 9.08541 53.0576 9.00249 52.6115 9.00249C52.1425 9.00249 51.7165 9.08541 51.3333 9.25126C50.9559 9.41711 50.6556 9.65158 50.4326 9.95469C50.2095 10.2578 50.0923 10.6095 50.0809 11.0098H46.0233C46.0348 9.96326 46.3264 9.04252 46.8983 8.2476C47.4702 7.44695 48.248 6.82073 49.2316 6.36894C50.221 5.91715 51.3476 5.69125 52.6115 5.69125C53.8696 5.69125 54.9762 5.91143 55.9313 6.35178C56.8864 6.79214 57.6298 7.39262 58.1617 8.15323C58.6935 8.90813 58.9595 9.7631 58.9595 10.7182C58.9652 11.7075 58.6421 12.5225 57.9901 13.163C57.3439 13.8035 56.5118 14.1981 55.4938 14.3468V14.484C56.8549 14.6442 57.8814 15.0845 58.5734 15.8051C59.2711 16.5257 59.6171 17.4264 59.6114 18.5073C59.6114 19.5253 59.3112 20.4288 58.7107 21.218C58.1159 22.0015 57.2867 22.6192 56.223 23.071C55.165 23.517 53.9497 23.7401 52.5772 23.7401Z" fill="black"/>
<path d="M65.7533 5.93136H71.0118L75.4725 16.8087H75.6784L80.1391 5.93136H85.3977V23.4998H81.2629V12.7082H81.1171L76.8965 23.3883H74.2544L70.0339 12.6482H69.888V23.4998H65.7533V5.93136ZM102.937 14.7156C102.937 16.6486 102.565 18.287 101.822 19.631C101.079 20.9749 100.072 21.9957 98.8024 22.6934C97.5386 23.3911 96.1203 23.74 94.5476 23.74C92.9692 23.74 91.548 23.3883 90.2841 22.6849C89.0203 21.9814 88.0166 20.9606 87.2731 19.6224C86.5354 18.2785 86.1665 16.6428 86.1665 14.7156C86.1665 12.7826 86.5354 11.1441 87.2731 9.80019C88.0166 8.45625 89.0203 7.43543 90.2841 6.73772C91.548 6.04002 92.9692 5.69117 94.5476 5.69117C96.1203 5.69117 97.5386 6.04002 98.8024 6.73772C100.072 7.43543 101.079 8.45625 101.822 9.80019C102.565 11.1441 102.937 12.7826 102.937 14.7156ZM98.5966 14.7156C98.5966 13.5718 98.4336 12.6053 98.1076 11.8161C97.7873 11.0269 97.3241 10.4293 96.7179 10.0232C96.1174 9.61719 95.394 9.41417 94.5476 9.41417C93.7069 9.41417 92.9835 9.61719 92.3773 10.0232C91.7711 10.4293 91.305 11.0269 90.979 11.8161C90.6587 12.6053 90.4986 13.5718 90.4986 14.7156C90.4986 15.8594 90.6587 16.8259 90.979 17.6151C91.305 18.4043 91.7711 19.0019 92.3773 19.4079C92.9835 19.814 93.7069 20.017 94.5476 20.017C95.394 20.017 96.1174 19.814 96.7179 19.4079C97.3241 19.0019 97.7873 18.4043 98.1076 17.6151C98.4336 16.8259 98.5966 15.8594 98.5966 14.7156ZM118.677 5.93136V23.4998H115.075L108.083 13.3602H107.972V23.4998H103.725V5.93136H107.38L114.294 16.0538H114.44V5.93136H118.677ZM119.656 23.4998V5.93136H131.906V9.37985H123.903V12.9828H131.28V16.4398H123.903V20.0513H131.906V23.4998H119.656ZM132 5.93136H136.743L140.458 13.283H140.612L144.327 5.93136H149.071L142.645 17.6322V23.4998H138.425V17.6322L132 5.93136Z" fill="black"/>
<rect x="60.8136" y="20.5975" width="3.33117" height="3.33117" rx="1.66559" fill="#FE6321"/>
<defs>
<clipPath id="clip0_190_796">
<rect width="23.2072" height="23.2773" rx="11.6036" transform="matrix(-1 0 0 1 23.2826 3.49774)" fill="white"/>
</clipPath>
</defs>
</svg>
