<svg width="131" height="47" viewBox="0 0 131 47" fill="none" xmlns="http://www.w3.org/2000/svg">
<path d="M11.768 0.223997C13.848 0.223997 15.608 0.575997 17.048 1.28C18.52 1.984 19.256 2.88 19.256 3.968C19.256 4.448 19.128 4.864 18.872 5.216C18.648 5.568 18.296 5.744 17.816 5.744C17.368 5.744 16.376 5.392 14.84 4.688C13.304 3.952 11.896 3.584 10.616 3.584C9.368 3.584 8.072 3.984 6.728 4.784C5.384 5.584 4.712 6.56 4.712 7.712C4.712 9.28 5.528 10.432 7.16 11.168C8.376 11.712 10.12 12.208 12.392 12.656C14.664 13.072 16.52 13.952 17.96 15.296C19.4 16.608 20.12 18.608 20.12 21.296C20.12 25.392 18.888 28.416 16.424 30.368C15.048 31.456 13.096 32 10.568 32C8.072 32 5.576 31.312 3.08 29.936C1.448 29.072 0.632 28.208 0.632 27.344C0.632 27.024 0.76 26.672 1.016 26.288C1.304 25.904 1.688 25.584 2.168 25.328C2.648 25.072 3.08 25.04 3.464 25.232C3.88 25.392 4.536 25.696 5.432 26.144C6.328 26.592 6.984 26.896 7.4 27.056C8.744 27.568 10.008 27.824 11.192 27.824C12.376 27.824 13.512 27.248 14.6 26.096C15.72 24.912 16.28 23.472 16.28 21.776C16.28 19.536 15.16 17.968 12.92 17.072C11.832 16.624 10.6 16.288 9.224 16.064C6.376 15.552 4.232 14.704 2.792 13.52C1.352 12.304 0.632 10.48 0.632 8.048C0.632 5.616 1.672 3.712 3.752 2.336C5.832 0.927998 8.504 0.223997 11.768 0.223997ZM31.4953 3.968C29.6073 3.968 27.8473 4.784 26.2153 6.416C25.7673 6.736 25.3673 6.896 25.0153 6.896C24.6633 6.896 24.3593 6.864 24.1033 6.8C23.3673 6.576 22.9993 6.064 22.9993 5.264C22.9993 3.952 23.8313 2.8 25.4953 1.808C27.1593 0.815999 29.1273 0.319999 31.3993 0.319999C33.6713 0.319999 35.5593 0.927999 37.0633 2.144C38.5993 3.328 39.3673 4.88 39.3673 6.8C39.3673 8.72 39.1433 10.32 38.6953 11.6C38.2793 12.88 37.3513 13.936 35.9113 14.768C39.3033 16.048 40.9993 18.352 40.9993 21.68C40.9993 24.496 40.1513 26.928 38.4553 28.976C36.7593 30.992 34.6793 32 32.2153 32C29.7833 32 27.6393 31.424 25.7833 30.272C23.9273 29.088 22.9993 27.76 22.9993 26.288C22.9993 26 23.1593 25.664 23.4793 25.28C23.7993 24.896 24.2633 24.704 24.8713 24.704C25.4793 24.704 26.1353 24.992 26.8393 25.568C27.5433 26.112 28.3433 26.672 29.2393 27.248C30.1353 27.792 31.1433 28.064 32.2633 28.064C35.4633 28.064 37.0633 26.064 37.0633 22.064C37.0633 20.528 36.5033 19.296 35.3833 18.368C34.2953 17.408 32.7433 16.912 30.7273 16.88C30.3113 16.848 29.9913 16.816 29.7673 16.784C29.5753 16.752 29.3033 16.608 28.9513 16.352C28.6313 16.096 28.4713 15.696 28.4713 15.152C28.4713 14 29.1113 13.376 30.3913 13.28C31.6713 13.184 32.8073 12.608 33.7993 11.552C34.8233 10.496 35.3353 9.168 35.3353 7.568C35.3353 6.672 34.9513 5.856 34.1833 5.12C33.4153 4.352 32.5193 3.968 31.4953 3.968ZM54.9054 25.328L54.9534 21.584L55.3854 1.52C55.3854 1.136 55.5934 0.831999 56.0094 0.607998C56.4254 0.383999 56.9534 0.271999 57.5934 0.271999C59.1294 0.271999 59.8974 0.815999 59.8974 1.904C59.8974 2.256 59.7054 4.944 59.3214 9.968C58.9694 14.992 58.7934 18 58.7934 18.992C58.7934 18.992 58.7934 20.688 58.7934 24.08C58.7934 26.48 58.9534 27.792 59.2734 28.016C59.7534 28.176 60.3134 28.256 60.9534 28.256L67.8654 27.776C69.3694 27.776 70.1214 28.32 70.1214 29.408C70.1214 30.272 69.7054 30.912 68.8734 31.328C68.0734 31.712 67.2734 31.936 66.4734 32C65.6734 32.032 64.6974 32.048 63.5454 32.048C58.5214 32.048 55.8014 31.888 55.3854 31.568C55.1614 31.376 55.0334 30.656 55.0014 29.408C54.9694 28.128 54.9374 27.232 54.9054 26.72C54.9054 26.208 54.9054 25.744 54.9054 25.328ZM81.7888 9.632C84.0928 9.632 85.9808 10.736 87.4528 12.944C88.9568 15.152 89.7088 17.808 89.7088 20.912C89.7088 23.984 88.9408 26.608 87.4048 28.784C85.9008 30.96 83.8848 32.048 81.3568 32.048C78.8608 32.048 76.8448 30.944 75.3088 28.736C73.7728 26.496 73.0048 24.016 73.0048 21.296C73.0048 17.808 73.7088 15.024 75.1168 12.944C76.6208 10.736 78.8448 9.632 81.7888 9.632ZM81.2128 13.568C79.8688 13.568 78.7648 14.272 77.9008 15.68C77.0368 17.088 76.6048 18.576 76.6048 20.144C76.6048 22.576 77.0848 24.432 78.0448 25.712C79.0048 26.992 80.0928 27.632 81.3088 27.632C83.4848 27.632 84.8768 26.688 85.4848 24.8C85.7408 23.904 85.8688 22.784 85.8688 21.44C85.8688 16.192 84.3168 13.568 81.2128 13.568ZM106.428 30.032C105.276 31.376 103.82 32.048 102.06 32.048C100.3 32.048 98.7801 31.504 97.5001 30.416C94.8121 28.336 93.4681 25.152 93.4681 20.864C93.4681 17.504 94.3961 14.816 96.2521 12.8C98.1081 10.752 100.396 9.728 103.116 9.728C105.836 9.728 107.692 10.656 108.684 12.512C109.548 14.144 109.98 16.608 109.98 19.904L109.884 23.84C109.884 25.696 109.964 28.272 110.124 31.568C110.316 34.832 110.412 37.296 110.412 38.96C110.412 41.712 109.724 43.728 108.348 45.008C107.004 46.32 104.94 46.976 102.156 46.976C100.492 46.976 98.7961 46.624 97.0681 45.92C95.3401 45.216 94.4761 44.4 94.4761 43.472C94.4761 42.8 94.6521 42.288 95.0041 41.936C95.3881 41.584 95.8201 41.408 96.3001 41.408C96.7801 41.408 97.8521 41.76 99.5161 42.464C101.212 43.168 102.428 43.52 103.164 43.52C105.468 43.52 106.62 41.632 106.62 37.856C106.62 34.08 106.556 31.472 106.428 30.032ZM106.38 19.904C106.38 17.568 106.028 15.936 105.324 15.008C104.652 14.048 103.58 13.568 102.108 13.568C100.636 13.568 99.4521 14.24 98.5561 15.584C97.6601 16.928 97.2121 18.64 97.2121 20.72C97.2121 22.768 97.6281 24.4 98.4601 25.616C99.3241 26.832 100.636 27.44 102.396 27.44C104.156 27.44 105.292 26.688 105.804 25.184C106.188 23.968 106.38 22.208 106.38 19.904ZM122.523 9.632C124.827 9.632 126.715 10.736 128.187 12.944C129.691 15.152 130.443 17.808 130.443 20.912C130.443 23.984 129.675 26.608 128.139 28.784C126.635 30.96 124.619 32.048 122.091 32.048C119.595 32.048 117.579 30.944 116.043 28.736C114.507 26.496 113.739 24.016 113.739 21.296C113.739 17.808 114.443 15.024 115.851 12.944C117.355 10.736 119.579 9.632 122.523 9.632ZM121.947 13.568C120.603 13.568 119.499 14.272 118.635 15.68C117.771 17.088 117.339 18.576 117.339 20.144C117.339 22.576 117.819 24.432 118.779 25.712C119.739 26.992 120.827 27.632 122.043 27.632C124.219 27.632 125.611 26.688 126.219 24.8C126.475 23.904 126.603 22.784 126.603 21.44C126.603 16.192 125.051 13.568 121.947 13.568Z" fill="#333333"/>
</svg>
