<svg width="18" height="20" viewBox="0 0 18 20" fill="none" xmlns="http://www.w3.org/2000/svg">
<path d="M13.1667 16.6667H13C11.5999 16.6667 10.8998 16.6667 10.365 16.3942C9.89462 16.1545 9.51217 15.7721 9.27248 15.3016C9 14.7669 9 14.0668 9 12.6667V7.33334C9 5.9332 9 5.23314 9.27248 4.69836C9.51217 4.22795 9.89462 3.8455 10.365 3.60582C10.8998 3.33333 11.5999 3.33333 13 3.33333H13.1667M13.1667 16.6667C13.1667 17.5871 13.9129 18.3333 14.8333 18.3333C15.7538 18.3333 16.5 17.5871 16.5 16.6667C16.5 15.7462 15.7538 15 14.8333 15C13.9129 15 13.1667 15.7462 13.1667 16.6667ZM13.1667 3.33333C13.1667 4.25381 13.9129 5 14.8333 5C15.7538 5 16.5 4.25381 16.5 3.33333C16.5 2.41286 15.7538 1.66667 14.8333 1.66667C13.9129 1.66667 13.1667 2.41286 13.1667 3.33333ZM4.83333 10L13.1667 10M4.83333 10C4.83333 10.9205 4.08714 11.6667 3.16667 11.6667C2.24619 11.6667 1.5 10.9205 1.5 10C1.5 9.07953 2.24619 8.33333 3.16667 8.33333C4.08714 8.33333 4.83333 9.07953 4.83333 10ZM13.1667 10C13.1667 10.9205 13.9129 11.6667 14.8333 11.6667C15.7538 11.6667 16.5 10.9205 16.5 10C16.5 9.07953 15.7538 8.33333 14.8333 8.33333C13.9129 8.33333 13.1667 9.07953 13.1667 10Z" stroke="#808897" stroke-width="2" stroke-linecap="round" stroke-linejoin="round"/>
</svg>
