<svg width="18" height="18" viewBox="0 0 18 18" fill="none" xmlns="http://www.w3.org/2000/svg">
<path fill-rule="evenodd" clip-rule="evenodd" d="M9.43602 0.113627C9.15077 0.0363939 8.85011 0.0363939 8.56486 0.113627C8.23373 0.203285 7.95494 0.422163 7.73243 0.596855L7.67024 0.645536L1.95356 5.09177C1.6397 5.33533 1.36319 5.54992 1.15714 5.82851C0.976316 6.07299 0.84161 6.34841 0.759643 6.64125C0.666242 6.97493 0.66662 7.32494 0.66705 7.72222L0.667108 13.8654C0.667093 14.3047 0.66708 14.6837 0.692583 14.9958C0.7195 15.3253 0.77893 15.653 0.939592 15.9683C1.17928 16.4387 1.56173 16.8212 2.03213 17.0608C2.34745 17.2215 2.67513 17.2809 3.00459 17.3078C3.31672 17.3333 3.69569 17.3333 4.13497 17.3333H13.8659C14.3052 17.3333 14.6842 17.3333 14.9963 17.3078C15.3258 17.2809 15.6534 17.2215 15.9688 17.0608C16.4392 16.8212 16.8216 16.4387 17.0613 15.9683C17.222 15.653 17.2814 15.3253 17.3083 14.9958C17.3338 14.6837 17.3338 14.3047 17.3338 13.8655L17.3338 7.72223C17.3343 7.32494 17.3346 6.97493 17.2412 6.64125C17.1593 6.34841 17.0246 6.07299 16.8437 5.82851C16.6377 5.54992 16.3612 5.33533 16.0473 5.09176L10.3306 0.645537L10.2685 0.596858C10.0459 0.422166 9.76716 0.203286 9.43602 0.113627ZM5.66712 12.3333C5.20688 12.3333 4.83379 12.7064 4.83379 13.1667C4.83379 13.6269 5.20688 14 5.66712 14H12.3338C12.794 14 13.1671 13.6269 13.1671 13.1667C13.1671 12.7064 12.794 12.3333 12.3338 12.3333H5.66712Z" fill="#0D0D12"/>
</svg>
