<svg width="24" height="24" viewBox="0 0 24 24" fill="none" xmlns="http://www.w3.org/2000/svg">
<path d="M16.0688 10.3327L10.7988 7.25464C10.5136 7.08694 10.19 6.99909 9.86066 7.00001C9.53136 7.00093 9.20817 7.09059 8.92391 7.25989C8.63965 7.42919 8.40445 7.67209 8.2422 7.96392C8.07995 8.25575 7.99643 8.58612 8.00012 8.92147V15.0998C8.00012 15.6038 8.19669 16.0871 8.54659 16.4435C8.89649 16.7998 9.37106 17 9.8659 17C10.1935 16.9994 10.5152 16.9113 10.7988 16.7444L16.0688 13.6664C16.352 13.4994 16.5871 13.2596 16.7505 12.971C16.914 12.6823 17 12.355 17 12.0218C17 11.6885 16.914 11.3612 16.7505 11.0725C16.5871 10.7839 16.352 10.5441 16.0688 10.3772V10.3327ZM15.5233 12.6607L10.2532 15.7832C10.1351 15.8514 10.0017 15.8872 9.8659 15.8872C9.73013 15.8872 9.59668 15.8514 9.47856 15.7832C9.36077 15.714 9.26297 15.6143 9.19497 15.4944C9.12698 15.3744 9.0912 15.2383 9.09122 15.0998V8.89924C9.0912 8.76073 9.12698 8.62465 9.19497 8.50468C9.26297 8.38472 9.36077 8.2851 9.47856 8.21585C9.59717 8.1487 9.73022 8.11244 9.8659 8.11028C10.0015 8.11311 10.1344 8.14933 10.2532 8.21585L15.5233 11.3161C15.6411 11.3854 15.7389 11.485 15.807 11.6049C15.875 11.7249 15.9108 11.861 15.9108 11.9995C15.9108 12.1381 15.875 12.2742 15.807 12.3941C15.7389 12.5141 15.6411 12.6137 15.5233 12.6829V12.6607Z" fill="#FE6321"/>
<path d="M3 7.8C3 6.11984 3 5.27976 3.32698 4.63803C3.6146 4.07354 4.07354 3.6146 4.63803 3.32698C5.27976 3 6.11984 3 7.8 3H16.2C17.8802 3 18.7202 3 19.362 3.32698C19.9265 3.6146 20.3854 4.07354 20.673 4.63803C21 5.27976 21 6.11984 21 7.8V16.2C21 17.8802 21 18.7202 20.673 19.362C20.3854 19.9265 19.9265 20.3854 19.362 20.673C18.7202 21 17.8802 21 16.2 21H7.8C6.11984 21 5.27976 21 4.63803 20.673C4.07354 20.3854 3.6146 19.9265 3.32698 19.362C3 18.7202 3 17.8802 3 16.2V7.8Z" stroke="#FE6321" stroke-width="1.5" stroke-linecap="round" stroke-linejoin="round"/>
</svg>
