<svg width="18" height="18" viewBox="0 0 18 18" fill="none" xmlns="http://www.w3.org/2000/svg">
<path d="M6.57533 6.49996C6.77125 5.94302 7.15795 5.47338 7.66695 5.17424C8.17596 4.87509 8.77441 4.76574 9.35631 4.86555C9.93821 4.96536 10.466 5.2679 10.8462 5.71957C11.2264 6.17124 11.4345 6.74289 11.4337 7.33329C11.4337 8.99996 8.93366 9.83329 8.93366 9.83329M9.00033 13.1666H9.00866M17.3337 8.99996C17.3337 13.6023 13.6027 17.3333 9.00033 17.3333C4.39795 17.3333 0.666992 13.6023 0.666992 8.99996C0.666992 4.39759 4.39795 0.666626 9.00033 0.666626C13.6027 0.666626 17.3337 4.39759 17.3337 8.99996Z" stroke="#98A2B3" stroke-width="1.33333" stroke-linecap="round" stroke-linejoin="round"/>
</svg>
