<svg width="381" height="295" viewBox="0 0 381 295" fill="none" xmlns="http://www.w3.org/2000/svg">
<g opacity="0.39">
<path d="M262.81 251.424C252.733 257.022 240.371 249.635 240.527 238.109L241.016 201.951C241.155 191.702 232.26 183.662 222.078 184.832L186.152 188.958C174.701 190.274 166.107 178.718 170.662 168.129L184.951 134.91C189.001 125.495 183.86 114.663 174.005 111.847L139.235 101.912C128.152 98.7445 124.634 84.7795 132.894 76.7397L158.808 51.5181C166.153 44.3692 165.549 32.3948 157.522 26.0217L129.201 3.53664C120.173 -3.63081 122.267 -17.879 132.975 -22.1457L166.568 -35.5307C176.09 -39.3246 180.114 -50.6187 175.137 -59.5787L157.576 -91.19C151.979 -101.267 159.366 -113.629 170.892 -113.473L207.05 -112.984C217.299 -112.845 225.339 -121.739 224.169 -131.922L220.043 -167.847C218.727 -179.299 230.283 -187.893 240.872 -183.338L274.09 -169.049C283.506 -164.999 294.337 -170.139 297.154 -179.995L307.089 -214.764C310.256 -225.848 324.221 -229.366 332.261 -221.105L357.483 -195.192C364.632 -187.847 376.606 -188.451 382.979 -196.478L405.464 -224.799C412.632 -233.827 426.88 -231.732 431.146 -221.024L444.531 -187.431C448.325 -177.91 459.619 -173.885 468.579 -178.863L500.191 -196.423C510.267 -202.021 522.63 -194.634 522.474 -183.108L521.984 -146.95C521.846 -136.701 530.74 -128.661 540.923 -129.831L576.848 -133.957C588.3 -135.273 596.894 -123.717 592.339 -113.128L578.05 -79.9094C574 -70.4939 579.14 -59.6622 588.995 -56.8461L623.765 -46.9106C634.849 -43.7435 638.366 -29.7785 630.106 -21.7387L604.192 3.48299C596.847 10.6318 597.452 22.6062 605.479 28.9794L633.8 51.4644C642.827 58.6319 640.733 72.8801 630.025 77.1467L596.432 90.5318C586.91 94.3256 582.886 105.62 587.864 114.58L605.424 146.191C611.022 156.268 603.634 168.63 592.108 168.474L555.95 167.985C545.702 167.846 537.662 176.74 538.831 186.923L542.958 222.848C544.273 234.3 532.718 242.894 522.129 238.339L488.91 224.05C479.495 220 468.663 225.141 465.847 234.996L455.911 269.765C452.744 280.849 438.779 284.367 430.739 276.106L405.518 250.193C398.369 242.848 386.395 243.452 380.021 251.479L357.536 279.8C350.369 288.828 336.121 286.734 331.854 276.025L318.469 242.432C314.675 232.911 303.381 228.886 294.421 233.864L262.81 251.424Z" stroke="url(#paint0_linear_2337_4708)" stroke-width="2"/>
<path d="M278.973 227.3C268.897 232.898 256.534 225.51 256.69 213.985L257.058 186.835C257.196 176.586 248.302 168.546 238.119 169.716L211.144 172.814C199.693 174.13 191.098 162.574 195.653 151.985L206.383 127.042C210.433 117.627 205.292 106.795 195.437 103.979L169.329 96.5188C158.246 93.3517 154.728 79.3867 162.989 71.3469L182.446 52.4088C189.791 45.26 189.187 33.2856 181.16 26.9124L159.895 10.0292C150.867 2.86173 152.961 -11.3864 163.669 -15.6531L188.893 -25.7035C198.415 -29.4974 202.439 -40.7915 197.462 -49.7515L184.276 -73.4874C178.678 -83.564 186.066 -95.9262 197.592 -95.7702L224.742 -95.4027C234.99 -95.2641 243.03 -104.158 241.861 -114.341L238.762 -141.316C237.447 -152.768 249.002 -161.362 259.591 -156.807L284.534 -146.078C293.949 -142.028 304.781 -147.168 307.597 -157.024L315.057 -183.131C318.225 -194.214 332.19 -197.732 340.229 -189.472L359.167 -170.014C366.316 -162.669 378.291 -163.273 384.664 -171.301L401.547 -192.566C408.715 -201.594 422.963 -199.499 427.229 -188.791L437.28 -163.567C441.074 -154.046 452.368 -150.021 461.328 -154.999L485.064 -168.184C495.14 -173.782 507.502 -166.395 507.346 -154.869L506.979 -127.719C506.84 -117.47 515.735 -109.43 525.917 -110.6L552.892 -113.698C564.344 -115.014 572.938 -103.458 568.383 -92.8691L557.654 -67.9265C553.604 -58.511 558.745 -47.6794 568.6 -44.8632L594.707 -37.403C605.791 -34.2359 609.308 -20.2709 601.048 -12.2311L581.59 6.70697C574.245 13.8558 574.85 25.8302 582.877 32.2034L604.142 49.0866C613.17 56.2541 611.076 70.5022 600.367 74.7689L575.143 84.8193C565.622 88.6131 561.598 99.9073 566.575 108.867L579.761 132.603C585.358 142.68 577.971 155.042 566.445 154.886L539.295 154.519C529.046 154.38 521.006 163.274 522.176 173.457L525.275 200.432C526.59 211.884 515.034 220.478 504.445 215.923L479.503 205.194C470.087 201.144 459.256 206.284 456.439 216.139L448.979 242.247C445.812 253.33 431.847 256.848 423.807 248.588L404.869 229.13C397.72 221.785 385.746 222.389 379.373 230.416L362.49 251.682C355.322 260.709 341.074 258.615 336.807 247.907L326.757 222.683C322.963 213.161 311.669 209.137 302.709 214.115L278.973 227.3Z" stroke="url(#paint1_linear_2337_4708)" stroke-width="2"/>
<path d="M292.991 201.893C282.914 207.49 270.552 200.103 270.708 188.577L270.963 169.697C271.102 159.448 262.208 151.408 252.025 152.578L233.266 154.733C221.815 156.048 213.221 144.492 217.775 133.903L225.237 116.558C229.287 107.143 224.146 96.3111 214.291 93.495L196.136 88.3072C185.052 85.1401 181.535 71.1751 189.795 63.1353L203.326 49.9658C210.671 42.8169 210.067 30.8425 202.039 24.4694L187.252 12.7288C178.224 5.56132 180.318 -8.68683 191.026 -12.9535L208.567 -19.9426C218.089 -23.7364 222.113 -35.0306 217.135 -43.9905L207.966 -60.4965C202.368 -70.5731 209.756 -82.9353 221.282 -82.7793L240.162 -82.5238C250.41 -82.3851 258.45 -91.2795 257.281 -101.462L255.126 -120.221C253.811 -131.672 265.366 -140.266 275.955 -135.712L293.3 -128.25C302.716 -124.2 313.548 -129.341 316.364 -139.196L321.552 -157.351C324.719 -168.435 338.684 -171.952 346.723 -163.692L359.893 -150.161C367.042 -142.816 379.016 -143.42 385.389 -151.448L397.13 -166.236C404.297 -175.263 418.546 -173.169 422.812 -162.461L429.801 -144.92C433.595 -135.398 444.889 -131.374 453.849 -136.352L470.355 -145.521C480.432 -151.119 492.794 -143.731 492.638 -132.205L492.382 -113.325C492.244 -103.077 501.138 -95.0366 511.321 -96.2063L530.079 -98.361C541.531 -99.6764 550.125 -88.1206 545.57 -77.5317L538.109 -60.1866C534.059 -50.7712 539.2 -39.9395 549.055 -37.1233L567.21 -31.9355C578.293 -28.7684 581.811 -14.8034 573.551 -6.76362L560.02 6.40591C552.675 13.5547 553.279 25.5291 561.306 31.9023L576.094 43.6429C585.122 50.8103 583.028 65.0585 572.319 69.3252L554.779 76.3142C545.257 80.1081 541.233 91.4023 546.21 100.362L555.38 116.868C560.977 126.945 553.59 139.307 542.064 139.151L523.184 138.895C512.935 138.757 504.895 147.651 506.065 157.834L508.22 176.592C509.535 188.044 497.979 196.638 487.39 192.083L470.045 184.622C460.63 180.572 449.798 185.713 446.982 195.568L441.794 213.723C438.627 224.806 424.662 228.324 416.622 220.064L403.453 206.533C396.304 199.188 384.33 199.792 377.956 207.819L366.216 222.607C359.048 231.635 344.8 229.541 340.533 218.832L333.544 201.292C329.751 191.77 318.456 187.746 309.496 192.723L292.991 201.893Z" stroke="url(#paint2_linear_2337_4708)" stroke-width="2"/>
<path d="M306.579 176.229C296.502 181.827 284.14 174.44 284.296 162.914L284.442 152.156C284.58 141.907 275.686 133.867 265.503 135.037L254.815 136.265C243.363 137.58 234.769 126.024 239.324 115.436L243.575 105.552C247.625 96.1368 242.484 85.3052 232.629 82.4891L222.285 79.533C211.201 76.3659 207.683 62.4009 215.944 54.3611L223.654 46.8571C230.999 39.7083 230.394 27.7339 222.367 21.3607L213.941 14.6709C204.913 7.50347 207.007 -6.74468 217.716 -11.0114L227.71 -14.9937C237.232 -18.7876 241.256 -30.0817 236.279 -39.0417L231.054 -48.4468C225.457 -58.5234 232.844 -70.8855 244.37 -70.7296L255.128 -70.584C265.376 -70.4453 273.416 -79.3397 272.247 -89.5224L271.019 -100.211C269.703 -111.663 281.259 -120.257 291.848 -115.702L301.731 -111.451C311.147 -107.4 321.979 -112.541 324.795 -122.396L327.751 -132.741C330.918 -143.824 344.883 -147.342 352.923 -139.082L360.427 -131.372C367.575 -124.027 379.55 -124.631 385.923 -132.658L392.613 -141.085C399.78 -150.112 414.028 -148.018 418.295 -137.31L422.277 -127.315C426.071 -117.794 437.365 -113.769 446.325 -118.747L455.73 -123.971C465.807 -129.569 478.169 -122.182 478.013 -110.656L477.868 -99.8979C477.729 -89.6492 486.623 -81.6093 496.806 -82.7789L507.495 -84.0067C518.946 -85.3221 527.541 -73.7663 522.986 -63.1774L518.734 -53.2941C514.684 -43.8787 519.825 -33.047 529.68 -30.2309L540.025 -27.2748C551.108 -24.1078 554.626 -10.1428 546.366 -2.10298L538.656 5.40104C531.311 12.5499 531.915 24.5243 539.942 30.8974L548.368 37.5872C557.396 44.7547 555.302 59.0028 544.594 63.2695L534.599 67.2519C525.077 71.0457 521.053 82.3399 526.03 91.2998L531.255 100.705C536.853 110.782 529.465 123.144 517.939 122.988L507.182 122.842C496.933 122.703 488.893 131.598 490.063 141.781L491.29 152.469C492.606 163.921 481.05 172.515 470.461 167.96L460.578 163.709C451.162 159.659 440.331 164.799 437.515 174.654L434.559 184.999C431.391 196.083 417.426 199.6 409.387 191.34L401.883 183.63C394.734 176.285 382.759 176.889 376.386 184.917L369.696 193.343C362.529 202.37 348.281 200.276 344.014 189.568L340.032 179.573C336.238 170.052 324.944 166.027 315.984 171.005L306.579 176.229Z" stroke="url(#paint3_linear_2337_4708)" stroke-width="2"/>
<path d="M280.38 120.508L280.494 121.502L280.38 120.508C268.929 121.824 260.334 110.268 264.889 99.6789L265.522 98.2072C269.573 88.7917 264.432 77.96 254.577 75.1439L253.036 74.7037C241.953 71.5366 238.435 57.5716 246.696 49.5318L247.844 48.4144C255.189 41.2656 254.584 29.2912 246.557 22.918L245.302 21.9219C236.275 14.7544 238.369 0.506253 249.077 -3.76043L250.565 -4.35343C260.087 -8.14729 264.111 -19.4415 259.134 -28.4014L258.356 -29.8019C252.758 -39.8785 260.145 -52.2407 271.671 -52.0847L273.273 -52.063C283.522 -51.9243 291.562 -60.8188 290.392 -71.0014L290.209 -72.593C288.894 -84.0447 300.45 -92.6389 311.039 -88.084L312.51 -87.451C321.926 -83.4008 332.758 -88.5415 335.574 -98.3966L336.014 -99.9371C339.181 -111.02 353.146 -114.538 361.186 -106.278L362.303 -105.13C369.452 -97.7848 381.426 -98.389 387.8 -106.416L388.796 -107.671C395.963 -116.699 410.211 -114.605 414.478 -103.896L415.071 -102.408C418.865 -92.8864 430.159 -88.8622 439.119 -93.8395L440.52 -94.6175C450.596 -100.215 462.958 -92.8279 462.802 -81.302L462.781 -79.7C462.642 -69.4513 471.536 -61.4114 481.719 -62.581L483.311 -62.7639C494.762 -64.0793 503.357 -52.5235 498.802 -41.9346L498.169 -40.4629C494.118 -31.0475 499.259 -20.2158 509.114 -17.3996L510.655 -16.9595C521.738 -13.7924 525.256 0.172604 516.995 8.21241L515.847 9.32979C508.502 16.4786 509.107 28.453 517.134 34.8262L518.389 35.8224C527.416 42.9898 525.322 57.238 514.614 61.5047L513.126 62.0977C503.604 65.8915 499.58 77.1857 504.557 86.1457L505.335 87.5461C510.933 97.6227 503.546 109.985 492.02 109.829L492.006 110.829L492.02 109.829L490.418 109.807C480.169 109.669 472.129 118.563 473.299 128.746L473.481 130.337C474.797 141.789 463.241 150.383 452.652 145.828L451.181 145.195C441.765 141.145 430.933 146.286 428.117 156.141L427.677 157.681C424.51 168.765 410.545 172.282 402.505 164.022L401.388 162.874C394.239 155.529 382.265 156.133 375.891 164.161L374.895 165.415C367.728 174.443 353.48 172.349 349.213 161.641L348.62 160.152C344.826 150.631 333.532 146.606 324.572 151.584L323.171 152.362C313.095 157.959 300.733 150.572 300.889 139.046L299.889 139.033L300.889 139.046L300.91 137.444C301.049 127.196 292.155 119.156 281.972 120.325L280.38 120.508Z" stroke="url(#paint4_linear_2337_4708)" stroke-width="2"/>
<path d="M334.377 129.506C325.934 134.196 315.577 128.007 315.708 118.35C315.827 109.568 308.205 102.678 299.479 103.68C289.885 104.782 282.684 95.1006 286.5 86.2289C289.971 78.1606 285.566 68.8788 277.121 66.4656C267.835 63.8121 264.887 52.1118 271.808 45.3758C278.102 39.2498 277.584 28.9888 270.706 23.5275C263.142 17.5224 264.897 5.5848 273.868 2.01002C282.028 -1.241 285.476 -10.9191 281.211 -18.597C276.521 -27.0395 282.71 -37.397 292.367 -37.2663C301.149 -37.1475 308.039 -44.7692 307.037 -53.4949C305.934 -63.0895 315.616 -70.29 324.488 -66.4738C332.556 -63.0031 341.838 -67.4082 344.251 -75.8532C346.905 -85.1393 358.605 -88.0866 365.341 -81.1658C371.467 -74.8717 381.728 -75.3895 387.189 -82.2682C393.194 -89.832 405.132 -88.0774 408.707 -79.1056C411.958 -70.9464 421.636 -67.498 429.314 -71.7632C437.756 -76.4531 448.114 -70.2638 447.983 -60.6069C447.864 -51.8247 455.486 -44.9352 464.212 -45.9375C473.806 -47.0396 481.007 -37.3577 477.191 -28.486C473.72 -20.4177 478.125 -11.1359 486.57 -8.72276C495.856 -6.06925 498.803 5.63111 491.883 12.3671C485.589 18.4931 486.106 28.7541 492.985 34.2153C500.549 40.2205 498.794 52.1581 489.823 55.7328C481.663 58.9839 478.215 68.6619 482.48 76.3399C487.17 84.7824 480.981 95.1399 471.324 95.0092C462.542 94.8903 455.652 102.512 456.654 111.238C457.756 120.832 448.075 128.033 439.203 124.217C431.135 120.746 421.853 125.151 419.44 133.596C416.786 142.882 405.086 145.829 398.35 138.909C392.224 132.615 381.963 133.132 376.502 140.011C370.496 147.575 358.559 145.82 354.984 136.848C351.733 128.689 342.055 125.241 334.377 129.506Z" stroke="url(#paint5_linear_2337_4708)" stroke-width="2"/>
<path d="M343.333 105.922C336.762 109.572 328.7 104.754 328.802 97.2382C328.898 90.1353 322.734 84.5633 315.677 85.3739C308.209 86.2317 302.605 78.6959 305.575 71.7907C308.382 65.2654 304.819 57.7585 297.989 55.8068C290.761 53.7415 288.467 44.6346 293.854 39.3917C298.945 34.4372 298.526 26.1384 292.963 21.7215C287.075 17.0475 288.441 7.75597 295.424 4.97358C302.023 2.34426 304.812 -5.48311 301.362 -11.6928C297.712 -18.2639 302.53 -26.3256 310.046 -26.2238C317.149 -26.1277 322.721 -32.292 321.91 -39.349C321.052 -46.8169 328.588 -52.4214 335.493 -49.451C342.019 -46.6441 349.525 -50.2068 351.477 -57.0369C353.542 -64.2646 362.649 -66.5586 367.892 -61.1718C372.847 -56.0814 381.146 -56.5002 385.562 -62.0634C390.236 -67.9506 399.528 -66.5849 402.31 -59.6019C404.94 -53.0029 412.767 -50.214 418.977 -53.6635C425.548 -57.3139 433.61 -52.4965 433.508 -44.9802C433.412 -37.8774 439.576 -32.3053 446.633 -33.1159C454.101 -33.9737 459.705 -26.438 456.735 -19.5328C453.928 -13.0074 457.491 -5.50052 464.321 -3.54883C471.549 -1.48351 473.843 7.62335 468.456 12.8662C463.365 17.8207 463.784 26.1195 469.347 30.5364C475.235 35.2105 473.869 44.502 466.886 47.2844C460.287 49.9137 457.498 57.7411 460.947 63.9507C464.598 70.5219 459.78 78.5835 452.264 78.4818C445.161 78.3857 439.589 84.5499 440.4 91.607C441.258 99.0749 433.722 104.679 426.817 101.709C420.291 98.9021 412.784 102.465 410.833 109.295C408.767 116.523 399.661 118.817 394.418 113.43C389.463 108.339 381.164 108.758 376.748 114.321C372.073 120.209 362.782 118.843 360 111.86C357.37 105.261 349.543 102.472 343.333 105.922Z" stroke="url(#paint6_linear_2337_4708)" stroke-width="2"/>
<path d="M354.046 83.8355C349.519 86.3501 343.966 83.0316 344.036 77.8541C344.107 72.5862 339.536 68.4536 334.302 69.0548C329.157 69.6457 325.297 64.4547 327.343 59.6981C329.425 54.8585 326.782 49.2909 321.717 47.8434C316.738 46.4207 315.158 40.1475 318.868 36.536C322.644 32.8614 322.333 26.7065 318.207 23.4306C314.152 20.2109 315.093 13.8105 319.903 11.8939C324.797 9.94383 326.865 4.13856 324.307 -0.466925C321.793 -4.99342 325.111 -10.5466 330.289 -10.4766C335.556 -10.4053 339.689 -14.9771 339.088 -20.211C338.497 -25.3552 343.688 -29.2158 348.445 -27.1697C353.284 -25.0879 358.852 -27.7303 360.299 -32.7959C361.722 -37.7746 367.995 -39.3548 371.607 -35.6442C375.281 -31.8688 381.436 -32.1794 384.712 -36.3055C387.932 -40.3608 394.332 -39.4201 396.249 -34.6099C398.199 -29.7157 404.004 -27.6472 408.61 -30.2056C413.136 -32.7201 418.689 -29.4017 418.619 -24.2241C418.548 -18.9562 423.12 -14.8237 428.354 -15.4248C433.498 -16.0157 437.358 -10.8248 435.312 -6.06816C433.231 -1.22854 435.873 4.33902 440.939 5.78654C445.917 7.20922 447.497 13.4824 443.787 17.094C440.011 20.7685 440.322 26.9235 444.448 30.1993C448.503 33.419 447.563 39.8194 442.752 41.736C437.858 43.6861 435.79 49.4914 438.348 54.0969C440.863 58.6234 437.544 64.1766 432.367 64.1065C427.099 64.0352 422.966 68.607 423.567 73.841C424.158 78.9852 418.967 82.8458 414.211 80.7997C409.371 78.7179 403.804 81.3602 402.356 86.4258C400.933 91.4046 394.66 92.9848 391.049 89.2742C387.374 85.4988 381.219 85.8093 377.943 89.9354C374.724 93.9908 368.323 93.05 366.407 88.2398C364.457 83.3456 358.651 81.2771 354.046 83.8355Z" stroke="url(#paint7_linear_2337_4708)" stroke-width="2"/>
</g>
<defs>
<linearGradient id="paint0_linear_2337_4708" x1="239.153" y1="265.71" x2="523.847" y2="-210.709" gradientUnits="userSpaceOnUse">
<stop stop-color="#E6E6E6"/>
<stop offset="1" stop-color="#808080"/>
</linearGradient>
<linearGradient id="paint1_linear_2337_4708" x1="255.317" y1="241.585" x2="508.72" y2="-182.47" gradientUnits="userSpaceOnUse">
<stop stop-color="#E6E6E6"/>
<stop offset="1" stop-color="#808080"/>
</linearGradient>
<linearGradient id="paint2_linear_2337_4708" x1="269.334" y1="216.178" x2="494.012" y2="-159.806" gradientUnits="userSpaceOnUse">
<stop stop-color="#E6E6E6"/>
<stop offset="1" stop-color="#808080"/>
</linearGradient>
<linearGradient id="paint3_linear_2337_4708" x1="282.922" y1="190.515" x2="479.387" y2="-138.257" gradientUnits="userSpaceOnUse">
<stop stop-color="#E6E6E6"/>
<stop offset="1" stop-color="#808080"/>
</linearGradient>
<linearGradient id="paint4_linear_2337_4708" x1="299.515" y1="166.647" x2="464.176" y2="-108.903" gradientUnits="userSpaceOnUse">
<stop stop-color="#E6E6E6"/>
<stop offset="1" stop-color="#808080"/>
</linearGradient>
<linearGradient id="paint5_linear_2337_4708" x1="314.391" y1="141.752" x2="449.3" y2="-84.0096" gradientUnits="userSpaceOnUse">
<stop stop-color="#E6E6E6"/>
<stop offset="1" stop-color="#808080"/>
</linearGradient>
<linearGradient id="paint6_linear_2337_4708" x1="327.55" y1="115.833" x2="434.76" y2="-63.575" gradientUnits="userSpaceOnUse">
<stop stop-color="#E6E6E6"/>
<stop offset="1" stop-color="#808080"/>
</linearGradient>
<linearGradient id="paint7_linear_2337_4708" x1="342.855" y1="91.1958" x2="419.8" y2="-37.5659" gradientUnits="userSpaceOnUse">
<stop stop-color="#E6E6E6"/>
<stop offset="1" stop-color="#808080"/>
</linearGradient>
</defs>
</svg>
