<svg width="135" height="210" viewBox="0 0 135 210" fill="none" xmlns="http://www.w3.org/2000/svg">
<g opacity="0.39">
<path d="M197.777 -12.2093L197.123 -12.9661L197.777 -12.2093C206.501 -19.7438 220.109 -15.032 222.307 -3.71633L222.405 -3.20943L223.387 -3.40002L222.405 -3.20941C224.359 6.8523 234.706 12.91 244.436 9.68889L244.926 9.52661C255.869 5.90408 266.639 15.465 264.338 26.7601L264.235 27.2661C262.19 37.3096 269.431 46.8657 279.653 47.6134L280.168 47.6511C291.664 48.492 297.955 61.4465 291.508 71.0015L291.219 71.4296C285.486 79.9258 288.519 91.5255 297.677 96.1282L298.138 96.3601C308.437 101.536 309.292 115.912 299.679 122.273L299.248 122.557C290.7 128.213 289.063 140.09 295.762 147.847L296.1 148.238C303.634 156.962 298.922 170.57 287.607 172.768L287.1 172.866C277.038 174.82 270.98 185.166 274.202 194.897L274.364 195.387C277.986 206.33 268.425 217.1 257.13 214.799L256.624 214.696C246.581 212.651 237.025 219.892 236.277 230.114L236.239 230.629C235.398 242.125 222.444 248.416 212.889 241.969L212.461 241.68C203.965 235.947 192.365 238.979 187.762 248.138L187.53 248.599C182.354 258.898 167.978 259.753 161.618 250.139L161.333 249.709C155.678 241.161 143.8 239.524 136.043 246.223L135.652 246.561C126.929 254.095 113.32 249.383 111.123 238.068L111.024 237.561C109.071 227.499 98.724 221.441 88.9936 224.663L88.5034 224.825C77.5604 228.447 66.7908 218.886 69.0912 207.591L69.1942 207.085C71.2397 197.042 63.9987 187.486 53.7764 186.738L53.7034 187.735L53.7764 186.738L53.2613 186.7C41.7651 185.859 35.474 172.905 41.9218 163.35L42.2106 162.922C47.9439 154.426 44.911 142.826 35.753 138.223L35.2916 137.991C24.9922 132.815 24.1375 118.439 33.751 112.079L33.1992 111.245L33.751 112.079L34.1817 111.794C42.7298 106.139 44.3668 94.2612 37.6673 86.5042L37.3298 86.1134C29.7953 77.3896 34.5071 63.781 45.8227 61.5838L46.3297 61.4854C56.3914 59.5317 62.449 49.1849 59.2279 39.4546L59.0657 38.9643C55.4431 28.0214 65.0041 17.2517 76.2992 19.5521L76.8052 19.6552C86.8486 21.7006 96.4048 14.4596 97.1525 4.23732L97.1902 3.72229C98.0311 -7.77398 110.986 -14.065 120.541 -7.61728L120.969 -7.32843C129.465 -1.59519 141.065 -4.62805 145.667 -13.7861L145.899 -14.2475C151.075 -24.5469 165.451 -25.4016 171.812 -15.7881L172.646 -16.3398L171.812 -15.7881L172.097 -15.3574C177.752 -6.80924 189.629 -5.17221 197.386 -11.8718L197.777 -12.2093Z" stroke="url(#207620)" stroke-width="2"/>
<path d="M147.258 -0.300832C151.883 -9.50297 164.727 -10.2666 170.41 -1.6773C175.533 6.06732 186.294 7.55048 193.322 1.4807C201.117 -5.25109 213.275 -1.04129 215.239 9.06886C217.009 18.1848 226.383 23.673 235.198 20.7547C244.976 17.5181 254.598 26.0605 252.543 36.1523C250.689 45.2516 257.25 53.9095 266.511 54.5869C276.783 55.3383 282.403 66.9127 276.643 75.4497C271.448 83.1473 274.196 93.6566 282.493 97.8267C291.695 102.452 292.459 115.296 283.87 120.979C276.125 126.102 274.642 136.863 280.712 143.891C287.444 151.685 283.234 163.844 273.124 165.807C264.008 167.577 258.519 176.952 261.438 185.767C264.674 195.544 256.132 205.167 246.04 203.111C236.941 201.258 228.283 207.819 227.606 217.08C226.854 227.352 215.28 232.972 206.743 227.212C199.045 222.017 188.536 224.765 184.366 233.062C179.741 242.264 166.897 243.028 161.214 234.439C156.09 226.694 145.329 225.211 138.301 231.281C130.507 238.012 118.348 233.803 116.385 223.693C114.615 214.577 105.241 209.088 96.4252 212.007C86.648 215.243 77.0257 206.701 79.081 196.609C80.9342 187.51 74.3739 178.852 65.1124 178.174C54.8409 177.423 49.2201 165.849 54.9809 157.312C60.1752 149.614 57.4275 139.105 49.1303 134.935C39.9281 130.31 39.1645 117.465 47.7538 111.783C55.4984 106.659 56.9816 95.8981 50.9118 88.8703C44.18 81.0759 48.3898 68.9171 58.5 66.954C67.6159 65.1839 73.1041 55.8098 70.1858 46.9941C66.9492 37.2169 75.4916 27.5946 85.5834 29.6499C94.6827 31.5031 103.341 24.9427 104.018 15.6813C104.769 5.4098 116.344 -0.21103 124.881 5.5498C132.578 10.7441 143.088 7.99635 147.258 -0.300832Z" stroke="url(#217620)" stroke-width="2"/>
<path d="M150.067 13.5125C154.129 5.43136 165.408 4.76074 170.399 12.3037C174.979 19.2274 184.6 20.5533 190.883 15.127C197.727 9.21523 208.405 12.9122 210.129 21.7907C211.712 29.9404 220.092 34.8469 227.973 32.2379C236.559 29.3956 245.009 36.8973 243.205 45.7597C241.548 53.8946 247.413 61.6347 255.692 62.2403C264.713 62.9001 269.649 73.0645 264.59 80.5616C259.946 87.4432 262.403 96.8386 269.82 100.567C277.901 104.628 278.572 115.908 271.029 120.898C264.105 125.479 262.779 135.099 268.206 141.382C274.118 148.227 270.421 158.904 261.542 160.628C253.392 162.211 248.486 170.591 251.095 178.473C253.937 187.059 246.435 195.509 237.573 193.704C229.438 192.047 221.698 197.912 221.092 206.192C220.433 215.212 210.268 220.148 202.771 215.089C195.889 210.445 186.494 212.902 182.766 220.32C178.705 228.401 167.425 229.071 162.435 221.528C157.854 214.605 148.234 213.279 141.951 218.705C135.106 224.617 124.428 220.92 122.704 212.041C121.122 203.892 112.741 198.985 104.86 201.594C96.274 204.437 87.8239 196.935 89.6288 188.072C91.2855 179.938 85.4206 172.197 77.1409 171.592C68.1206 170.932 63.1845 160.768 68.2436 153.27C72.8873 146.389 70.4308 136.994 63.0131 133.265C54.932 129.204 54.2614 117.924 61.8043 112.934C68.728 108.353 70.054 98.733 64.6276 92.4502C58.7158 85.6053 62.4128 74.9276 71.2914 73.2037C79.441 71.6212 84.3475 63.2407 81.7385 55.3595C78.8962 46.7734 86.3979 38.3232 95.2603 40.1282C103.395 41.7849 111.135 35.92 111.741 27.6403C112.401 18.62 122.565 13.6839 130.062 18.743C136.944 23.3867 146.339 20.9302 150.067 13.5125Z" stroke="url(#227620)" stroke-width="2"/>
<path d="M153.126 27.3399C156.635 20.3597 166.377 19.7804 170.688 26.2958C174.735 32.4132 183.235 33.5847 188.786 28.7902C194.699 23.6839 203.922 26.8772 205.411 34.5462C206.809 41.7467 214.214 46.0819 221.177 43.7767C228.593 41.3216 235.892 47.8013 234.333 55.4563C232.869 62.6439 238.051 69.4826 245.367 70.0177C253.158 70.5877 257.422 79.3673 253.052 85.843C248.949 91.9232 251.119 100.224 257.673 103.518C264.654 107.026 265.233 116.769 258.717 121.08C252.6 125.127 251.428 133.627 256.223 139.178C261.329 145.091 258.136 154.314 250.467 155.803C243.266 157.201 238.931 164.605 241.236 171.569C243.692 178.985 237.212 186.284 229.557 184.725C222.369 183.261 215.531 188.443 214.995 195.759C214.426 203.55 205.646 207.814 199.17 203.444C193.09 199.341 184.789 201.511 181.495 208.065C177.987 215.045 168.244 215.625 163.933 209.109C159.886 202.992 151.386 201.82 145.835 206.615C139.923 211.721 130.7 208.528 129.21 200.859C127.812 193.658 120.408 189.323 113.444 191.628C106.028 194.084 98.7291 187.604 100.288 179.949C101.752 172.761 96.57 165.923 89.2544 165.387C81.4631 164.817 77.1995 156.038 81.5693 149.562C85.6722 143.482 83.5018 135.181 76.9479 131.887C69.9678 128.379 69.3885 118.636 75.9038 114.325C82.0212 110.278 83.1928 101.778 78.3983 96.2268C73.292 90.3145 76.4853 81.0915 84.1542 79.6024C91.3548 78.2043 95.6899 70.7997 93.3848 63.8363C90.9297 56.4199 97.4094 49.121 105.064 50.68C112.252 52.1439 119.091 46.9619 119.626 39.6464C120.196 31.855 128.975 27.5914 135.451 31.9612C141.531 36.0642 149.832 33.8938 153.126 27.3399Z" stroke="url(#237620)" stroke-width="2"/>
<path d="M154.377 40.9845C157.261 35.2455 165.272 34.7692 168.816 40.1261C172.262 45.3346 179.499 46.3321 184.226 42.25C189.087 38.0516 196.67 40.6771 197.894 46.9824C199.085 53.1132 205.389 56.8043 211.318 54.8416C217.416 52.823 223.417 58.1506 222.135 64.4445C220.888 70.5642 225.301 76.3869 231.529 76.8425C237.935 77.3111 241.441 84.5296 237.848 89.8539C234.355 95.0308 236.202 102.099 241.783 104.903C247.522 107.788 247.998 115.798 242.641 119.342C237.433 122.788 236.435 130.025 240.517 134.752C244.716 139.613 242.09 147.196 235.785 148.42C229.654 149.611 225.963 155.915 227.926 161.844C229.944 167.942 224.617 173.943 218.323 172.661C212.203 171.415 206.38 175.827 205.925 182.055C205.456 188.461 198.238 191.967 192.913 188.374C187.736 184.881 180.669 186.729 177.864 192.309C174.98 198.048 166.969 198.524 163.425 193.167C159.979 187.959 152.742 186.961 148.015 191.043C143.154 195.242 135.571 192.616 134.347 186.311C133.157 180.18 126.852 176.489 120.923 178.452C114.826 180.47 108.824 175.143 110.106 168.849C111.353 162.729 106.941 156.906 100.712 156.451C94.3059 155.982 90.8003 148.764 94.3932 143.439C97.8865 138.263 96.0386 131.195 90.4584 128.39C84.7194 125.506 84.2431 117.495 89.6 113.951C94.8085 110.505 95.806 103.268 91.7238 98.5416C87.5254 93.6805 90.151 86.0974 96.4563 84.8731C102.587 83.6827 106.278 77.3782 104.315 71.4493C102.297 65.3516 107.624 59.3505 113.918 60.6323C120.038 61.8787 125.861 57.4666 126.316 51.238C126.785 44.832 134.004 41.3265 139.328 44.9193C144.505 48.4126 151.573 46.5647 154.377 40.9845Z" stroke="url(#247620)" stroke-width="2"/>
<path d="M156.65 54.7337C158.951 50.1556 165.341 49.7757 168.168 54.0489C171.051 58.4072 177.107 59.2418 181.062 55.8261C184.94 52.477 190.989 54.5714 191.965 59.6011C192.961 64.7311 198.237 67.8196 203.198 66.1774C208.062 64.5672 212.849 68.817 211.826 73.8376C210.784 78.9583 214.475 83.8304 219.687 84.2117C224.797 84.5855 227.594 90.3437 224.728 94.5909C221.805 98.9227 223.351 104.837 228.02 107.183C232.598 109.484 232.978 115.874 228.705 118.701C224.347 121.585 223.512 127.641 226.928 131.595C230.277 135.473 228.182 141.522 223.153 142.499C218.023 143.495 214.934 148.77 216.576 153.731C218.187 158.595 213.937 163.382 208.916 162.36C203.796 161.317 198.923 165.009 198.542 170.221C198.168 175.331 192.41 178.127 188.163 175.261C183.831 172.338 177.917 173.884 175.57 178.554C173.269 183.132 166.879 183.511 164.052 179.238C161.169 174.88 155.113 174.045 151.158 177.461C147.281 180.81 141.232 178.716 140.255 173.686C139.259 168.556 133.984 165.468 129.023 167.11C124.158 168.72 119.371 164.47 120.394 159.45C121.437 154.329 117.745 149.457 112.533 149.076C107.423 148.702 104.627 142.944 107.493 138.696C110.416 134.365 108.869 128.45 104.2 126.104C99.6222 123.803 99.2423 117.413 103.515 114.586C107.874 111.702 108.708 105.647 105.293 101.692C101.944 97.8141 104.038 91.7651 109.068 90.7884C114.198 89.7923 117.286 84.517 115.644 79.556C114.034 74.6919 118.283 69.9048 123.304 70.9273C128.425 71.9702 133.297 68.2784 133.678 63.0665C134.052 57.9565 139.81 55.1601 144.057 58.0261C148.389 60.9492 154.303 59.4029 156.65 54.7337Z" stroke="url(#257620)" stroke-width="2"/>
<path d="M159.973 68.6C161.73 65.1029 166.611 64.8127 168.771 68.0769C171.131 71.6436 176.086 72.3266 179.323 69.5313C182.285 66.973 186.906 68.5728 187.652 72.415C188.467 76.6132 192.784 79.1407 196.844 77.7967C200.56 76.5667 204.216 79.8131 203.435 83.6482C202.582 87.8388 205.603 91.8261 209.868 92.138C213.772 92.4236 215.908 96.8222 213.719 100.067C211.326 103.611 212.592 108.451 216.413 110.372C219.91 112.129 220.2 117.011 216.936 119.17C213.369 121.53 212.686 126.486 215.482 129.722C218.04 132.684 216.44 137.305 212.598 138.051C208.4 138.866 205.872 143.183 207.216 147.243C208.446 150.959 205.2 154.616 201.365 153.835C197.174 152.981 193.187 156.002 192.875 160.268C192.589 164.171 188.191 166.307 184.947 164.118C181.402 161.726 176.562 162.991 174.641 166.812C172.884 170.309 168.002 170.6 165.843 167.335C163.483 163.769 158.527 163.086 155.291 165.881C152.329 168.439 147.708 166.84 146.962 162.997C146.147 158.799 141.83 156.272 137.77 157.616C134.054 158.846 130.397 155.599 131.178 151.764C132.032 147.574 129.011 143.586 124.745 143.274C120.842 142.989 118.706 138.59 120.895 135.346C123.287 131.801 122.022 126.961 118.201 125.04C114.704 123.283 114.413 118.402 117.678 116.242C121.244 113.882 121.927 108.927 119.132 105.69C116.574 102.728 118.174 98.1072 122.016 97.3612C126.214 96.546 128.741 92.2289 127.397 88.169C126.167 84.4534 129.414 80.7966 133.249 81.5777C137.44 82.4312 141.427 79.4099 141.739 75.1447C142.024 71.2412 146.423 69.1051 149.667 71.2944C153.212 73.6866 158.052 72.4211 159.973 68.6Z" stroke="url(#267620)" stroke-width="2"/>
<path d="M162.002 82.3209C163.166 80.0049 166.398 79.8127 167.829 81.9745C169.616 84.6763 173.37 85.1937 175.822 83.0762C177.784 81.3819 180.844 82.4414 181.338 84.986C181.955 88.1661 185.226 90.0808 188.301 89.0627C190.762 88.2481 193.183 90.3981 192.666 92.938C192.02 96.1124 194.308 99.1327 197.539 99.369C200.124 99.5581 201.539 102.471 200.089 104.62C198.277 107.305 199.236 110.971 202.13 112.426C204.446 113.59 204.638 116.823 202.477 118.253C199.775 120.041 199.257 123.795 201.375 126.246C203.069 128.208 202.01 131.268 199.465 131.762C196.285 132.38 194.37 135.65 195.388 138.725C196.203 141.186 194.053 143.608 191.513 143.091C188.339 142.444 185.318 144.733 185.082 147.964C184.893 150.549 181.98 151.964 179.831 150.514C177.146 148.702 173.48 149.66 172.025 152.555C170.861 154.871 167.628 155.063 166.198 152.901C164.41 150.199 160.656 149.682 158.205 151.799C156.243 153.494 153.183 152.434 152.689 149.89C152.071 146.71 148.801 144.795 145.726 145.813C143.265 146.628 140.843 144.478 141.36 141.938C142.007 138.763 139.718 135.743 136.487 135.507C133.902 135.318 132.487 132.404 133.937 130.256C135.749 127.57 134.791 123.904 131.896 122.449C129.58 121.285 129.388 118.053 131.55 116.622C134.252 114.835 134.769 111.081 132.652 108.629C130.957 106.668 132.017 103.607 134.561 103.113C137.742 102.496 139.656 99.2256 138.638 96.1502C137.824 93.6894 139.974 91.2676 142.513 91.7849C145.688 92.4314 148.708 90.1428 148.944 86.9119C149.134 84.3267 152.047 82.912 154.195 84.362C156.881 86.174 160.547 85.2155 162.002 82.3209Z" stroke="url(#277620)" stroke-width="2"/>
</g>
<defs>
<linearGradient id="207620" x1="157.407" y1="-39.3723" x2="176.022" y2="273.724" gradientUnits="userSpaceOnUse">
<stop stop-color="#0032FF" stop-opacity="0"/>
<stop offset="1" stop-color="#0032FF"/>
</linearGradient>
<linearGradient id="217620" x1="157.527" y1="-22.9612" x2="174.096" y2="255.723" gradientUnits="userSpaceOnUse">
<stop stop-color="#0032FF" stop-opacity="0"/>
<stop offset="1" stop-color="#0032FF"/>
</linearGradient>
<linearGradient id="227620" x1="159.071" y1="-6.62994" x2="173.762" y2="240.462" gradientUnits="userSpaceOnUse">
<stop stop-color="#0032FF" stop-opacity="0"/>
<stop offset="1" stop-color="#0032FF"/>
</linearGradient>
<linearGradient id="237620" x1="160.888" y1="9.67034" x2="173.734" y2="225.735" gradientUnits="userSpaceOnUse">
<stop stop-color="#0032FF" stop-opacity="0"/>
<stop offset="1" stop-color="#0032FF"/>
</linearGradient>
<linearGradient id="247620" x1="160.737" y1="26.1027" x2="171.504" y2="207.191" gradientUnits="userSpaceOnUse">
<stop stop-color="#0032FF" stop-opacity="0"/>
<stop offset="1" stop-color="#0032FF"/>
</linearGradient>
<linearGradient id="257620" x1="161.7" y1="42.4596" x2="170.521" y2="190.828" gradientUnits="userSpaceOnUse">
<stop stop-color="#0032FF" stop-opacity="0"/>
<stop offset="1" stop-color="#0032FF"/>
</linearGradient>
<linearGradient id="267620" x1="163.802" y1="58.7539" x2="170.812" y2="176.658" gradientUnits="userSpaceOnUse">
<stop stop-color="#0032FF" stop-opacity="0"/>
<stop offset="1" stop-color="#0032FF"/>
</linearGradient>
<linearGradient id="277620" x1="164.498" y1="75.1276" x2="169.529" y2="159.748" gradientUnits="userSpaceOnUse">
<stop stop-color="#0032FF" stop-opacity="0"/>
<stop offset="1" stop-color="#0032FF"/>
</linearGradient>
</defs>
</svg>
