<svg width="24" height="24" viewBox="0 0 24 24" fill="none" xmlns="http://www.w3.org/2000/svg">
<path d="M19.5 1.5H4.5C4.10218 1.5 3.72064 1.65804 3.43934 1.93934C3.15804 2.22064 3 2.60218 3 3V6C3 6.39782 3.15804 6.77936 3.43934 7.06066C3.72064 7.34196 4.10218 7.5 4.5 7.5H11.25V12.1275L9.3075 10.1925L8.25 11.25L12 15L15.75 11.25L14.6925 10.1925L12.75 12.1275V7.5H19.5C19.8978 7.5 20.2794 7.34196 20.5607 7.06066C20.842 6.77936 21 6.39782 21 6V3C21 2.60218 20.842 2.22064 20.5607 1.93934C20.2794 1.65804 19.8978 1.5 19.5 1.5ZM4.5 3H7.5V6H4.5V3ZM19.5 6H9V3H19.5V6Z" fill="#FE6321"/>
<path d="M19.5 16.5H4.5C4.10218 16.5 3.72064 16.658 3.43934 16.9393C3.15804 17.2206 3 17.6022 3 18V21C3 21.3978 3.15804 21.7794 3.43934 22.0607C3.72064 22.342 4.10218 22.5 4.5 22.5H19.5C19.8978 22.5 20.2794 22.342 20.5607 22.0607C20.842 21.7794 21 21.3978 21 21V18C21 17.6022 20.842 17.2206 20.5607 16.9393C20.2794 16.658 19.8978 16.5 19.5 16.5ZM4.5 18H15V21H4.5V18ZM19.5 21H16.5V18H19.5V21Z" fill="#FE6321"/>
</svg>
