<svg width="131" height="36" viewBox="0 0 131 36" fill="none" xmlns="http://www.w3.org/2000/svg">
<g clip-path="url(#clip0_975_540)">
<path fill-rule="evenodd" clip-rule="evenodd" d="M4.55368 27.7066L5.23113 27.7169C5.28475 27.7163 5.34323 27.7197 5.40464 27.7233C5.5372 27.7311 5.68341 27.7397 5.82388 27.7093C7.82 27.7254 9.48812 27.2428 10.8891 26.3866C12.2054 25.5315 13.206 24.2615 13.7216 22.5786C15.377 17.403 20.8179 16.3269 23.4545 16.0833L24.496 16.0698C23.209 13.461 21.0555 10.9793 18.5467 8.08807C17.1784 6.51124 15.7045 4.81261 14.2078 2.90515C12.7569 4.77217 11.2944 6.45954 9.92035 8.04474C5.90524 12.6769 2.6463 16.4368 2.6463 21.2577C2.6463 23.6404 3.34812 25.8569 4.55368 27.7066Z" fill="#FE6321"/>
<path d="M7.31843 28.9268C9.09025 28.8235 10.6003 28.2872 11.8953 27.4278C13.115 26.5744 14.079 25.3632 14.6366 23.8062C16.4136 19.0136 21.3095 17.716 23.6655 17.3393L24.644 17.2613L24.9798 17.1968L25.085 17.5665C25.1029 17.7919 25.1962 18.0114 25.2547 18.2714L25.3719 18.7915L24.845 18.8334C24.7698 18.8394 24.6192 18.8514 24.544 18.8574C21.4639 19.1785 17.5465 20.3981 16.1206 24.3686C15.4364 26.2382 14.2706 27.7679 12.7618 28.7957C11.7905 29.4402 10.6914 29.9059 9.47045 30.2679L8.0523 30.5322C7.90176 30.5441 7.8265 30.5501 7.67596 30.5621L7.52543 30.5741L7.40354 30.4704C7.0845 30.2689 6.80009 30.0269 6.52168 29.86L5.47132 29.0362L6.79154 28.9688C6.94208 28.9568 7.13325 28.9794 7.31843 28.9268Z" fill="black"/>
<path d="M12.5626 31.1918C12.9458 30.9493 13.2618 30.7763 13.5598 30.5967C14.817 29.7169 15.8106 28.4684 16.3854 26.8635C16.7707 25.8194 17.3235 24.9178 18.0733 24.0395C19.573 22.2829 21.7008 21.0609 24.3078 20.4634L25.3459 20.2637L25.6919 20.1972L25.6637 20.8231C25.6822 21.0555 25.665 21.3297 25.606 21.5683L25.5592 21.9618L25.2132 22.0283C25.0999 22.0763 24.9804 22.0469 24.8672 22.0949C21.2996 22.8859 18.9466 24.7105 17.9569 27.4788C17.2159 29.4478 16.0561 31.0604 14.31 32.1739C14.161 32.2638 14.012 32.3536 13.8273 32.4853L13.714 32.5333L13.4813 32.5518C13.4394 32.5162 13.4037 32.558 13.3261 32.5642C12.932 32.5176 12.5441 32.5485 12.15 32.502L10.2572 32.2631L12.0341 31.5368C12.0341 31.5368 12.3543 31.3236 12.5626 31.1918Z" fill="black"/>
<path d="M16.3787 32.4057C16.6466 32.2921 16.9097 32.1175 17.1447 31.9759C18.7209 30.8066 18.9193 30.2979 19.3725 29.0325C19.6763 28.2093 20.1121 27.4984 20.7033 26.806C21.8857 25.421 23.5634 24.4576 25.6188 23.9864L26.4373 23.829L26.7101 23.7765L26.6879 24.27C26.7025 24.4533 26.6889 24.6695 26.6423 24.8576L26.6055 25.1678L26.3327 25.2203C26.2433 25.2581 26.1491 25.2349 26.0598 25.2728C23.2471 25.8964 21.3918 27.335 20.6115 29.5176C20.0273 31.07 19.7323 32.016 17.7362 33.2194C17.6187 33.2903 17.5012 33.3611 17.3556 33.4649L17.2663 33.5027L17.0828 33.5174C17.0498 33.4893 17.0216 33.5222 16.9605 33.5271C16.6497 33.4904 16.3439 33.5148 16.0332 33.4781L14.5408 33.2897L15.9418 32.7171C16.0825 32.5522 16.2612 32.4765 16.3787 32.4057Z" fill="black"/>
</g>
<path d="M40.8665 14.8749C40.8194 14.3571 40.61 13.9547 40.2381 13.6675C39.8709 13.3757 39.3461 13.2298 38.6636 13.2298C38.2117 13.2298 37.8351 13.2886 37.5338 13.4063C37.2326 13.524 37.0066 13.6864 36.856 13.8935C36.7054 14.0959 36.6277 14.3289 36.623 14.5925C36.6136 14.809 36.656 14.9997 36.7501 15.1644C36.849 15.3292 36.9902 15.4751 37.1738 15.6022C37.362 15.7246 37.588 15.8328 37.8516 15.927C38.1152 16.0211 38.4117 16.1035 38.7412 16.1741L39.9839 16.4565C40.6994 16.6119 41.3302 16.819 41.8762 17.0779C42.4269 17.3368 42.8882 17.6451 43.2601 18.0028C43.6367 18.3606 43.9215 18.7724 44.1144 19.2384C44.3074 19.7045 44.4063 20.2269 44.411 20.8059C44.4063 21.7191 44.1756 22.5029 43.719 23.1571C43.2625 23.8114 42.6058 24.3128 41.7491 24.6611C40.8971 25.0094 39.8686 25.1836 38.6636 25.1836C37.4538 25.1836 36.3994 25.0024 35.5004 24.6399C34.6013 24.2775 33.9023 23.7267 33.4033 22.9877C32.9044 22.2487 32.6478 21.3143 32.6337 20.1846H35.9805C36.0087 20.6506 36.1335 21.0389 36.3547 21.3496C36.5759 21.6603 36.8796 21.8956 37.2655 22.0557C37.6562 22.2157 38.1081 22.2957 38.6212 22.2957C39.0919 22.2957 39.492 22.2322 39.8215 22.1051C40.1557 21.978 40.4123 21.8015 40.5911 21.5755C40.77 21.3496 40.8618 21.0907 40.8665 20.7989C40.8618 20.5259 40.7771 20.2928 40.6123 20.0999C40.4476 19.9022 40.1934 19.7327 39.8498 19.5915C39.5109 19.4456 39.0778 19.3114 38.5506 19.189L37.0396 18.836C35.7875 18.5488 34.8013 18.0852 34.0812 17.445C33.361 16.8001 33.0032 15.9293 33.0079 14.8325C33.0032 13.9382 33.2433 13.1544 33.7281 12.4813C34.213 11.8082 34.8837 11.2834 35.7404 10.9068C36.5971 10.5302 37.5739 10.3419 38.6706 10.3419C39.7909 10.3419 40.763 10.5326 41.5867 10.9138C42.4152 11.2904 43.0577 11.82 43.5143 12.5025C43.9709 13.185 44.2039 13.9758 44.2133 14.8749H40.8665ZM50.2564 25.1977C49.155 25.1977 48.1782 25.0094 47.3262 24.6328C46.4789 24.2516 45.8105 23.7267 45.321 23.0583C44.8314 22.3899 44.582 21.6203 44.5725 20.7494H48.0888C48.1029 21.0648 48.2041 21.3449 48.3924 21.5897C48.5807 21.8297 48.8372 22.018 49.162 22.1545C49.4868 22.291 49.8563 22.3593 50.2706 22.3593C50.6848 22.3593 51.0496 22.2863 51.365 22.1404C51.6851 21.9898 51.9345 21.785 52.1134 21.5261C52.2923 21.2625 52.3794 20.9613 52.3747 20.6223C52.3794 20.2834 52.2829 19.9822 52.0852 19.7186C51.8875 19.455 51.6074 19.2502 51.2449 19.1043C50.8872 18.9584 50.4636 18.8854 49.974 18.8854H48.5689V16.4H49.974C50.4024 16.4 50.7789 16.3294 51.1037 16.1882C51.4332 16.047 51.6898 15.8493 51.8733 15.5951C52.0569 15.3362 52.1464 15.0397 52.1417 14.7055C52.1464 14.3807 52.0687 14.0959 51.9086 13.8511C51.7533 13.6016 51.5344 13.4086 51.252 13.2721C50.9743 13.1356 50.6518 13.0674 50.2847 13.0674C49.8987 13.0674 49.548 13.1356 49.2326 13.2721C48.922 13.4086 48.6748 13.6016 48.4913 13.8511C48.3077 14.1006 48.2112 14.3901 48.2018 14.7196H44.862C44.8715 13.8582 45.1115 13.1003 45.5822 12.446C46.0529 11.787 46.6931 11.2716 47.5028 10.8997C48.3171 10.5279 49.2444 10.3419 50.2847 10.3419C51.3203 10.3419 52.2311 10.5232 53.0172 10.8856C53.8033 11.2481 54.4152 11.7423 54.853 12.3684C55.2907 12.9897 55.5096 13.6934 55.5096 14.4795C55.5143 15.2938 55.2484 15.9646 54.7118 16.4918C54.1798 17.019 53.495 17.3438 52.6571 17.4662V17.5792C53.7774 17.711 54.6223 18.0734 55.1919 18.6665C55.7662 19.2596 56.0509 20.001 56.0462 20.8907C56.0462 21.7285 55.7991 22.4723 55.3049 23.1218C54.8153 23.7667 54.1328 24.2751 53.2572 24.647C52.3864 25.0141 51.3862 25.1977 50.2564 25.1977Z" fill="black"/>
<path d="M61.0102 10.5396H65.3385L69.01 19.4926H69.1795L72.8511 10.5396H77.1793V25H73.776V16.1176H73.656L70.1821 24.9082H68.0074L64.5335 16.0682H64.4135V25H61.0102V10.5396ZM91.6159 17.7698C91.6159 19.3608 91.3099 20.7094 90.698 21.8156C90.0861 22.9218 89.2576 23.762 88.2126 24.3363C87.1723 24.9106 86.005 25.1977 84.7105 25.1977C83.4113 25.1977 82.2416 24.9082 81.2013 24.3292C80.161 23.7503 79.3349 22.91 78.723 21.8085C78.1158 20.7024 77.8122 19.3561 77.8122 17.7698C77.8122 16.1788 78.1158 14.8302 78.723 13.724C79.3349 12.6178 80.161 11.7776 81.2013 11.2033C82.2416 10.6291 83.4113 10.3419 84.7105 10.3419C86.005 10.3419 87.1723 10.6291 88.2126 11.2033C89.2576 11.7776 90.0861 12.6178 90.698 13.724C91.3099 14.8302 91.6159 16.1788 91.6159 17.7698ZM88.0432 17.7698C88.0432 16.8284 87.909 16.0329 87.6407 15.3833C87.3771 14.7337 86.9958 14.2418 86.4969 13.9076C86.0026 13.5734 85.4071 13.4063 84.7105 13.4063C84.0185 13.4063 83.4231 13.5734 82.9241 13.9076C82.4252 14.2418 82.0415 14.7337 81.7732 15.3833C81.5096 16.0329 81.3778 16.8284 81.3778 17.7698C81.3778 18.7112 81.5096 19.5068 81.7732 20.1563C82.0415 20.8059 82.4252 21.2978 82.9241 21.632C83.4231 21.9662 84.0185 22.1333 84.7105 22.1333C85.4071 22.1333 86.0026 21.9662 86.4969 21.632C86.9958 21.2978 87.3771 20.8059 87.6407 20.1563C87.909 19.5068 88.0432 18.7112 88.0432 17.7698ZM104.571 10.5396V25H101.606L95.8515 16.6542H95.7597V25H92.2646V10.5396H95.2725L100.963 18.8713H101.083V10.5396H104.571ZM105.377 25V10.5396H115.46V13.378H108.872V16.3435H114.945V19.189H108.872V22.1616H115.46V25H105.377ZM115.537 10.5396H119.441L122.499 16.5907H122.626L125.683 10.5396H129.588L124.299 20.1705V25H120.825V20.1705L115.537 10.5396Z" fill="black"/>
<rect x="57.0359" y="22.5425" width="2.74185" height="2.74185" fill="#FE6321"/>
<defs>
<clipPath id="clip0_975_540">
<path d="M7.94336 0.528687L15.5107 2.6093C23.4885 4.80279 28.1777 13.0483 25.9842 21.0262L25.0387 24.4651C23.3674 30.5437 17.0849 34.1165 11.0063 32.4452C4.9277 30.7739 1.35488 24.4914 3.02617 18.4128L7.94336 0.528687Z" fill="white"/>
</clipPath>
</defs>
</svg>
