<svg width="30" height="36" viewBox="0 0 30 36" fill="none" xmlns="http://www.w3.org/2000/svg">
<g clip-path="url(#clip0_975_541)">
<path fill-rule="evenodd" clip-rule="evenodd" d="M4.55368 27.7066L5.23113 27.7169C5.28475 27.7163 5.34323 27.7197 5.40464 27.7233C5.5372 27.7311 5.68341 27.7397 5.82388 27.7093C7.82 27.7254 9.48812 27.2428 10.8891 26.3866C12.2054 25.5315 13.206 24.2615 13.7216 22.5786C15.377 17.403 20.8179 16.3269 23.4545 16.0833L24.496 16.0698C23.209 13.461 21.0555 10.9793 18.5467 8.08807C17.1784 6.51124 15.7045 4.81261 14.2078 2.90515C12.7569 4.77217 11.2944 6.45954 9.92035 8.04474C5.90524 12.6769 2.6463 16.4368 2.6463 21.2577C2.6463 23.6404 3.34812 25.8569 4.55368 27.7066Z" fill="#FE6321"/>
<path d="M7.31843 28.9268C9.09025 28.8235 10.6003 28.2872 11.8953 27.4278C13.115 26.5744 14.079 25.3632 14.6366 23.8062C16.4136 19.0136 21.3095 17.716 23.6655 17.3393L24.644 17.2613L24.9798 17.1968L25.085 17.5665C25.1029 17.7919 25.1962 18.0114 25.2547 18.2714L25.3719 18.7915L24.845 18.8334C24.7698 18.8394 24.6192 18.8514 24.544 18.8574C21.4639 19.1785 17.5465 20.3981 16.1206 24.3686C15.4364 26.2382 14.2706 27.7679 12.7618 28.7957C11.7905 29.4402 10.6914 29.9059 9.47045 30.2679L8.0523 30.5322C7.90176 30.5441 7.8265 30.5501 7.67596 30.5621L7.52543 30.5741L7.40354 30.4704C7.0845 30.2689 6.80009 30.0269 6.52168 29.86L5.47132 29.0362L6.79154 28.9688C6.94208 28.9568 7.13325 28.9794 7.31843 28.9268Z" fill="black"/>
<path d="M12.5626 31.1918C12.9458 30.9493 13.2618 30.7763 13.5598 30.5967C14.817 29.7169 15.8106 28.4684 16.3854 26.8635C16.7707 25.8194 17.3235 24.9178 18.0733 24.0395C19.573 22.2829 21.7008 21.0609 24.3078 20.4634L25.3459 20.2637L25.6919 20.1972L25.6637 20.8231C25.6822 21.0555 25.665 21.3297 25.606 21.5683L25.5592 21.9618L25.2132 22.0283C25.0999 22.0763 24.9804 22.0469 24.8672 22.0949C21.2996 22.8859 18.9466 24.7105 17.9569 27.4788C17.2159 29.4478 16.0561 31.0604 14.31 32.1739C14.161 32.2638 14.012 32.3536 13.8273 32.4853L13.714 32.5333L13.4813 32.5518C13.4394 32.5162 13.4037 32.558 13.3261 32.5642C12.932 32.5176 12.5441 32.5485 12.15 32.502L10.2572 32.2631L12.0341 31.5368C12.0341 31.5368 12.3543 31.3236 12.5626 31.1918Z" fill="black"/>
<path d="M16.3787 32.4057C16.6466 32.2921 16.9097 32.1175 17.1447 31.9759C18.7209 30.8066 18.9193 30.2979 19.3725 29.0325C19.6763 28.2093 20.1121 27.4984 20.7033 26.806C21.8857 25.421 23.5634 24.4576 25.6188 23.9864L26.4373 23.829L26.7101 23.7765L26.6879 24.27C26.7025 24.4533 26.6889 24.6695 26.6423 24.8576L26.6055 25.1678L26.3327 25.2203C26.2433 25.2581 26.1491 25.2349 26.0598 25.2728C23.2471 25.8964 21.3918 27.335 20.6115 29.5176C20.0273 31.07 19.7323 32.016 17.7362 33.2194C17.6187 33.2903 17.5012 33.3611 17.3556 33.4649L17.2663 33.5027L17.0828 33.5174C17.0498 33.4893 17.0216 33.5222 16.9605 33.5271C16.6497 33.4904 16.3439 33.5148 16.0332 33.4781L14.5408 33.2897L15.9418 32.7171C16.0825 32.5522 16.2612 32.4765 16.3787 32.4057Z" fill="black"/>
</g>
<defs>
<clipPath id="clip0_975_541">
<path d="M7.94336 0.528687L15.5107 2.6093C23.4885 4.80279 28.1777 13.0483 25.9842 21.0262L25.0387 24.4651C23.3674 30.5437 17.0849 34.1165 11.0063 32.4452C4.9277 30.7739 1.35488 24.4914 3.02617 18.4128L7.94336 0.528687Z" fill="white"/>
</clipPath>
</defs>
</svg>
