<svg width="60" height="60" viewBox="0 0 60 60" fill="none" xmlns="http://www.w3.org/2000/svg">
<path d="M44.4902 19.9612C43.8431 19.9612 43.3184 19.4364 43.3184 18.7893V10.7761C43.3184 10.129 43.8431 9.60425 44.4902 9.60425C45.1373 9.60425 45.6621 10.129 45.6621 10.7761V18.7893C45.6621 19.4364 45.1375 19.9612 44.4902 19.9612Z" fill="currentColor"/>
<path d="M44.4854 8.177C45.1326 8.177 45.6572 7.65234 45.6572 7.00513C45.6572 6.35792 45.1326 5.83325 44.4854 5.83325C43.8381 5.83325 43.3135 6.35792 43.3135 7.00513C43.3135 7.65234 43.8381 8.177 44.4854 8.177Z" fill="currentColor"/>
<path d="M56.7945 12.3114C56.7945 5.52281 51.2727 0 44.4854 0C41.6761 0 39.0837 0.946172 37.0097 2.53664H7.46988C5.11828 2.53664 3.20508 4.44973 3.20508 6.80145V49.4311C3.20508 51.7827 5.11828 53.696 7.46988 53.696H11.1884V55.7351C11.1884 58.0867 13.1016 60 15.4532 60H46.0931C48.4447 60 50.3579 58.0868 50.3579 55.7351V39.4809C50.3579 38.8338 49.8332 38.3091 49.1861 38.3091C48.5389 38.3091 48.0142 38.8338 48.0142 39.4809V55.7351C48.0142 56.7943 47.1524 57.6562 46.0931 57.6562H15.4532C14.3939 57.6562 13.5321 56.7945 13.5321 55.7351V53.696H38.11C40.4616 53.696 42.3749 51.7828 42.3749 49.4311V24.4416C43.0609 24.5606 43.766 24.6227 44.4855 24.6227C45.7114 24.6227 46.8961 24.4425 48.0143 24.1072V28.8859C48.0143 29.533 48.5391 30.0578 49.1862 30.0578C49.8333 30.0578 50.358 29.533 50.358 28.8859V23.1291C54.1891 21.0401 56.7945 16.9744 56.7945 12.3114ZM40.0311 49.4312C40.0311 50.4905 39.1693 51.3524 38.11 51.3524H7.46988C6.41062 51.3524 5.54883 50.4906 5.54883 49.4312V6.80145C5.54883 5.74219 6.41062 4.88039 7.46988 4.88039H34.6774C33.2065 6.81785 32.2955 9.20262 32.1874 11.7914H12.2314C11.5843 11.7914 11.0596 12.3162 11.0596 12.9633V17.9126C11.0596 18.5597 11.5843 19.0845 12.2314 19.0845H33.3484C33.6148 19.0845 33.8604 18.9955 34.0573 18.8457C35.4572 21.0728 37.5502 22.822 40.0311 23.7886V49.4312ZM32.1765 14.1352V16.7407H13.4033V14.1352H32.1765ZM44.4854 22.2789C38.9906 22.2789 34.5203 17.8075 34.5203 12.3112C34.5203 6.81516 38.9906 2.34363 44.4854 2.34363C49.9804 2.34363 54.4507 6.81504 54.4507 12.3112C54.4507 17.8075 49.9804 22.2789 44.4854 22.2789Z" fill="currentColor"/>
<path d="M49.1859 35.3345C48.7031 35.3345 48.2605 35.0254 48.0903 34.5749C47.9156 34.1124 48.0587 33.5687 48.4429 33.2559C48.8279 32.9427 49.3821 32.905 49.8043 33.1671C50.2257 33.4286 50.4415 33.9446 50.3274 34.4285C50.204 34.9518 49.7244 35.3345 49.1859 35.3345Z" fill="currentColor"/>
<path d="M33.3484 25.5039H12.2314C11.5843 25.5039 11.0596 24.9793 11.0596 24.332C11.0596 23.6849 11.5843 23.1602 12.2314 23.1602H33.3484C33.9955 23.1602 34.5203 23.6849 34.5203 24.332C34.5203 24.9791 33.9956 25.5039 33.3484 25.5039Z" fill="currentColor"/>
<path d="M33.3484 31.062H12.2314C11.5843 31.062 11.0596 30.5372 11.0596 29.8901C11.0596 29.2429 11.5843 28.7183 12.2314 28.7183H33.3484C33.9955 28.7183 34.5203 29.2429 34.5203 29.8901C34.5203 30.5372 33.9956 31.062 33.3484 31.062Z" fill="currentColor"/>
<path d="M33.3484 36.6204H12.2314C11.5843 36.6204 11.0596 36.0956 11.0596 35.4485C11.0596 34.8014 11.5843 34.2766 12.2314 34.2766H33.3484C33.9955 34.2766 34.5203 34.8014 34.5203 35.4485C34.5203 36.0957 33.9956 36.6204 33.3484 36.6204Z" fill="currentColor"/>
<path d="M33.3484 42.1785H12.2314C11.5843 42.1785 11.0596 41.6537 11.0596 41.0066C11.0596 40.3594 11.5843 39.8347 12.2314 39.8347H33.3484C33.9955 39.8347 34.5203 40.3594 34.5203 41.0066C34.5203 41.6537 33.9956 42.1785 33.3484 42.1785Z" fill="currentColor"/>
</svg>
