<svg width="50" height="50" viewBox="0 0 50 50" fill="none" xmlns="http://www.w3.org/2000/svg">
<path d="M44.2188 21.3085H39.2188C38.7873 21.3085 38.4375 21.6584 38.4375 22.0898V26.0351C38.4375 26.4665 38.7873 26.8163 39.2188 26.8163C39.6502 26.8163 40 26.4665 40 26.0351V22.871H43.4375V43.4375H41.7188H40V31.8945C40 31.463 39.6502 31.1132 39.2188 31.1132C38.7873 31.1132 38.4375 31.463 38.4375 31.8945V43.4375H36.875V27.2656C36.875 26.8342 36.5252 26.4844 36.0938 26.4844H31.0938C30.6623 26.4844 30.3125 26.8342 30.3125 27.2656V43.4375H28.75V32.7344C28.75 32.303 28.4002 31.9531 27.9688 31.9531H22.9688C22.5373 31.9531 22.1875 32.303 22.1875 32.7344V43.4375H20.625V37.2168C20.625 36.7854 20.2752 36.4355 19.8438 36.4355H14.8438C14.4123 36.4355 14.0625 36.7854 14.0625 37.2168V43.4375H7.34375C6.91297 43.4375 6.5625 43.087 6.5625 42.6562V7.34375C6.5625 6.91297 6.91297 6.5625 7.34375 6.5625H27.498V11.719C27.498 13.0113 28.5495 14.0627 29.8418 14.0627H34.998V23.6719C34.998 24.1033 35.3478 24.4531 35.7793 24.4531C36.2108 24.4531 36.5605 24.1033 36.5605 23.6719V13.2815C36.5605 13.0743 36.4782 12.8756 36.3317 12.7291L28.8317 5.22883C28.6852 5.08234 28.4865 5 28.2793 5H7.34375C6.05141 5 5 6.05141 5 7.34375V42.6562C5 43.9486 6.05141 45 7.34375 45H44.2188C44.6502 45 45 44.6502 45 44.2188V22.0898C45 21.6584 44.6502 21.3085 44.2188 21.3085ZM29.0605 7.66742L33.8933 12.5002H29.8418C29.4109 12.5002 29.0605 12.1498 29.0605 11.719V7.66742ZM19.0625 43.4375H15.625V37.998H19.0625V43.4375ZM27.1875 43.4375H23.75V33.5156H27.1875V43.4375ZM35.3125 43.4375H31.875V28.0469H35.3125V43.4375Z" fill="currentColor"/>
<path d="M39.7711 28.268C39.6258 28.122 39.4242 28.0391 39.2188 28.0391C39.0133 28.0391 38.8117 28.122 38.6664 28.268C38.5211 28.4133 38.4375 28.6148 38.4375 28.8203C38.4375 29.0258 38.5211 29.2273 38.6664 29.3727C38.8117 29.5179 39.0133 29.6016 39.2188 29.6016C39.4242 29.6016 39.6258 29.518 39.7711 29.3727C39.9164 29.2273 40 29.0258 40 28.8203C40 28.6148 39.9164 28.4133 39.7711 28.268Z" fill="currentColor"/>
<path d="M16.373 9.27539C15.9416 9.27539 15.5918 9.62523 15.5918 10.0566V11.462C11.9956 11.8524 9.1875 14.9071 9.1875 18.6054C9.1875 22.5675 12.4109 25.7909 16.373 25.7909C20.0713 25.7909 23.126 22.9829 23.5164 19.3866H24.9217C25.3532 19.3866 25.703 19.0368 25.703 18.6054C25.703 13.4608 21.5176 9.27539 16.373 9.27539ZM16.373 24.2284C13.2725 24.2284 10.75 21.7059 10.75 18.6053C10.75 15.7699 12.8598 13.4179 15.5918 13.0364V18.6053C15.5918 19.0367 15.9416 19.3866 16.373 19.3866H21.942C21.5605 22.1186 19.2084 24.2284 16.373 24.2284ZM17.1543 17.8241V17.8241V10.8769C20.8146 11.2442 23.7341 14.1638 24.1015 17.8241H17.1543Z" fill="currentColor"/>
<path d="M24.9219 27.9883H10C9.56852 27.9883 9.21875 28.3381 9.21875 28.7695C9.21875 29.2009 9.56852 29.5508 10 29.5508H24.9219C25.3534 29.5508 25.7031 29.2009 25.7031 28.7695C25.7031 28.3381 25.3534 27.9883 24.9219 27.9883Z" fill="currentColor"/>
<path d="M15 31.7578H10C9.56852 31.7578 9.21875 32.1077 9.21875 32.5391C9.21875 32.9705 9.56852 33.3203 10 33.3203H15C15.4315 33.3203 15.7812 32.9705 15.7812 32.5391C15.7812 32.1077 15.4315 31.7578 15 31.7578Z" fill="currentColor"/>
<path d="M19.4664 31.9867C19.3211 31.8414 19.1195 31.7578 18.9141 31.7578C18.7078 31.7578 18.507 31.8413 18.3617 31.9867C18.2156 32.132 18.1328 32.3336 18.1328 32.5391C18.1328 32.7445 18.2156 32.9461 18.3617 33.0913C18.507 33.2366 18.7078 33.3203 18.9141 33.3203C19.1195 33.3203 19.3211 33.2367 19.4664 33.0913C19.6117 32.9461 19.6953 32.7445 19.6953 32.5391C19.6953 32.3336 19.6117 32.132 19.4664 31.9867Z" fill="currentColor"/>
</svg>
