<svg width="46" height="52" viewBox="0 0 46 52" fill="none" xmlns="http://www.w3.org/2000/svg">
<path fill-rule="evenodd" clip-rule="evenodd" d="M26.9994 23.9079C27.0013 23.94 27.0013 23.9783 26.9994 24.0103C26.9469 24.746 26.5765 25.7504 25.1121 26.3837C24.6873 26.5628 24.2345 26.6907 23.7591 26.7483V27.3177C23.7591 27.7335 23.4188 28.079 22.9998 28.079C22.5807 28.079 22.2404 27.7335 22.2404 27.3177V26.7612C21.2667 26.6717 20.3276 26.4221 19.4429 26.0191C19.0616 25.8464 18.892 25.3922 19.0667 25.0147C19.2393 24.6308 19.6891 24.4645 20.0717 24.6373C21.3205 25.2029 23.1763 25.5696 24.514 24.9891C25.2926 24.65 25.4474 24.2471 25.4801 23.9527C25.4493 23.6712 25.2978 23.2746 24.5089 22.9227C23.9632 22.6988 23.5007 22.6668 22.9646 22.6285C22.3793 22.5901 21.7146 22.5453 20.9437 22.2254C20.9354 22.2191 20.927 22.2191 20.9193 22.2126C19.414 21.5153 19.0693 20.5237 19.0463 19.8135C19.0463 19.7943 19.0463 19.7751 19.0469 19.7496C19.1036 18.2708 20.441 17.2526 22.2404 17.0051V16.4293C22.2404 16.0135 22.5807 15.668 22.9998 15.668C23.4188 15.668 23.7591 16.0135 23.7591 16.4293V16.9922C24.7879 17.0882 25.7065 17.3313 26.5523 17.7343C26.931 17.9135 27.0915 18.3677 26.9112 18.7451C26.7314 19.1225 26.2785 19.2888 25.9004 19.1097C25.0629 18.7067 24.1194 18.5019 23.017 18.4637C22.1348 18.4533 20.5757 18.8827 20.5656 19.8007C20.5752 19.9799 20.6455 20.4084 21.5437 20.8307C22.0753 21.0482 22.534 21.0801 23.0657 21.1122C23.6523 21.1506 24.3195 21.1953 25.1007 21.5216C25.1078 21.528 25.1135 21.528 25.1199 21.528C26.5912 22.187 26.9552 23.1851 26.9994 23.9079ZM40.3846 42.2811H34.6449V22.6349H40.3846V42.2811ZM43.7113 44.13V49.2095C43.7113 49.395 43.5636 49.5421 43.3812 49.5421H2.61777C2.43549 49.5421 2.28837 49.395 2.28837 49.2095V44.13C2.28837 43.9508 2.43549 43.8037 2.61777 43.8037H43.3812C43.5634 43.8038 43.7113 43.9509 43.7113 44.13ZM5.61489 22.6349H11.354V42.2811H5.61489V22.6349ZM20.1306 33.165C22.0021 33.6345 23.9972 33.6342 25.869 33.165V42.2813H20.1306V33.165ZM18.6119 32.6595V42.2811H12.8727V27.6183C14.1593 29.8767 16.1821 31.668 18.6119 32.6595ZM22.9998 32.0006C28.5841 32.0006 33.1268 27.4585 33.1268 21.8736C33.1268 16.2887 28.5841 11.7465 22.9998 11.7465C17.4156 11.7465 12.8727 16.2887 12.8727 21.8736C12.8727 27.4585 17.4156 32.0006 22.9998 32.0006ZM27.3877 42.2811V32.6595C29.8175 31.668 31.8396 29.8766 33.1268 27.6185V42.2813H27.3877V42.2811ZM2.28825 20.786C2.28825 20.9652 2.43537 21.1123 2.61765 21.1123H11.3795C11.7722 15.0476 16.8332 10.2305 22.9996 10.2305C29.1661 10.2305 34.2271 15.0476 34.6199 21.1123H43.3811C43.5634 21.1123 43.7112 20.9652 43.7112 20.786V16.3526C43.7112 15.5018 43.3146 14.7853 42.5948 14.3311L24.333 2.86066C23.4987 2.33602 22.5008 2.33602 21.6666 2.86066L3.40461 14.3311C2.68497 14.7853 2.28825 15.5018 2.28825 16.3526V20.786ZM43.3812 22.6349C44.4009 22.6349 45.23 21.8031 45.23 20.786V16.3526C45.23 14.9835 44.5634 13.7745 43.4029 13.0515L25.1409 1.57474C23.8006 0.730296 22.1988 0.730296 20.8585 1.57474L2.59665 13.0517C1.43553 13.7745 0.769531 14.9837 0.769531 16.3527V20.7861C0.769531 21.8034 1.59861 22.635 2.61777 22.635H4.09617V42.2813H2.61777C1.59873 42.2813 0.769531 43.113 0.769531 44.1301V49.2096C0.769531 50.2332 1.59861 51.0584 2.61777 51.0584H43.3812C44.4009 51.0584 45.23 50.2332 45.23 49.2096V44.1301C45.23 43.113 44.4009 42.2813 43.3812 42.2813H41.9034V22.6349H43.3812Z" fill="currentColor" stroke="currentColor" stroke-width="0.5"/>
</svg>
