<svg width="562" height="406" viewBox="0 0 562 406" fill="none" xmlns="http://www.w3.org/2000/svg">
<rect width="562" height="406" rx="20" fill="#F9FAFB"/>
<path d="M311.937 231.75H250.219C246.625 231.75 243.656 228.781 243.656 225.187V181.125C243.656 177.531 246.625 174.562 250.219 174.562H311.937C315.531 174.562 318.5 177.531 318.5 181.125V225.187C318.5 228.781 315.531 231.75 311.937 231.75ZM250.063 178.781C248.813 178.781 247.875 179.719 247.875 180.969V225.031C247.875 226.281 248.813 227.219 250.063 227.219H311.781C313.031 227.219 313.969 226.281 313.969 225.031V180.969C313.969 179.719 313.031 178.781 311.781 178.781H250.063Z" fill="#D0D5DD"/>
<path d="M292.094 200.656C287.25 200.656 283.5 196.75 283.5 192.062C283.5 187.375 287.406 183.469 292.094 183.469C296.781 183.469 300.688 187.375 300.688 192.062C300.688 196.75 296.781 200.656 292.094 200.656ZM292.094 187.375C289.594 187.375 287.562 189.406 287.562 191.906C287.562 194.406 289.594 196.438 292.094 196.438C294.594 196.438 296.625 194.406 296.625 191.906C296.625 189.406 294.594 187.375 292.094 187.375Z" fill="#D0D5DD"/>
<path d="M303.813 230.969L267.719 197.062L247.094 216.125L244.281 213.156L267.719 191.438L306.625 228L303.813 230.969Z" fill="#D0D5DD"/>
<path d="M315.063 219.719L303.031 210.031L293.031 218.312L290.375 215.031L303.031 204.719L317.562 216.594L315.063 219.719Z" fill="#D0D5DD"/>
</svg>
