<svg width="30" height="30" viewBox="0 0 30 30" fill="none" xmlns="http://www.w3.org/2000/svg">
<path fill-rule="evenodd" clip-rule="evenodd" d="M12.1875 0.9375C8.56313 0.9375 5.625 3.87563 5.625 7.5C5.625 11.1244 8.56313 14.0625 12.1875 14.0625C15.8119 14.0625 18.75 11.1244 18.75 7.5C18.75 3.87563 15.8119 0.9375 12.1875 0.9375ZM7.5 7.5C7.5 4.91119 9.59869 2.8125 12.1875 2.8125C14.7763 2.8125 16.875 4.91119 16.875 7.5C16.875 10.0888 14.7763 12.1875 12.1875 12.1875C9.59869 12.1875 7.5 10.0888 7.5 7.5Z" fill="#344054"/>
<path d="M19.9345 12.085C19.5843 11.7036 19.6095 11.1106 19.9909 10.7604L23.2721 7.74697C23.6307 7.41768 24.1818 7.41768 24.5404 7.74697L27.8216 10.7604C28.203 11.1106 28.2282 11.7036 27.878 12.085C27.5278 12.4663 26.9347 12.4916 26.5534 12.1414L24.8437 10.5713L24.8437 16.875C24.8437 17.3928 24.424 17.8125 23.9062 17.8125C23.3885 17.8125 22.9687 17.3928 22.9687 16.875L22.9687 10.5713L21.2591 12.1414C20.8778 12.4916 20.2847 12.4663 19.9345 12.085Z" fill="#344054"/>
<path d="M9.15441 15.9375C4.61633 15.9375 0.9375 19.6163 0.9375 24.1544C0.9375 26.8651 3.13492 29.0625 5.84559 29.0625H9.84375C10.3615 29.0625 10.7812 28.6428 10.7812 28.125C10.7812 27.6072 10.3615 27.1875 9.84375 27.1875H5.84559C4.17046 27.1875 2.8125 25.8295 2.8125 24.1544C2.8125 20.6519 5.65186 17.8125 9.15441 17.8125H15.2206C18.7231 17.8125 21.5625 20.6519 21.5625 24.1544C21.5625 25.8295 20.2045 27.1875 18.5294 27.1875H14.5312C14.0135 27.1875 13.5938 27.6072 13.5938 28.125C13.5938 28.6428 14.0135 29.0625 14.5312 29.0625H18.5294C21.2401 29.0625 23.4375 26.8651 23.4375 24.1544C23.4375 19.6163 19.7587 15.9375 15.2206 15.9375H9.15441Z" fill="#344054"/>
</svg>
