<svg width="29" height="30" viewBox="0 0 29 30" fill="none" xmlns="http://www.w3.org/2000/svg">
<path fill-rule="evenodd" clip-rule="evenodd" d="M12.1875 0.9375C8.56313 0.9375 5.625 3.87563 5.625 7.5C5.625 11.1244 8.56313 14.0625 12.1875 14.0625C15.8119 14.0625 18.75 11.1244 18.75 7.5C18.75 3.87563 15.8119 0.9375 12.1875 0.9375ZM7.5 7.5C7.5 4.91119 9.59869 2.8125 12.1875 2.8125C14.7763 2.8125 16.875 4.91119 16.875 7.5C16.875 10.0888 14.7763 12.1875 12.1875 12.1875C9.59869 12.1875 7.5 10.0888 7.5 7.5Z" fill="currentColor"/>
<path d="M27.878 13.2275C28.2282 13.6089 28.203 14.2019 27.8216 14.5521L24.5404 17.5655C24.1818 17.8948 23.6307 17.8948 23.2721 17.5655L19.9909 14.5521C19.6095 14.2019 19.5843 13.6089 19.9345 13.2275C20.2847 12.8462 20.8778 12.8209 21.2591 13.1711L22.9688 14.7412L22.9688 8.43751C22.9688 7.91973 23.3885 7.50001 23.9063 7.50001C24.424 7.50001 24.8438 7.91973 24.8438 8.43751L24.8438 14.7412L26.5534 13.1711C26.9347 12.8209 27.5278 12.8462 27.878 13.2275Z" fill="currentColor"/>
<path d="M9.15441 15.9375C4.61633 15.9375 0.9375 19.6163 0.9375 24.1544C0.9375 26.8651 3.13492 29.0625 5.84559 29.0625H9.84375C10.3615 29.0625 10.7812 28.6428 10.7812 28.125C10.7812 27.6072 10.3615 27.1875 9.84375 27.1875H5.84559C4.17046 27.1875 2.8125 25.8295 2.8125 24.1544C2.8125 20.6519 5.65186 17.8125 9.15441 17.8125H15.2206C18.7231 17.8125 21.5625 20.6519 21.5625 24.1544C21.5625 25.8295 20.2045 27.1875 18.5294 27.1875H14.5312C14.0135 27.1875 13.5938 27.6072 13.5938 28.125C13.5938 28.6428 14.0135 29.0625 14.5312 29.0625H18.5294C21.2401 29.0625 23.4375 26.8651 23.4375 24.1544C23.4375 19.6163 19.7587 15.9375 15.2206 15.9375H9.15441Z" fill="currentColor"/>
</svg>
