<svg width="100" height="100" viewBox="0 0 100 100" fill="none" xmlns="http://www.w3.org/2000/svg">
<path d="M50.0007 0C22.4302 0 0 22.4298 0 50C0 77.5702 22.4302 100 50.0007 100C77.5708 100 100.001 77.5702 100.001 50C100.001 22.4298 77.5708 0 50.0007 0ZM50.0007 91.8033C26.9498 91.8033 8.19672 73.0508 8.19672 50C8.19672 26.9495 26.9498 8.19672 50.0007 8.19672C73.0511 8.19672 91.8039 26.9495 91.8039 50C91.8039 73.0508 73.0511 91.8033 50.0007 91.8033Z" fill="currentColor"/>
<path d="M71.6287 30.8096L41.9415 60.4971L28.3684 46.924C26.7677 45.3237 24.173 45.3237 22.5723 46.924C20.972 48.5247 20.972 51.1194 22.5723 52.7201L39.0435 69.1912C39.8438 69.9912 40.8926 70.3915 41.9415 70.3915C42.9904 70.3915 44.0392 69.9912 44.8395 69.1912L77.4248 36.606C79.0251 35.0053 79.0251 32.4106 77.4248 30.8099C75.8241 29.2093 73.229 29.2093 71.6287 30.8096Z" fill="currentColor"/>
</svg>
