<svg width="30" height="31" viewBox="0 0 30 31" fill="none" xmlns="http://www.w3.org/2000/svg">
<path d="M14.9987 0.833008C12.0979 0.833008 9.26226 1.69319 6.85034 3.30479C4.43842 4.91638 2.55856 7.207 1.44847 9.88698C0.338386 12.567 0.0479372 15.5159 0.613854 18.361C1.17977 21.2061 2.57664 23.8194 4.62781 25.8706C6.67898 27.9217 9.29233 29.3186 12.1374 29.8845C14.9824 30.4504 17.9314 30.16 20.6114 29.0499C23.2914 27.9398 25.582 26.06 27.1936 23.648C28.8052 21.2361 29.6654 18.4005 29.6654 15.4997C29.6654 11.6098 28.1201 7.87931 25.3696 5.12878C22.6191 2.37824 18.8885 0.833008 14.9987 0.833008ZM21.2747 19.8903C21.4021 20.0133 21.5036 20.1605 21.5735 20.3231C21.6434 20.4858 21.6802 20.6608 21.6817 20.8378C21.6832 21.0148 21.6495 21.1904 21.5825 21.3543C21.5154 21.5181 21.4164 21.667 21.2912 21.7922C21.166 21.9174 21.0172 22.0164 20.8533 22.0834C20.6894 22.1505 20.5139 22.1842 20.3368 22.1827C20.1598 22.1811 19.9848 22.1444 19.8222 22.0745C19.6595 22.0046 19.5124 21.903 19.3894 21.7757L14.9987 17.385L10.608 21.7757C10.485 21.903 10.3379 22.0046 10.1752 22.0745C10.0126 22.1444 9.83761 22.1811 9.66057 22.1827C9.48353 22.1842 9.30796 22.1505 9.1441 22.0834C8.98024 22.0164 8.83137 21.9174 8.70618 21.7922C8.58099 21.667 8.48198 21.5181 8.41494 21.3543C8.3479 21.1904 8.31417 21.0148 8.3157 20.8378C8.31724 20.6608 8.35402 20.4858 8.4239 20.3231C8.49378 20.1605 8.59536 20.0133 8.7227 19.8903L13.1134 15.4997L8.7227 11.109C8.59536 10.986 8.49378 10.8389 8.4239 10.6762C8.35402 10.5135 8.31724 10.3386 8.3157 10.1615C8.31417 9.9845 8.3479 9.80893 8.41494 9.64507C8.48198 9.48121 8.58099 9.33234 8.70618 9.20715C8.83137 9.08196 8.98024 8.98295 9.1441 8.91591C9.30796 8.84887 9.48353 8.81514 9.66057 8.81667C9.83761 8.81821 10.0126 8.85499 10.1752 8.92487C10.3379 8.99475 10.485 9.09633 10.608 9.22367L14.9987 13.6143L19.3894 9.22367C19.5124 9.09633 19.6595 8.99475 19.8222 8.92487C19.9848 8.85499 20.1598 8.81821 20.3368 8.81667C20.5139 8.81514 20.6894 8.84887 20.8533 8.91591C21.0172 8.98295 21.166 9.08196 21.2912 9.20715C21.4164 9.33234 21.5154 9.48121 21.5825 9.64507C21.6495 9.80893 21.6832 9.9845 21.6817 10.1615C21.6802 10.3386 21.6434 10.5135 21.5735 10.6762C21.5036 10.8389 21.4021 10.986 21.2747 11.109L16.884 15.4997L21.2747 19.8903Z" fill="#FE6321"/>
</svg>
