<svg width="50" height="50" viewBox="0 0 50 50" fill="none" xmlns="http://www.w3.org/2000/svg">
<g clip-path="url(#clip0_864_5589)">
<path d="M29.6885 28.125C29.3896 28.1258 29.0936 28.1841 28.8167 28.2969C28.7367 27.9839 28.5919 27.6912 28.3915 27.4377C28.1912 27.1843 27.9398 26.9758 27.6537 26.8257C27.3676 26.6757 27.0532 26.5875 26.7308 26.5667C26.4084 26.546 26.0853 26.5933 25.7823 26.7055V21.875C25.7823 21.2534 25.5354 20.6573 25.0958 20.2177C24.6563 19.7782 24.0602 19.5312 23.4386 19.5312C22.8169 19.5312 22.2208 19.7782 21.7813 20.2177C21.3417 20.6573 21.0948 21.2534 21.0948 21.875V34.6547L20.7503 34.2641C20.7213 34.2316 20.6897 34.2015 20.6557 34.1742C20.0963 33.7367 19.3954 33.5205 18.6867 33.5667C17.9781 33.613 17.3112 33.9185 16.8134 34.425C16.3156 34.9315 16.0217 35.6035 15.9877 36.3129C15.9537 37.0223 16.1821 37.7193 16.6292 38.2711L20.405 43.9062C20.4335 43.9485 20.4659 43.988 20.5018 44.0242C20.9963 44.5195 21.561 44.9393 22.1776 45.2703V49.2188H23.7401V44.7797C23.7402 44.6269 23.6954 44.4775 23.6114 44.3499C23.5274 44.2222 23.4078 44.1221 23.2675 44.0617C22.6696 43.798 22.1248 43.4276 21.6596 42.9688L17.9042 37.3648C17.8871 37.3375 17.868 37.3114 17.8471 37.2867C17.6419 37.0455 17.5287 36.7394 17.5276 36.4227C17.5262 36.178 17.5927 35.9378 17.7198 35.7288C17.847 35.5198 18.0296 35.3503 18.2475 35.239C18.4654 35.1278 18.7098 35.0793 18.9537 35.0989C19.1975 35.1184 19.4311 35.2054 19.6284 35.35L21.2917 37.232C21.3966 37.3503 21.5348 37.4339 21.6883 37.4719C21.8417 37.5099 22.003 37.5004 22.1509 37.4448C22.2989 37.3892 22.4265 37.2901 22.5169 37.1604C22.6073 37.0308 22.6562 36.8768 22.6573 36.7188V21.875C22.6573 21.6678 22.7396 21.4691 22.8861 21.3226C23.0326 21.1761 23.2313 21.0938 23.4386 21.0938C23.6458 21.0938 23.8445 21.1761 23.991 21.3226C24.1375 21.4691 24.2198 21.6678 24.2198 21.875V33.5938H25.7823V28.9062C25.7823 28.699 25.8646 28.5003 26.0111 28.3538C26.1576 28.2073 26.3563 28.125 26.5636 28.125C26.7708 28.125 26.9695 28.2073 27.116 28.3538C27.2625 28.5003 27.3448 28.699 27.3448 28.9062V33.5938H28.9073V30.4688C28.9073 30.2615 28.9896 30.0628 29.1361 29.9163C29.2826 29.7698 29.4813 29.6875 29.6885 29.6875C29.8958 29.6875 30.0945 29.7698 30.241 29.9163C30.3875 30.0628 30.4698 30.2615 30.4698 30.4688V33.5938H32.0323V32.0312C32.0323 31.824 32.1146 31.6253 32.2611 31.4788C32.4076 31.3323 32.6063 31.25 32.8135 31.25C33.0208 31.25 33.2195 31.3323 33.366 31.4788C33.5125 31.6253 33.5948 31.824 33.5948 32.0312L33.5807 38.6414C33.6071 39.6318 33.3691 40.6114 32.8913 41.4794C32.4135 42.3473 31.713 43.0723 30.862 43.5797C30.7431 43.6483 30.6444 43.7471 30.5758 43.866C30.5073 43.9849 30.4712 44.1198 30.4714 44.257V49.2188H32.0339V44.6875C33.0132 44.0164 33.8103 43.1121 34.3532 42.0563C34.8961 41.0004 35.1679 39.8261 35.144 38.6391L35.1573 32.0312C35.1591 31.6477 35.0663 31.2696 34.8873 30.9303C34.7082 30.5911 34.4483 30.3012 34.1306 30.0863C33.8129 29.8714 33.4471 29.738 33.0656 29.698C32.6841 29.658 32.2986 29.7127 31.9432 29.857C31.8092 29.3611 31.5159 28.923 31.1085 28.6101C30.7011 28.2972 30.2022 28.1267 29.6885 28.125Z" fill="currentColor"/>
<path d="M26.6601 19.3668C26.8535 18.9259 26.9532 18.4497 26.9531 17.9683C26.9544 17.4453 26.8389 16.9286 26.6151 16.4559C26.3914 15.9832 26.065 15.5663 25.6597 15.2357C25.2545 14.9052 24.7805 14.6692 24.2725 14.5449C23.7645 14.4207 23.2351 14.4114 22.723 14.5177C22.2109 14.624 21.729 14.8432 21.3124 15.1593C20.8957 15.4755 20.5549 15.8806 20.3147 16.3452C20.0744 16.8097 19.9409 17.3221 19.9238 17.8448C19.9066 18.3675 20.0063 18.8875 20.2156 19.3668C20.5677 18.9153 21.0106 18.5427 21.5156 18.273C21.4969 18.1725 21.4865 18.0706 21.4844 17.9683C21.4793 17.6959 21.5313 17.4254 21.637 17.1743C21.7427 16.9231 21.8998 16.6969 22.0982 16.5101C22.2966 16.3233 22.5318 16.1801 22.7888 16.0896C23.0459 15.9992 23.319 15.9635 23.5906 15.9849C23.8622 16.0064 24.1264 16.0844 24.3661 16.214C24.6058 16.3436 24.8157 16.5219 24.9823 16.7374C25.149 16.953 25.2687 17.201 25.3338 17.4656C25.3988 17.7302 25.4078 18.0055 25.3601 18.2738C25.865 18.5434 26.3079 18.9157 26.6601 19.3668Z" fill="currentColor"/>
<path d="M18.9753 12.5845C18.6363 12.3989 18.2391 12.3502 17.8653 12.4482C17.4915 12.5463 17.1694 12.7838 16.9652 13.1118L15.8316 14.9868C15.7314 15.1517 15.6659 15.3352 15.639 15.5262C15.6122 15.7172 15.6245 15.9117 15.6753 16.0978C15.726 16.2878 15.8149 16.4655 15.9366 16.62C16.0583 16.7745 16.2102 16.9025 16.3831 16.9962L16.7308 17.1884C16.6639 17.7071 16.6639 18.2322 16.7308 18.7509L16.3831 18.9431C16.2102 19.0368 16.0583 19.1648 15.9366 19.3193C15.8149 19.4738 15.726 19.6515 15.6753 19.8415C15.6244 20.0277 15.6119 20.2223 15.6388 20.4135C15.6657 20.6046 15.7313 20.7883 15.8316 20.9532L16.9636 22.8282C17.1678 23.1566 17.4899 23.3944 17.8639 23.4926C18.2379 23.5908 18.6354 23.5421 18.9745 23.3564L19.3347 23.1517V21.8751C19.3347 21.7751 19.3574 21.6821 19.3644 21.5837C19.11 21.5776 18.8584 21.6374 18.6339 21.7571L18.2659 21.9595L17.2355 20.2532L17.5441 20.0829C17.8007 19.9446 18.0093 19.7316 18.1422 19.4721C18.2752 19.2126 18.3262 18.9189 18.2886 18.6298C18.2572 18.4109 18.2416 18.19 18.2417 17.9689C18.2417 17.7474 18.2579 17.5262 18.2902 17.3071C18.3273 17.0182 18.276 16.7248 18.1431 16.4655C18.0102 16.2063 17.8019 15.9933 17.5456 15.8548L17.2331 15.6845L18.2636 13.9782L18.6316 14.1806C18.8882 14.3183 19.1786 14.3802 19.4691 14.3592C19.7596 14.3382 20.0381 14.235 20.2722 14.0618C20.6272 13.8014 21.0136 13.5867 21.4222 13.4228C21.6991 13.3184 21.9381 13.1331 22.108 12.8909C22.2778 12.6486 22.3708 12.3608 22.3745 12.0649V11.7189H24.4894V12.0649C24.4931 12.3606 24.5857 12.6483 24.7553 12.8905C24.9249 13.1327 25.1636 13.3182 25.4402 13.4228C25.8509 13.5866 26.2394 13.8016 26.5964 14.0626C26.8303 14.2362 27.1088 14.3396 27.3994 14.3608C27.6899 14.382 27.9804 14.32 28.237 14.1821L28.6042 13.9798L29.6355 15.686L29.323 15.8564C29.0665 15.9949 28.858 16.2079 28.7251 16.4673C28.5922 16.7268 28.5411 17.0204 28.5784 17.3095C28.6101 17.5284 28.626 17.7492 28.6261 17.9704C28.6261 18.1919 28.6099 18.413 28.5777 18.6321C28.5408 18.9211 28.5921 19.2144 28.725 19.4736C28.8579 19.7328 29.0661 19.9458 29.3222 20.0845L29.6347 20.2548L28.6034 21.961L28.2363 21.7587C28.0115 21.6389 27.7596 21.5791 27.505 21.5853C27.512 21.6837 27.5347 21.7767 27.5347 21.8767V23.1564L27.8949 23.3548C28.2339 23.5403 28.631 23.5891 29.0048 23.491C29.3787 23.393 29.7007 23.1555 29.905 22.8274L31.0386 20.9524C31.1386 20.7875 31.204 20.604 31.2309 20.413C31.2577 20.2221 31.2455 20.0276 31.1949 19.8415C31.1439 19.6515 31.0548 19.4739 30.933 19.3194C30.8112 19.1649 30.6592 19.0369 30.4863 18.9431L30.1449 18.7501C30.2118 18.2314 30.2118 17.7063 30.1449 17.1876L30.4925 16.9954C30.6654 16.9016 30.8174 16.7736 30.9392 16.6191C31.0611 16.4646 31.1502 16.287 31.2011 16.097C31.2519 15.9108 31.2642 15.7162 31.2373 15.525C31.2105 15.3339 31.145 15.1503 31.0449 14.9853L29.9128 13.1103C29.7089 12.7816 29.3867 12.5436 29.0126 12.4453C28.6385 12.3471 28.241 12.396 27.9019 12.5821L27.523 12.7978C27.0705 12.4671 26.5794 12.193 26.0605 11.9814V11.6103C26.0551 11.2198 25.8951 10.8474 25.6155 10.5749C25.3359 10.3023 24.9595 10.1518 24.5691 10.1564H22.3034C21.9137 10.1534 21.5387 10.305 21.2605 10.578C20.9823 10.8509 20.8236 11.2229 20.8191 11.6126V11.9845C20.3038 12.1876 19.8219 12.4667 19.3894 12.8126L18.9753 12.5845Z" fill="currentColor"/>
<path d="M45.3125 0.78125C44.5399 0.78125 43.7847 1.01035 43.1423 1.43957C42.4999 1.8688 41.9993 2.47887 41.7036 3.19264C41.4079 3.90642 41.3306 4.69183 41.4813 5.44957C41.632 6.20731 42.0041 6.90334 42.5504 7.44964C43.0967 7.99593 43.7927 8.36797 44.5504 8.51869C45.3082 8.66942 46.0936 8.59206 46.8074 8.2964C47.5211 8.00075 48.1312 7.50008 48.5604 6.8577C48.9897 6.21532 49.2188 5.46008 49.2188 4.6875C49.2175 3.65188 48.8056 2.65903 48.0733 1.92673C47.341 1.19444 46.3481 0.782491 45.3125 0.78125ZM45.3125 7.03125C44.849 7.03125 44.3958 6.89379 44.0104 6.63626C43.625 6.37872 43.3246 6.01268 43.1472 5.58441C42.9698 5.15615 42.9234 4.6849 43.0138 4.23026C43.1042 3.77561 43.3274 3.358 43.6552 3.03022C43.983 2.70244 44.4006 2.47922 44.8553 2.38878C45.3099 2.29835 45.7812 2.34476 46.2094 2.52216C46.6377 2.69955 47.0037 2.99995 47.2613 3.38538C47.5188 3.77081 47.6563 4.22395 47.6563 4.6875C47.6563 5.3091 47.4093 5.90524 46.9698 6.34478C46.5302 6.78432 45.9341 7.03125 45.3125 7.03125Z" fill="currentColor"/>
<path d="M4.6875 32.8125C5.46008 32.8125 6.21532 32.5834 6.8577 32.1542C7.50008 31.725 8.00075 31.1149 8.2964 30.4011C8.59206 29.6873 8.66942 28.9019 8.51869 28.1442C8.36797 27.3864 7.99593 26.6904 7.44964 26.1441C6.90334 25.5978 6.20731 25.2258 5.44957 25.0751C4.69183 24.9243 3.90642 25.0017 3.19264 25.2973C2.47887 25.593 1.8688 26.0937 1.43957 26.7361C1.01035 27.3784 0.78125 28.1337 0.78125 28.9063C0.782491 29.9419 1.19444 30.9347 1.92673 31.667C2.65903 32.3993 3.65188 32.8113 4.6875 32.8125ZM4.6875 26.5625C5.15105 26.5625 5.60419 26.7 5.98962 26.9575C6.37505 27.215 6.67545 27.5811 6.85284 28.0093C7.03024 28.4376 7.07665 28.9089 6.98622 29.3635C6.89578 29.8181 6.67256 30.2358 6.34478 30.5635C6.017 30.8913 5.59939 31.1145 5.14474 31.205C4.6901 31.2954 4.21885 31.249 3.79059 31.0716C3.36232 30.8942 2.99628 30.5938 2.73874 30.2084C2.48121 29.8229 2.34375 29.3698 2.34375 28.9063C2.34375 28.2847 2.59068 27.6885 3.03022 27.249C3.46976 26.8094 4.0659 26.5625 4.6875 26.5625Z" fill="currentColor"/>
<path d="M42.9688 22.6562C42.3507 22.6562 41.7465 22.8395 41.2326 23.1829C40.7187 23.5263 40.3182 24.0143 40.0816 24.5854C39.8451 25.1564 39.7832 25.7847 39.9038 26.3909C40.0244 26.9971 40.322 27.5539 40.759 27.991C41.1961 28.428 41.7529 28.7256 42.3591 28.8462C42.9653 28.9668 43.5936 28.9049 44.1646 28.6684C44.7357 28.4318 45.2237 28.0313 45.5671 27.5174C45.9105 27.0035 46.0938 26.3993 46.0938 25.7812C46.0938 24.9524 45.7645 24.1576 45.1785 23.5715C44.5924 22.9855 43.7976 22.6562 42.9688 22.6562ZM42.9688 27.3438C42.6597 27.3438 42.3576 27.2521 42.1007 27.0804C41.8437 26.9087 41.6435 26.6647 41.5252 26.3792C41.4069 26.0937 41.376 25.7795 41.4363 25.4764C41.4966 25.1733 41.6454 24.8949 41.8639 24.6764C42.0824 24.4579 42.3608 24.3091 42.6639 24.2488C42.967 24.1885 43.2812 24.2194 43.5667 24.3377C43.8522 24.456 44.0962 24.6562 44.2679 24.9132C44.4396 25.1701 44.5313 25.4722 44.5313 25.7812C44.5313 26.1957 44.3666 26.5931 44.0736 26.8861C43.7806 27.1791 43.3832 27.3438 42.9688 27.3438Z" fill="currentColor"/>
<path d="M8.59375 0.78125C7.97568 0.78125 7.3715 0.964528 6.85759 1.30791C6.34369 1.65129 5.94315 2.13935 5.70663 2.71036C5.4701 3.28138 5.40822 3.90972 5.5288 4.51591C5.64938 5.1221 5.947 5.67892 6.38404 6.11596C6.82108 6.553 7.3779 6.85063 7.98409 6.9712C8.59028 7.09178 9.21862 7.0299 9.78964 6.79337C10.3607 6.55685 10.8487 6.15631 11.1921 5.64241C11.5355 5.1285 11.7188 4.52432 11.7188 3.90625C11.7188 3.07745 11.3895 2.28259 10.8035 1.69654C10.2174 1.11049 9.42255 0.78125 8.59375 0.78125ZM8.59375 5.46875C8.28472 5.46875 7.98262 5.37711 7.72567 5.20542C7.46872 5.03373 7.26845 4.7897 7.15019 4.50419C7.03193 4.21868 7.00098 3.90452 7.06127 3.60142C7.12156 3.29833 7.27038 3.01992 7.4889 2.8014C7.70742 2.58288 7.98583 2.43406 8.28892 2.37377C8.59202 2.31348 8.90618 2.34443 9.19169 2.46269C9.4772 2.58095 9.72123 2.78122 9.89292 3.03817C10.0646 3.29512 10.1563 3.59722 10.1563 3.90625C10.1563 4.32065 9.99163 4.71808 9.69861 5.0111C9.40558 5.30413 9.00815 5.46875 8.59375 5.46875Z" fill="currentColor"/>
<path d="M8.98438 25.0986L14.4514 21.9746L15.2264 23.3309L9.75938 26.4549L8.98438 25.0986Z" fill="currentColor"/>
<path d="M12.4414 7.28418L13.3305 5.9998L18.4076 9.51427L17.5185 10.7986L12.4414 7.28418Z" fill="currentColor"/>
<path d="M31.625 12.627L40.2219 7.1571L41.061 8.47585L32.4641 13.9457L31.625 12.627Z" fill="currentColor"/>
<path d="M32.7852 20.5898L33.6305 19.2758L39.0983 22.7931L38.253 24.1072L32.7852 20.5898Z" fill="currentColor"/>
</g>
<defs>
<clipPath id="clip0_864_5589">
<rect width="50" height="50" fill="white"/>
</clipPath>
</defs>
</svg>
