<svg width="18" height="18" viewBox="0 0 18 18" fill="none" xmlns="http://www.w3.org/2000/svg">
<path d="M3.54472 17.3346H11.1245C12.5816 17.3346 13.7763 16.2415 13.9631 14.8346H14.4578C16.044 14.8346 17.3346 13.544 17.3346 11.9579V3.54472C17.3346 1.95864 16.044 0.667969 14.4579 0.667969H6.87805C5.29197 0.667969 4.0013 1.95864 4.0013 3.54472V4.0013H3.54472C1.95864 4.0013 0.667969 5.29197 0.667969 6.87805V14.4578C0.667969 16.044 1.95864 17.3346 3.54472 17.3346ZM5.66797 3.54472C5.66797 2.87747 6.2108 2.33464 6.87805 2.33464H14.4578C15.1251 2.33464 15.668 2.87747 15.668 3.54472V11.9578C15.668 12.6251 15.1251 13.168 14.4579 13.168H14.0013V6.87805C14.0013 5.29197 12.7106 4.0013 11.1246 4.0013H5.66797V3.54472ZM2.33464 6.87805C2.33464 6.2108 2.87747 5.66797 3.54472 5.66797H11.1245C11.7918 5.66797 12.3346 6.2108 12.3346 6.87805V14.4578C12.3346 15.1251 11.7918 15.668 11.1246 15.668H3.54472C2.87747 15.668 2.33464 15.1251 2.33464 14.4579V6.87805Z" fill="currentColor"/>
</svg>
