<svg width="26" height="18" viewBox="0 0 26 18" fill="none" xmlns="http://www.w3.org/2000/svg">
<path d="M24.8321 6.0194C24.693 5.91027 24.5259 5.84268 24.3501 5.82444C24.1742 5.80619 23.9968 5.83803 23.8383 5.91628L18.3258 8.59753L13.7883 0.563155C13.7066 0.418876 13.588 0.298868 13.4447 0.215375C13.3014 0.131881 13.1385 0.0878906 12.9727 0.0878906C12.8069 0.0878906 12.644 0.131881 12.5007 0.215375C12.3574 0.298868 12.2388 0.418876 12.1571 0.563155L7.63832 8.5694L2.16332 5.91628C2.00481 5.83803 1.8274 5.80619 1.65157 5.82444C1.47573 5.84268 1.30864 5.91027 1.16957 6.0194C1.03089 6.12815 0.92566 6.27379 0.865965 6.43961C0.80627 6.60543 0.794524 6.78471 0.832074 6.9569L3.06332 17.1475C3.10906 17.3607 3.2277 17.5513 3.39881 17.6865C3.56993 17.8217 3.78281 17.893 4.00082 17.8882H21.9633C22.18 17.8935 22.3919 17.8235 22.5628 17.6902C22.7338 17.5568 22.8532 17.3684 22.9008 17.1569L25.1883 6.96628C25.2257 6.79091 25.212 6.60849 25.1489 6.44066C25.0857 6.27284 24.9758 6.12664 24.8321 6.0194ZM21.2133 16.0132H4.73207L3.08207 8.43815L7.6102 10.6413C7.8253 10.746 8.0723 10.7645 8.30063 10.6931C8.52895 10.6216 8.72131 10.4656 8.83832 10.2569L13.0008 2.92566L17.1539 10.285C17.271 10.4937 17.4633 10.6498 17.6916 10.7212C17.92 10.7927 18.167 10.7741 18.3821 10.6694L22.9383 8.44753L21.2133 16.0132Z" fill="currentColor"/>
</svg>
