<svg width="20" height="20" viewBox="0 0 20 20" fill="none" xmlns="http://www.w3.org/2000/svg">
<path d="M2.47963 8.27491C2.4971 8.27491 2.51455 8.27354 2.53181 8.2708L7.39071 7.50095C7.44517 7.49232 7.49664 7.47031 7.5405 7.43689C7.58435 7.40348 7.61923 7.3597 7.64201 7.30948L9.67391 2.8292C9.69876 2.77441 9.70831 2.71391 9.70154 2.65413C9.69478 2.59435 9.67195 2.53752 9.63549 2.48966C9.59903 2.44181 9.55029 2.40472 9.49445 2.38233C9.43861 2.35994 9.37775 2.35309 9.31833 2.3625L4.45943 3.13235C4.40497 3.14098 4.3535 3.16299 4.30964 3.19641C4.26579 3.22983 4.23091 3.27361 4.20813 3.32382L2.17623 7.8041C2.15321 7.85485 2.1433 7.91056 2.14738 7.96613C2.15146 8.0217 2.16942 8.07536 2.1996 8.1222C2.22979 8.16904 2.27123 8.20756 2.32015 8.23424C2.36907 8.26091 2.4239 8.2749 2.47963 8.27491ZM4.91306 6.50657L6.13703 7.02488L3.7328 7.40582L4.91306 6.50657ZM5.11972 5.51138L4.88461 3.73969L8.11734 3.22749L5.11972 5.51138ZM4.50922 5.97652L3.32895 6.87577L4.33436 4.65888L4.50922 5.97652ZM7.16932 6.73836L5.52356 6.04143L8.52118 3.75752L7.16932 6.73836Z" fill="currentColor"/>
<path d="M2.70341 1.40275C3.06095 1.13 3.43717 0.882643 3.82931 0.662511L3.50376 0.0810547C3.08434 0.316461 2.68195 0.580994 2.29955 0.872708C1.43879 1.52849 0.688195 2.31492 0.128906 3.14694L0.681933 3.51869C1.201 2.74654 1.90002 2.01486 2.70341 1.40275Z" fill="currentColor"/>
<path d="M19.9399 10.8904C19.7407 9.42751 19.01 7.88258 17.8824 6.54018C16.4242 4.80422 14.5394 3.6856 12.8142 3.52475C12.7172 3.29076 12.5905 3.07026 12.437 2.86874L11.2254 1.27856C10.5064 0.334851 9.2697 -0.11082 7.74291 0.0234407C6.27223 0.152841 4.69429 0.809217 3.29979 1.87171C1.90526 2.93418 0.853588 4.2813 0.338489 5.6649C-0.196255 7.10122 -0.0947767 8.41194 0.624234 9.35565L1.3207 10.2697C1.18209 10.4596 1.06694 10.6655 0.977741 10.883L0.220804 12.7333C-0.228427 13.8313 0.0140438 15.1235 0.903515 16.3716C1.76033 17.5739 3.12581 18.6016 4.74843 19.2654C5.93249 19.7498 7.15454 20 8.29366 20C8.70439 20.0011 9.11444 19.9664 9.51913 19.8962C11.0283 19.6293 12.1069 18.8776 12.5561 17.7795L13.2675 16.0407C13.3941 16.0898 13.521 16.1348 13.648 16.1754C14.1508 16.3418 14.6762 16.4295 15.2057 16.4355C16.0269 16.4355 16.7517 16.1927 17.321 15.7145L18.8518 14.4287C19.7602 13.6656 20.1467 12.409 19.9399 10.8904ZM10.4473 13.2207L11.4674 12.3638C11.9159 12.8668 12.4146 13.3227 12.9556 13.7246L11.9502 14.5691C11.4011 14.1763 10.8971 13.7241 10.4473 13.2207ZM10.0189 12.7102C9.87989 12.5327 9.74787 12.3512 9.62279 12.1658C9.6083 12.1407 9.59305 12.1159 9.57682 12.0916L9.57392 12.0935C9.32762 11.7226 9.10934 11.3338 8.92091 10.9304C9.20667 10.754 9.48685 10.5614 9.76146 10.3527C9.83306 10.2981 9.90367 10.2428 9.97328 10.1866C10.2717 10.7766 10.6286 11.335 11.0389 11.8535L10.0189 12.7102ZM9.08533 13.0844C9.01842 13.248 8.88928 13.3782 8.72632 13.4466C8.56335 13.5149 8.37991 13.5158 8.21634 13.4489L8.21626 13.4488L6.67434 12.8181L7.08656 11.8104C7.51751 11.6596 7.9365 11.4765 8.33995 11.2627C8.54731 11.7015 8.78808 12.1237 9.06014 12.5257C9.1046 12.6114 9.12989 12.7058 9.13424 12.8023C9.13859 12.8987 9.1219 12.995 9.08533 13.0844ZM8.32616 14.4247C8.37713 14.5462 8.39091 14.6801 8.36577 14.8095C8.34063 14.9389 8.27768 15.0579 8.1849 15.1515C8.09211 15.2451 7.97365 15.3091 7.8445 15.3354C7.71535 15.3617 7.58131 15.349 7.45932 15.2991L5.9174 14.6684L6.42203 13.4348L7.96395 14.0656C8.04506 14.0985 8.11884 14.1472 8.18102 14.2088C8.24319 14.2705 8.29252 14.3438 8.32616 14.4247ZM3.58425 10.6342C3.61988 10.6342 3.65583 10.6337 3.69186 10.633L4.38223 11.5391C3.50384 11.4585 2.80378 11.1168 2.36586 10.542L2.30809 10.4662C2.72363 10.5811 3.15313 10.6376 3.58425 10.6342ZM5.25992 11.5371C5.24679 11.5383 5.23385 11.5391 5.22077 11.5402L4.47915 10.5668C4.95868 10.495 5.43024 10.3775 5.88739 10.216L6.67276 11.2468C6.21387 11.395 5.74008 11.4924 5.25992 11.5371ZM8.28167 8.96021L9.0891 10.02C8.53983 10.4125 7.9489 10.7432 7.32705 11.006L6.53131 9.96157C7.14729 9.68815 7.73378 9.35263 8.28167 8.96021ZM9.61915 9.61613L8.81172 8.55637C9.33548 8.13227 9.81464 7.65588 10.2417 7.13457L11.0375 8.17898C10.6191 8.70877 10.1434 9.19074 9.61915 9.61613ZM11.4433 7.61207L10.6579 6.58127C10.935 6.18339 11.1735 5.75993 11.37 5.31666L12.1116 6.29002C12.1071 6.30236 12.1029 6.31462 12.0983 6.32698C11.9276 6.77802 11.708 7.20897 11.4433 7.61207ZM12.3331 5.48132L11.6429 4.5753C11.7795 4.12858 11.8491 3.66403 11.8493 3.19686L11.907 3.2726C12.3449 3.84737 12.4886 4.61305 12.3331 5.48132ZM0.962977 5.89741C1.43472 4.63033 2.40804 3.38888 3.70362 2.40176C4.99923 1.41465 6.45448 0.805759 7.80132 0.68724C7.95968 0.673309 8.11392 0.666368 8.26405 0.666415C9.33736 0.666415 10.1905 1.01976 10.6954 1.6824C11.2709 2.43771 11.3388 3.52245 10.8867 4.73679C10.415 6.00387 9.44165 7.24532 8.14606 8.23245C6.85045 9.21955 5.3952 9.82844 4.04837 9.94696C2.75772 10.0605 1.73024 9.70724 1.15467 8.95229L1.15428 8.95179C0.578831 8.19648 0.510883 7.11175 0.962977 5.89741ZM1.83581 10.9458C2.4709 11.7794 3.50976 12.2244 4.79581 12.2244C4.96572 12.2244 5.13989 12.2166 5.31833 12.2009C5.63859 12.1721 5.95644 12.1208 6.26956 12.0476L5.30063 14.416L4.68388 14.1637L4.43154 14.7805L5.04832 15.0328L4.79601 15.6496L5.41277 15.9019L5.66509 15.2851L6.28185 15.5374L6.02953 16.1542L6.64629 16.4065L6.89862 15.7897L7.20701 15.9159C7.45098 16.0157 7.71906 16.0409 7.97736 15.9884C8.23567 15.9358 8.47258 15.8078 8.65815 15.6206C8.84372 15.4334 8.96961 15.1954 9.01991 14.9367C9.0702 14.6779 9.04264 14.41 8.9407 14.167C8.92968 14.1407 8.91762 14.1151 8.90509 14.0897C9.07908 14.0296 9.23868 13.934 9.37379 13.809C9.50889 13.684 9.61655 13.5323 9.68993 13.3634C9.69946 13.3749 9.70871 13.3864 9.7183 13.3979C10.5794 14.423 11.5968 15.2401 12.6559 15.7691C12.2724 16.5983 11.3909 17.172 10.1601 17.3897C8.82869 17.6251 7.26521 17.4151 5.7577 16.7983C4.25014 16.1816 2.98779 15.2356 2.20313 14.1345C1.45111 13.0793 1.23496 12.0142 1.5945 11.1353C1.63791 11.0301 1.6893 10.9283 1.74822 10.8309L1.83581 10.9458ZM5.19899 17.2841L4.69453 18.5172C4.0778 18.2425 3.49328 17.9007 2.9516 17.4978L3.44875 16.2825C3.9966 16.675 4.58305 17.0106 5.19899 17.2841ZM5.81599 17.5358C6.44691 17.7726 7.10034 17.9444 7.76613 18.0487L7.26895 19.264C6.60019 19.1717 5.94366 19.0059 5.31129 18.7695L5.81599 17.5358ZM0.837563 12.9856L0.873607 12.8975C0.995108 13.3486 1.18294 13.7791 1.43096 14.175L0.999702 15.2292C0.624105 14.4311 0.563971 13.6544 0.837563 12.9856ZM1.44619 15.9848C1.43853 15.9741 1.43128 15.9634 1.42373 15.9526L1.88706 14.82C2.19195 15.1971 2.53219 15.544 2.90313 15.8563L2.41246 17.0557C2.05214 16.7352 1.72811 16.3761 1.44619 15.9848ZM7.96334 19.3265L8.45411 18.1269C8.65495 18.1417 8.85408 18.1497 9.0506 18.1497C9.33616 18.1499 9.62148 18.1333 9.90509 18.1L9.44171 19.2327C9.4288 19.2351 9.41609 19.2377 9.40311 19.24C8.9278 19.3214 8.44499 19.3505 7.96334 19.3265ZM10.2512 19.0139L10.6825 17.9597C11.1369 17.8512 11.5726 17.6757 11.9754 17.4391L11.9394 17.5272C11.6658 18.196 11.0785 18.7079 10.2512 19.0139ZM12.5358 14.9475L13.5281 14.114C13.9387 14.3718 14.373 14.5899 14.8251 14.765L13.8881 15.5521C13.8756 15.5482 13.8631 15.5446 13.8506 15.5406C13.3919 15.3916 12.951 15.1927 12.5358 14.9475ZM16.8924 15.2042C16.3391 15.669 15.5811 15.8489 14.7064 15.735L15.5786 15.0024C15.9573 15.0977 16.346 15.1471 16.7365 15.1497C16.8139 15.1497 16.8902 15.1468 16.9659 15.1425L16.8924 15.2042ZM18.4232 13.9184C17.6961 14.5291 16.6158 14.6485 15.3813 14.2548C14.0933 13.8438 12.8069 12.9306 11.7593 11.6834C11.2579 11.0908 10.8333 10.4373 10.4955 9.73836C11.5249 8.79285 12.3025 7.68834 12.7228 6.55948C13.0348 5.72126 13.1298 4.92597 13.0122 4.22128C14.4813 4.45284 16.1192 5.47711 17.3721 6.96879C18.4198 8.21598 19.0972 9.64062 19.2796 10.9803C19.4544 12.2642 19.1503 13.3077 18.4232 13.9184Z" fill="currentColor"/>
<path d="M16.7727 8.41684C16.4911 8.39246 16.209 8.45815 15.9672 8.60444C15.7254 8.75073 15.5362 8.97006 15.4271 9.23079L14.8718 9.06862L14.808 8.4939C15.1242 8.4226 15.4036 8.23852 15.5939 7.9761C15.7842 7.71368 15.8724 7.39091 15.8419 7.06818C15.8115 6.74545 15.6645 6.44488 15.4284 6.22271C15.1924 6.00053 14.8835 5.87198 14.5595 5.8611C14.2355 5.85023 13.9186 5.95777 13.6682 6.16361C13.4178 6.36946 13.251 6.65949 13.1989 6.97945C13.1469 7.29941 13.2132 7.62737 13.3855 7.90196C13.5578 8.17655 13.8242 8.37895 14.135 8.4713L14.2143 9.18573L14.0636 9.31231C13.7997 9.12419 13.4763 9.03877 13.1539 9.07207C12.8315 9.10537 12.5323 9.2551 12.3124 9.49319C12.0925 9.73128 11.967 10.0414 11.9594 10.3654C11.9517 10.6894 12.0625 11.0051 12.271 11.2533C12.4794 11.5014 12.7712 11.6651 13.0917 11.7135C13.4122 11.7619 13.7393 11.6918 14.0118 11.5163C14.2843 11.3408 14.4834 11.072 14.5718 10.7602C14.6603 10.4484 14.632 10.115 14.4923 9.82258L14.643 9.696L15.3329 9.8975C15.3683 10.2026 15.5079 10.4861 15.7282 10.7001C15.9484 10.9142 16.2358 11.0457 16.5417 11.0724C16.5812 11.0758 16.6204 11.0775 16.6595 11.0775C16.9724 11.0778 17.2754 10.9671 17.5144 10.7651C17.7163 10.5956 17.8633 10.37 17.9369 10.1169C18.0106 9.86378 18.0075 9.59453 17.9281 9.34317C17.8487 9.09182 17.6965 8.86965 17.4909 8.70476C17.2852 8.53988 17.0353 8.43968 16.7727 8.41684ZM14.0039 7.62192C13.9048 7.50386 13.8496 7.35507 13.8478 7.20091C13.8461 7.04674 13.8978 6.89673 13.9943 6.77643C14.0907 6.65614 14.2259 6.57301 14.3767 6.5412C14.5276 6.5094 14.6848 6.53089 14.8216 6.60201C14.9584 6.67313 15.0663 6.78948 15.1269 6.93124C15.1876 7.073 15.1971 7.2314 15.1541 7.37944C15.111 7.52748 15.0179 7.65601 14.8907 7.74312C14.7635 7.83024 14.61 7.87055 14.4564 7.85719C14.3692 7.84984 14.2843 7.82526 14.2066 7.78488C14.1289 7.74449 14.0601 7.6891 14.0039 7.62192ZM13.9534 10.4554C13.9422 10.5842 13.8937 10.7069 13.814 10.8087C13.7342 10.9104 13.6266 10.9867 13.5042 11.0284C13.3818 11.07 13.25 11.0752 13.1247 11.0432C12.9995 11.0112 12.8862 10.9435 12.7988 10.8483C12.7114 10.753 12.6535 10.6344 12.6323 10.5069C12.6111 10.3794 12.6274 10.2485 12.6793 10.1301C12.7312 10.0117 12.8164 9.91093 12.9246 9.84012C13.0327 9.7693 13.1591 9.73147 13.2884 9.73124C13.3079 9.73124 13.3276 9.7321 13.3473 9.7338C13.4345 9.74138 13.5193 9.76606 13.5969 9.80643C13.6746 9.8468 13.7435 9.90206 13.7998 9.96907C13.8561 10.0361 13.8986 10.1135 13.925 10.197C13.9513 10.2804 13.961 10.3682 13.9534 10.4554ZM17.3211 9.80234C17.3137 9.88957 17.2892 9.97449 17.2488 10.0522C17.2084 10.1298 17.153 10.1987 17.0858 10.2548C17.0038 10.3237 16.9064 10.3718 16.8019 10.3951C16.6973 10.4183 16.5887 10.416 16.4853 10.3884C16.3818 10.3607 16.2865 10.3085 16.2075 10.2363C16.1285 10.164 16.0681 10.0737 16.0313 9.97315C15.9946 9.87256 15.9826 9.7646 15.9965 9.65841C16.0103 9.55222 16.0496 9.45093 16.1108 9.36312C16.1721 9.27531 16.2537 9.20356 16.3486 9.15396C16.4435 9.10436 16.549 9.07836 16.6561 9.07816C16.6756 9.07816 16.6952 9.07902 16.7149 9.08072C16.8021 9.08831 16.887 9.11299 16.9646 9.15335C17.0422 9.19372 17.1112 9.24899 17.1675 9.316C17.2238 9.383 17.2663 9.46044 17.2926 9.54389C17.319 9.62734 17.3287 9.71516 17.3211 9.80234Z" fill="currentColor"/>
<path d="M18.3719 5.81535C18.477 5.94046 18.58 6.06953 18.6781 6.19897L19.2092 5.79644C19.1044 5.65815 18.9943 5.52031 18.8821 5.38674C17.8212 4.12361 16.5054 3.16431 15.1771 2.68555L14.9512 3.31243C16.1705 3.75196 17.3853 4.64084 18.3719 5.81535Z" fill="currentColor"/>
<path d="M14.3985 2.46128C14.1632 2.41048 13.9245 2.37675 13.6843 2.36035L13.6406 3.02531C13.8487 3.03958 14.0554 3.06886 14.2592 3.11294L14.3985 2.46128Z" fill="currentColor"/>
<path d="M14.3689 17.3286L14.3242 17.3293L14.333 17.9957L14.3809 17.9949C14.5944 17.9912 14.8098 17.9808 15.0212 17.9641L14.9688 17.2998C14.7709 17.3154 14.5691 17.3251 14.3689 17.3286Z" fill="currentColor"/>
<path d="M15.6133 17.2265L15.7111 17.8857C16.878 17.7125 17.958 17.3386 18.8344 16.8043L18.4875 16.2354C17.6866 16.7236 16.6928 17.0663 15.6133 17.2265Z" fill="currentColor"/>
</svg>
