<svg width="32" height="32" viewBox="0 0 32 32" fill="none" xmlns="http://www.w3.org/2000/svg">
<path d="M26.4416 21.0482V17.6226C26.4416 17.245 26.1356 16.939 25.7581 16.939H16.6836V13.8485C19.0861 13.5146 20.9417 11.4472 20.9417 8.95437C20.9417 6.22951 18.7249 4.0127 16 4.0127C13.2751 4.0127 11.0583 6.22951 11.0583 8.95437C11.0583 11.4473 12.9139 13.5146 15.3164 13.8485V16.939H6.24195C5.86444 16.939 5.55835 17.245 5.55835 17.6226V21.0482C3.95262 21.3671 2.73828 22.7864 2.73828 24.4844C2.73828 26.4164 4.31 27.9881 6.24195 27.9881C8.17389 27.9881 9.74561 26.4164 9.74561 24.4844C9.74561 22.7864 8.53127 21.3671 6.92554 21.0482V18.3061H15.3165V21.0482C13.7107 21.3671 12.4963 22.7864 12.4963 24.4844C12.4963 26.4164 14.0681 27.9881 16 27.9881C17.9319 27.9881 19.5037 26.4164 19.5037 24.4844C19.5037 22.7864 18.2893 21.3672 16.6836 21.0482V18.3061H25.0745V21.0482C23.4687 21.3671 22.2544 22.7864 22.2544 24.4844C22.2544 26.4164 23.8262 27.9881 25.7581 27.9881C27.6899 27.9881 29.2617 26.4164 29.2617 24.4844C29.2617 22.7864 28.0474 21.3671 26.4416 21.0482ZM8.37842 24.4844C8.37842 25.6625 7.42002 26.6209 6.24195 26.6209C5.06387 26.6209 4.10547 25.6625 4.10547 24.4844C4.10547 23.3063 5.06387 22.348 6.24195 22.348C7.42002 22.348 8.37842 23.3064 8.37842 24.4844ZM12.4255 8.95437C12.4255 6.98338 14.029 5.37988 16 5.37988C17.971 5.37988 19.5745 6.98338 19.5745 8.95437C19.5745 10.9254 17.971 12.5289 16 12.5289C14.029 12.5289 12.4255 10.9254 12.4255 8.95437ZM18.1365 24.4845C18.1365 25.6625 17.1781 26.6209 16 26.6209C14.8219 26.6209 13.8635 25.6625 13.8635 24.4845C13.8635 23.3064 14.8219 22.348 16 22.348C17.1781 22.348 18.1365 23.3064 18.1365 24.4845ZM25.7581 26.6209C24.58 26.6209 23.6216 25.6625 23.6216 24.4845C23.6216 23.3064 24.58 22.348 25.7581 22.348C26.9361 22.348 27.8945 23.3064 27.8945 24.4845C27.8945 25.6625 26.9361 26.6209 25.7581 26.6209Z" fill="currentColor"/>
</svg>
