<svg width="25" height="24" viewBox="0 0 25 24" fill="none" xmlns="http://www.w3.org/2000/svg">
<g clip-path="url(#clip0_864_4522)">
<path d="M21.0125 16.3265V13.3902C21.0125 13.0666 20.7501 12.8043 20.4265 12.8043H12.6484V10.1553C14.7077 9.86909 16.2982 8.09708 16.2982 5.96033C16.2982 3.62473 14.3981 1.72461 12.0625 1.72461C9.72691 1.72461 7.82678 3.62473 7.82678 5.96033C7.82678 8.09713 9.4173 9.86909 11.4766 10.1553V12.8043H3.69845C3.37488 12.8043 3.11252 13.0666 3.11252 13.3902V16.3265C1.73617 16.5998 0.695312 17.8164 0.695312 19.2718C0.695312 20.9277 2.0425 22.2749 3.69845 22.2749C5.35441 22.2749 6.70159 20.9277 6.70159 19.2718C6.70159 17.8164 5.66073 16.5998 4.28439 16.3265V13.9761H11.4766V16.3265C10.1003 16.5998 9.05936 17.8164 9.05936 19.2718C9.05936 20.9277 10.4066 22.2749 12.0625 22.2749C13.7184 22.2749 15.0656 20.9277 15.0656 19.2718C15.0656 17.8164 14.0248 16.5999 12.6484 16.3265V13.9761H19.8406V16.3265C18.4643 16.5998 17.4234 17.8164 17.4234 19.2718C17.4234 20.9277 18.7706 22.2749 20.4265 22.2749C22.0825 22.2749 23.4297 20.9277 23.4297 19.2718C23.4297 17.8164 22.3888 16.5998 21.0125 16.3265ZM5.52972 19.2718C5.52972 20.2816 4.70823 21.1031 3.69845 21.1031C2.68867 21.1031 1.86719 20.2816 1.86719 19.2718C1.86719 18.262 2.68867 17.4406 3.69845 17.4406C4.70823 17.4406 5.52972 18.2621 5.52972 19.2718ZM8.99866 5.96033C8.99866 4.27091 10.3731 2.89648 12.0625 2.89648C13.7519 2.89648 15.1263 4.27091 15.1263 5.96033C15.1263 7.64975 13.7519 9.02417 12.0625 9.02417C10.3731 9.02417 8.99866 7.64975 8.99866 5.96033ZM13.8938 19.2718C13.8938 20.2816 13.0723 21.1031 12.0625 21.1031C11.0527 21.1031 10.2312 20.2816 10.2312 19.2718C10.2312 18.2621 11.0527 17.4406 12.0625 17.4406C13.0723 17.4406 13.8938 18.2621 13.8938 19.2718ZM20.4265 21.1031C19.4168 21.1031 18.5953 20.2816 18.5953 19.2718C18.5953 18.2621 19.4168 17.4406 20.4265 17.4406C21.4363 17.4406 22.2578 18.2621 22.2578 19.2718C22.2578 20.2816 21.4363 21.1031 20.4265 21.1031Z" fill="currentColor"/>
</g>
<defs>
<clipPath id="clip0_864_4522">
<rect width="24" height="24" fill="white" transform="translate(0.0625)"/>
</clipPath>
</defs>
</svg>
