<svg width="32" height="32" viewBox="0 0 32 32" fill="none" xmlns="http://www.w3.org/2000/svg">
<path d="M25.455 6.72383H23.493V4.75986C23.493 3.62414 22.5691 2.7002 21.4335 2.7002H9.92836C9.74269 2.7002 9.56469 2.77389 9.43344 2.90514L4.68848 7.6475C4.55723 7.77875 4.4834 7.95689 4.4834 8.14256V23.218C4.4834 24.3537 5.40734 25.2777 6.54293 25.2777H8.50676V27.2394C8.50676 28.3757 9.42988 29.3002 10.5646 29.3002H25.455C26.5914 29.3002 27.5159 28.3757 27.5159 27.2394V8.78186C27.5159 7.64709 26.5914 6.72383 25.455 6.72383ZM9.22836 5.08951V6.78289C9.22836 7.1467 8.9325 7.44256 8.56883 7.44256H6.87405L9.22836 5.08951ZM6.54293 23.8777C6.17926 23.8777 5.8834 23.5818 5.8834 23.218V8.84256H8.56883C9.70441 8.84256 10.6284 7.91861 10.6284 6.78289V4.1002H21.4335C21.7972 4.1002 22.093 4.39605 22.093 4.75986V23.218C22.093 23.5818 21.7972 23.8777 21.4335 23.8777H6.54293ZM26.1159 27.2394C26.1159 27.6038 25.8195 27.9002 25.455 27.9002H10.5646C10.2018 27.9002 9.90676 27.6038 9.90676 27.2394V25.2777H21.4335C22.5691 25.2777 23.493 24.3537 23.493 23.218V8.12383H25.455C25.8195 8.12383 26.1159 8.419 26.1159 8.78186V27.2394Z" fill="currentColor"/>
<path d="M18.0109 8.05957H13.0496C12.663 8.05957 12.3496 8.37293 12.3496 8.75957C12.3496 9.14621 12.663 9.45957 13.0496 9.45957H18.0109C18.3975 9.45957 18.7109 9.14621 18.7109 8.75957C18.7109 8.37293 18.3975 8.05957 18.0109 8.05957Z" fill="currentColor"/>
<path d="M18.011 13.2891H9.96562C9.57898 13.2891 9.26562 13.6024 9.26562 13.9891C9.26562 14.3757 9.57898 14.6891 9.96562 14.6891H18.011C18.3976 14.6891 18.711 14.3757 18.711 13.9891C18.711 13.6024 18.3976 13.2891 18.011 13.2891Z" fill="currentColor"/>
<path d="M14.6586 18.5186H9.96562C9.57898 18.5186 9.26562 18.8319 9.26562 19.2186C9.26562 19.6052 9.57898 19.9186 9.96562 19.9186H14.6586C15.0453 19.9186 15.3586 19.6052 15.3586 19.2186C15.3586 18.8319 15.0453 18.5186 14.6586 18.5186Z" fill="currentColor"/>
</svg>
