<svg width="50" height="50" viewBox="0 0 50 50" fill="none" xmlns="http://www.w3.org/2000/svg">
<path d="M41.5164 27.6602C40.6424 27.4014 39.7215 27.4971 38.9246 27.9307L36.8397 29.0674C36.8143 29.0137 36.7869 28.96 36.7586 28.9072C35.8582 27.2578 33.785 26.6465 32.1375 27.5439L28.4598 29.5479C25.9119 28.7256 23.3651 27.9043 20.8201 27.085C18.1942 26.2373 15.6336 26.4775 13.2088 27.7988L6.83675 31.2695L6.15804 30.0898C5.96272 29.751 5.64729 29.5088 5.26839 29.4072C4.88948 29.3057 4.49495 29.3564 4.15608 29.5518L0.745926 31.5166C0.0457306 31.9199 -0.196457 32.8184 0.206863 33.5186L7.87581 46.8486C8.06917 47.1885 8.3846 47.4326 8.76448 47.5361C8.89241 47.5703 9.02229 47.5879 9.1512 47.5879C9.40511 47.5879 9.65413 47.5215 9.87679 47.3916L13.2869 45.4258C13.6258 45.2305 13.868 44.9141 13.9705 44.5342C14.0721 44.1553 14.0213 43.7598 13.826 43.4219L13.1766 42.2939L13.4735 42.1328C14.8885 41.3594 16.3866 41.2188 17.9256 41.7148L21.2264 42.7773C21.991 43.0254 22.7489 43.1484 23.4969 43.1484C24.6629 43.1484 25.8035 42.8477 26.9071 42.2461L42.1824 33.9219C43.8309 33.0215 44.4412 30.9473 43.5438 29.2988C43.1121 28.501 42.3914 27.9189 41.5164 27.6602ZM32.8846 28.9141C33.7772 28.4277 34.9002 28.7598 35.3866 29.6494C35.4158 29.7041 35.4422 29.7598 35.4657 29.8154L31.8758 31.7715C31.5672 31.1279 31.0633 30.5928 30.4354 30.248L32.8846 28.9141ZM9.18343 45.9893L1.60823 32.8223L4.85335 30.9521L5.84847 32.6816L5.85432 32.6934C5.86018 32.7041 5.86702 32.7139 5.87288 32.7246L12.4266 44.1201L9.18343 45.9893ZM41.4354 32.5508L26.16 40.875C24.741 41.6484 23.243 41.7881 21.7069 41.291L18.4051 40.2285C16.4422 39.5957 14.5311 39.7754 12.7264 40.7617L12.3992 40.9404L7.61604 32.624L13.9559 29.1699C15.9901 28.0615 18.1375 27.8604 20.3416 28.5713C23.3504 29.54 26.3621 30.5117 29.3739 31.4834C30.0496 31.7012 30.5448 32.3018 30.6356 33.0146C30.6385 33.04 30.6444 33.0654 30.6502 33.0898C30.6492 33.1133 30.6483 33.1377 30.6502 33.1621C30.66 33.3828 30.6317 33.6016 30.5653 33.8096C30.4149 34.2764 30.0887 34.6582 29.6483 34.8848C29.2078 35.1113 28.7088 35.1533 28.243 35.0029C26.9657 34.5908 25.6873 34.1787 24.41 33.7666C23.1326 33.3545 21.8553 32.9434 20.578 32.5303C20.1678 32.3975 19.7274 32.623 19.5955 33.0332C19.4637 33.4434 19.6883 33.8838 20.0985 34.0156C21.3758 34.4277 22.6541 34.8398 23.9315 35.252C25.2088 35.6641 26.4862 36.0752 27.7635 36.4883C28.1043 36.5986 28.4549 36.6533 28.8045 36.6533C29.3387 36.6533 29.8699 36.5254 30.3612 36.2734C31.1727 35.8564 31.7733 35.1514 32.0526 34.2852C32.1473 33.9873 32.2 33.6797 32.2117 33.3691L36.6922 30.9277C36.7274 30.9121 36.7616 30.8926 36.7938 30.8721L39.6737 29.3027C40.1043 29.0693 40.6014 29.0176 41.076 29.1582C41.5506 29.2988 41.9403 29.6133 42.1746 30.0449C42.66 30.9395 42.3289 32.0635 41.4354 32.5508ZM48.6991 15.2822H35.8553C35.1444 15.2822 34.5653 15.8594 34.5653 16.5693V19.1494H30.6453C30.3934 18.3633 29.7713 17.7412 28.9842 17.4883V11.7109H34.6258C35.3367 11.7109 35.9158 11.1318 35.9158 10.4209V3.70215C35.9158 2.99121 35.3367 2.41211 34.6258 2.41211H21.7811C21.0701 2.41211 20.491 2.99121 20.491 3.70215V10.4209C20.491 11.1318 21.0701 11.7109 21.7811 11.7109H27.4227V17.4883C26.6346 17.7402 26.0115 18.3623 25.7596 19.1494H21.8397V16.5693C21.8397 15.8594 21.2606 15.2822 20.5496 15.2822H7.70491C6.99397 15.2822 6.41487 15.8594 6.41487 16.5693V23.291C6.41487 24.002 6.99397 24.5811 7.70491 24.5811H20.5496C21.2606 24.5811 21.8397 24.002 21.8397 23.291V20.7109H25.7596C26.0907 21.7451 27.0614 22.4961 28.2039 22.4961C29.3455 22.4961 30.3153 21.7451 30.6453 20.7109H34.5653V23.291C34.5653 24.002 35.1444 24.5811 35.8553 24.5811H48.7C49.411 24.5811 49.9901 24.002 49.9901 23.291V16.5693C49.9891 15.8594 49.411 15.2822 48.6991 15.2822ZM22.0526 3.97363H34.3543V10.1494H22.0526V3.97363ZM20.2782 23.0195H7.97639V16.8438H20.2782V23.0195ZM28.2039 20.9346C27.6502 20.9346 27.1991 20.4834 27.1991 19.9297C27.1991 19.377 27.6502 18.9277 28.2039 18.9277C28.7567 18.9277 29.2059 19.377 29.2059 19.9297C29.2059 20.4844 28.7557 20.9346 28.2039 20.9346ZM48.4276 23.0195H36.1258V16.8438H48.4276V23.0195ZM37.244 18.6182C37.244 18.1865 37.5936 17.8379 38.0242 17.8379H46.5282C46.9598 17.8379 47.3084 18.1875 47.3084 18.6182C47.3084 19.0488 46.9588 19.3984 46.5282 19.3984H38.0242C37.5936 19.3984 37.244 19.0488 37.244 18.6182ZM37.244 21.2422C37.244 20.8105 37.5936 20.4619 38.0242 20.4619H42.2762C42.7078 20.4619 43.0565 20.8115 43.0565 21.2422C43.0565 21.6729 42.7069 22.0225 42.2762 22.0225H38.0242C37.5936 22.0225 37.244 21.6729 37.244 21.2422ZM19.1629 18.6182C19.1629 19.0498 18.8133 19.3984 18.3826 19.3984H9.87581C9.44417 19.3984 9.09554 19.0488 9.09554 18.6182C9.09554 18.1875 9.44514 17.8379 9.87581 17.8379H18.3826C18.8133 17.8369 19.1629 18.1865 19.1629 18.6182ZM14.908 21.2422C14.908 21.6738 14.5584 22.0225 14.1278 22.0225H9.87581C9.44417 22.0225 9.09554 21.6729 9.09554 21.2422C9.09554 20.8115 9.44514 20.4619 9.87581 20.4619H14.1278C14.5584 20.4609 14.908 20.8105 14.908 21.2422ZM23.1678 5.75098C23.1678 5.31934 23.5174 4.9707 23.9481 4.9707H32.4549C32.8866 4.9707 33.2352 5.32031 33.2352 5.75098C33.2352 6.18164 32.8856 6.53125 32.4549 6.53125H23.9481C23.5174 6.53223 23.1678 6.18262 23.1678 5.75098ZM28.2039 9.15625H23.949C23.5174 9.15625 23.1688 8.80664 23.1688 8.37598C23.1688 7.94531 23.5184 7.5957 23.949 7.5957H28.2039C28.6356 7.5957 28.9842 7.94531 28.9842 8.37598C28.9842 8.80664 28.6346 9.15625 28.2039 9.15625Z" fill="currentColor"/>
</svg>
