<svg width="24" height="16" viewBox="0 0 24 16" fill="none" xmlns="http://www.w3.org/2000/svg">
<path d="M23.4609 3.54688H20.3906V1.22656C20.3906 0.929328 20.1488 0.6875 19.8516 0.6875H0.539062C0.241828 0.6875 0 0.929328 0 1.22656V2.97837C0.0143906 3.44319 0.688875 3.44286 0.703125 2.97837V1.39062H19.6875V11.75H0.703125V4.60044C0.688734 4.13562 0.01425 4.13595 0 4.60044V11.9141C0 12.2113 0.241828 12.4531 0.539062 12.4531H3.60938V14.7734C3.60938 15.0707 3.8512 15.3125 4.14844 15.3125H18.3165C18.7814 15.2981 18.781 14.6236 18.3165 14.6094H4.3125V12.4531H6.06295C6.07992 12.4653 6.09797 12.4764 6.11752 12.4857C6.35189 12.597 6.51511 12.8236 6.54352 13.0771C6.54905 13.1263 6.54989 13.1758 6.54605 13.2242C6.53212 13.3993 6.59255 13.5738 6.71175 13.7029C6.83109 13.8321 7.00055 13.9062 7.17656 13.9062H20.4328C20.6088 13.9062 20.7782 13.8321 20.8976 13.7029C21.0168 13.5739 21.0773 13.3993 21.0633 13.2243C21.0595 13.1758 21.0604 13.1263 21.0659 13.077C21.105 12.7285 21.3872 12.4513 21.737 12.4178C21.7888 12.4128 21.841 12.4131 21.892 12.4186C22.255 12.4657 22.6018 12.156 22.5938 11.7898V7.06958C22.5938 6.89038 22.5173 6.71895 22.384 6.59923C22.2502 6.47919 22.0708 6.4213 21.892 6.4408C21.8411 6.44628 21.7889 6.44656 21.737 6.44159C21.3872 6.40812 21.105 6.13086 21.0659 5.7823C21.0603 5.73308 21.0595 5.68353 21.0633 5.63516C21.0773 5.46003 21.0168 5.28556 20.8976 5.15647C20.7783 5.02723 20.6088 4.95312 20.4328 4.95312H20.3906V4.25H23.2969V14.6094H20.0391C19.5742 14.6238 19.5746 15.2983 20.0391 15.3125H23.4609C23.7582 15.3125 24 15.0707 24 14.7734V4.08594C24 3.7887 23.7582 3.54688 23.4609 3.54688ZM21.67 7.14153C21.7434 7.14856 21.8174 7.15006 21.8906 7.14608V11.7133C21.8174 11.7093 21.7434 11.7108 21.67 11.7178C20.991 11.7828 20.4431 12.3215 20.3671 12.9986C20.3595 13.0666 20.3565 13.1351 20.3584 13.2031H7.25105C7.25283 13.1351 7.24992 13.0666 7.24223 12.9987C7.22053 12.8051 7.15823 12.62 7.06383 12.4531H19.8516C20.1488 12.4531 20.3906 12.2113 20.3906 11.9141V6.00289C20.5219 6.61203 21.0393 7.08116 21.67 7.14153Z" fill="currentColor"/>
<path d="M2.26303 3.58222C2.21114 3.58719 2.15892 3.58691 2.10811 3.58142C1.929 3.5622 1.74975 3.61981 1.61602 3.73986C1.4827 3.85953 1.40625 4.031 1.40625 4.2102V8.93042C1.40625 9.10962 1.4827 9.28105 1.61602 9.40072C1.74975 9.52077 1.92891 9.57852 2.10802 9.5592C2.15892 9.55372 2.21105 9.55344 2.26308 9.55841C2.61281 9.59188 2.89505 9.86914 2.93419 10.2177C2.93972 10.2669 2.94056 10.3165 2.93672 10.3648C2.9228 10.54 2.98322 10.7144 3.10242 10.8435C3.22177 10.9727 3.39117 11.0469 3.56719 11.0469H16.8234C16.9995 11.0469 17.1689 10.9727 17.2882 10.8435C17.4075 10.7145 17.4679 10.54 17.454 10.3649C17.4501 10.3165 17.451 10.267 17.4565 10.2177C17.4956 9.86914 17.7778 9.59188 18.1276 9.55841C18.1794 9.55344 18.2317 9.55367 18.2826 9.5592C18.4615 9.57847 18.6409 9.52077 18.7747 9.40072C18.908 9.28105 18.9844 9.10967 18.9844 8.93042V4.2102C18.9844 4.031 18.908 3.85958 18.7747 3.73986C18.6409 3.61981 18.4614 3.56202 18.2827 3.58142C18.2317 3.58691 18.1796 3.58719 18.1276 3.58222C17.7779 3.54875 17.4956 3.27148 17.4565 2.92292C17.451 2.8737 17.4502 2.82416 17.454 2.77578C17.4679 2.60066 17.4075 2.42619 17.2883 2.29709C17.169 2.16786 16.9995 2.09375 16.8235 2.09375H3.56719C3.39117 2.09375 3.22177 2.16791 3.10237 2.29709C2.98317 2.42614 2.92275 2.60066 2.93667 2.77569C2.94052 2.82416 2.93963 2.87366 2.93414 2.92297C2.89505 3.27148 2.61281 3.54875 2.26303 3.58222ZM3.63286 3.00139C3.6405 2.93342 3.64345 2.86489 3.64163 2.79688H16.749C16.7472 2.86489 16.7501 2.93342 16.7578 3.00139C16.8337 3.67855 17.3817 4.21719 18.0607 4.28216C18.1341 4.28919 18.208 4.29069 18.2813 4.2867V8.85392C18.208 8.84994 18.1341 8.85144 18.0607 8.85847C17.3817 8.92344 16.8337 9.46208 16.7578 10.1392C16.7502 10.2072 16.7472 10.2757 16.749 10.3438H3.64167C3.64345 10.2757 3.64055 10.2072 3.63286 10.1392C3.55687 9.46208 3.00895 8.92344 2.33002 8.85847C2.25656 8.85144 2.18264 8.84994 2.10938 8.85392V4.2867C2.18264 4.29064 2.25652 4.28919 2.33002 4.28216C3.00895 4.21719 3.55692 3.67855 3.63286 3.00139Z" fill="currentColor"/>
<path d="M10.1953 9.54699C11.8366 9.54699 13.1719 8.21171 13.1719 6.57043C13.0223 2.62702 7.36777 2.6281 7.21875 6.57047C7.21875 8.21171 8.55403 9.54699 10.1953 9.54699ZM10.1953 4.29699C11.4489 4.29699 12.4688 5.31685 12.4688 6.57043C12.3545 9.58233 8.03569 9.58149 7.92188 6.57038C7.92188 5.31685 8.94173 4.29699 10.1953 4.29699Z" fill="currentColor"/>
</svg>
