<svg width="50" height="50" viewBox="0 0 50 50" fill="none" xmlns="http://www.w3.org/2000/svg">
<path d="M33.3333 46.875H8.33333C6.95251 46.8733 5.62871 46.3241 4.65231 45.3477C3.67592 44.3713 3.12665 43.0475 3.125 41.6667V8.33333C3.12665 6.95251 3.67592 5.62871 4.65231 4.65231C5.62871 3.67592 6.95251 3.12665 8.33333 3.125H24.4375C25.1311 3.12546 25.8178 3.26384 26.4574 3.53209C27.0971 3.80033 27.677 4.19308 28.1635 4.6875L37.0573 13.7906C38.0113 14.7645 38.5444 16.0742 38.5417 17.4375V25.1979C38.5417 25.4742 38.4319 25.7391 38.2366 25.9345C38.0412 26.1298 37.7763 26.2396 37.5 26.2396C37.2237 26.2396 36.9588 26.1298 36.7634 25.9345C36.5681 25.7391 36.4583 25.4742 36.4583 25.1979V17.4375C36.4588 16.6198 36.1387 15.8344 35.5667 15.25L26.6719 6.14583C26.3804 5.84897 26.0327 5.61316 25.649 5.45219C25.2654 5.29123 24.8535 5.20833 24.4375 5.20833H8.33333C7.50453 5.20833 6.70968 5.53757 6.12363 6.12363C5.53757 6.70968 5.20833 7.50453 5.20833 8.33333V41.6667C5.20833 42.4955 5.53757 43.2903 6.12363 43.8764C6.70968 44.4624 7.50453 44.7917 8.33333 44.7917H33.3333C33.7263 44.7932 34.1157 44.7171 34.4792 44.5677C34.7347 44.4626 35.0216 44.4633 35.2766 44.5697C35.5316 44.676 35.7339 44.8793 35.8391 45.1349C35.9442 45.3904 35.9435 45.6773 35.8371 45.9323C35.7307 46.1873 35.5274 46.3897 35.2719 46.4948C34.6569 46.7474 33.9982 46.8766 33.3333 46.875Z" fill="currentColor"/>
<path d="M37.0729 16.667H30.2083C28.8275 16.6653 27.5037 16.1161 26.5273 15.1397C25.5509 14.1633 25.0017 12.8395 25 11.4587V4.48991C25 4.21364 25.1097 3.94869 25.3051 3.75334C25.5004 3.55799 25.7654 3.44824 26.0417 3.44824C26.3179 3.44824 26.5829 3.55799 26.7782 3.75334C26.9736 3.94869 27.0833 4.21364 27.0833 4.48991V11.4587C27.0833 12.2875 27.4126 13.0823 27.9986 13.6684C28.5847 14.2544 29.3795 14.5837 30.2083 14.5837H37.0729C37.3492 14.5837 37.6141 14.6934 37.8095 14.8888C38.0048 15.0841 38.1146 15.3491 38.1146 15.6253C38.1146 15.9016 38.0048 16.1665 37.8095 16.3619C37.6141 16.5572 37.3492 16.667 37.0729 16.667Z" fill="currentColor"/>
<path d="M35.4193 46.7231C35.0085 46.7236 34.6068 46.6022 34.2651 46.3742L30.9193 44.1429C28.7773 42.7187 27.021 40.7866 25.8069 38.5189C24.5928 36.2512 23.9586 33.7183 23.9609 31.1461V29.3627C23.963 28.894 24.1223 28.4396 24.4133 28.0723C24.7044 27.7049 25.1104 27.4459 25.5662 27.3367C28.6598 26.4816 31.6028 25.1538 34.2912 23.4002C34.6275 23.1836 35.0192 23.0684 35.4193 23.0684C35.8194 23.0684 36.211 23.1836 36.5474 23.4002C39.2356 25.154 42.1787 26.4818 45.2724 27.3367C45.7282 27.4459 46.1341 27.7049 46.4252 28.0723C46.7163 28.4396 46.8756 28.894 46.8776 29.3627V31.1461C46.8806 33.719 46.2468 36.2528 45.0327 38.5213C43.8186 40.7898 42.0619 42.7225 39.9193 44.1471L36.5745 46.3773C36.2321 46.6044 35.8301 46.7247 35.4193 46.7231ZM35.4193 25.1502C32.5392 27.029 29.385 28.4494 26.0693 29.3607L26.0443 31.1461C26.0417 33.3759 26.5911 35.5718 27.6432 37.5378C28.6954 39.5038 30.2177 41.1789 32.0745 42.4138L35.4193 44.6398L38.7641 42.4096C40.6202 41.1752 42.1422 39.5007 43.1943 37.5355C44.2465 35.5702 44.7961 33.3752 44.7943 31.1461V29.3627C41.4704 28.452 38.3078 27.0313 35.4193 25.1513V25.1502Z" fill="currentColor"/>
<path d="M34.3778 37.4999C34.1016 37.4998 33.8367 37.3901 33.6414 37.1947L31.558 35.1114C31.3683 34.9149 31.2633 34.6518 31.2657 34.3786C31.268 34.1055 31.3776 33.8443 31.5707 33.6511C31.7639 33.458 32.0251 33.3484 32.2982 33.3461C32.5714 33.3437 32.8345 33.4487 33.031 33.6384L34.3778 34.9853L37.808 31.5551C38.0045 31.3654 38.2676 31.2604 38.5407 31.2627C38.8139 31.2651 39.0751 31.3747 39.2683 31.5678C39.4614 31.7609 39.5709 32.0222 39.5733 32.2953C39.5757 32.5684 39.4707 32.8316 39.281 33.028L35.1143 37.1947C34.919 37.3901 34.6541 37.4998 34.3778 37.4999Z" fill="currentColor"/>
<path d="M18.75 13.5413H10.4167C10.1404 13.5413 9.87545 13.4316 9.6801 13.2362C9.48475 13.0409 9.375 12.7759 9.375 12.4997C9.375 12.2234 9.48475 11.9585 9.6801 11.7631C9.87545 11.5678 10.1404 11.458 10.4167 11.458H18.75C19.0263 11.458 19.2912 11.5678 19.4866 11.7631C19.6819 11.9585 19.7917 12.2234 19.7917 12.4997C19.7917 12.7759 19.6819 13.0409 19.4866 13.2362C19.2912 13.4316 19.0263 13.5413 18.75 13.5413Z" fill="currentColor"/>
<path d="M25 19.7913H10.4167C10.1404 19.7913 9.87545 19.6816 9.6801 19.4862C9.48475 19.2909 9.375 19.0259 9.375 18.7497C9.375 18.4734 9.48475 18.2085 9.6801 18.0131C9.87545 17.8178 10.1404 17.708 10.4167 17.708H25C25.2763 17.708 25.5412 17.8178 25.7366 18.0131C25.9319 18.2085 26.0417 18.4734 26.0417 18.7497C26.0417 19.0259 25.9319 19.2909 25.7366 19.4862C25.5412 19.6816 25.2763 19.7913 25 19.7913Z" fill="currentColor"/>
<path d="M27.0833 26.0413H10.4167C10.1404 26.0413 9.87545 25.9316 9.6801 25.7362C9.48475 25.5409 9.375 25.2759 9.375 24.9997C9.375 24.7234 9.48475 24.4585 9.6801 24.2631C9.87545 24.0678 10.1404 23.958 10.4167 23.958H27.0833C27.3596 23.958 27.6246 24.0678 27.8199 24.2631C28.0153 24.4585 28.125 24.7234 28.125 24.9997C28.125 25.2759 28.0153 25.5409 27.8199 25.7362C27.6246 25.9316 27.3596 26.0413 27.0833 26.0413Z" fill="currentColor"/>
<path d="M20.8333 32.2913H10.4167C10.1404 32.2913 9.87545 32.1816 9.6801 31.9862C9.48475 31.7909 9.375 31.5259 9.375 31.2497C9.375 30.9734 9.48475 30.7085 9.6801 30.5131C9.87545 30.3178 10.1404 30.208 10.4167 30.208H20.8333C21.1096 30.208 21.3746 30.3178 21.5699 30.5131C21.7653 30.7085 21.875 30.9734 21.875 31.2497C21.875 31.5259 21.7653 31.7909 21.5699 31.9862C21.3746 32.1816 21.1096 32.2913 20.8333 32.2913Z" fill="currentColor"/>
<path d="M20.8333 38.5413H10.4167C10.1404 38.5413 9.87545 38.4316 9.6801 38.2362C9.48475 38.0409 9.375 37.7759 9.375 37.4997C9.375 37.2234 9.48475 36.9585 9.6801 36.7631C9.87545 36.5678 10.1404 36.458 10.4167 36.458H20.8333C21.1096 36.458 21.3746 36.5678 21.5699 36.7631C21.7653 36.9585 21.875 37.2234 21.875 37.4997C21.875 37.7759 21.7653 38.0409 21.5699 38.2362C21.3746 38.4316 21.1096 38.5413 20.8333 38.5413Z" fill="currentColor"/>
</svg>
