<svg width="54" height="60" viewBox="0 0 54 60" fill="none" xmlns="http://www.w3.org/2000/svg">
<path d="M41.4902 19.9609C40.8431 19.9609 40.3184 19.4362 40.3184 18.789V10.7759C40.3184 10.1288 40.8431 9.604 41.4902 9.604C42.1373 9.604 42.6621 10.1288 42.6621 10.7759V18.789C42.6621 19.4362 42.1375 19.9609 41.4902 19.9609Z" fill="currentColor"/>
<path d="M41.4854 8.17725C42.1326 8.17725 42.6572 7.65258 42.6572 7.00537C42.6572 6.35816 42.1326 5.8335 41.4854 5.8335C40.8381 5.8335 40.3135 6.35816 40.3135 7.00537C40.3135 7.65258 40.8381 8.17725 41.4854 8.17725Z" fill="currentColor"/>
<path d="M53.7945 12.3114C53.7945 5.52281 48.2727 0 41.4854 0C38.6761 0 36.0837 0.946172 34.0097 2.53664H4.46988C2.11828 2.53664 0.205078 4.44973 0.205078 6.80145V49.4311C0.205078 51.7827 2.11828 53.696 4.46988 53.696H8.18836V55.7351C8.18836 58.0867 10.1016 60 12.4532 60H43.0931C45.4447 60 47.3579 58.0868 47.3579 55.7351V39.4809C47.3579 38.8338 46.8332 38.3091 46.1861 38.3091C45.5389 38.3091 45.0142 38.8338 45.0142 39.4809V55.7351C45.0142 56.7943 44.1524 57.6562 43.0931 57.6562H12.4532C11.3939 57.6562 10.5321 56.7945 10.5321 55.7351V53.696H35.11C37.4616 53.696 39.3749 51.7828 39.3749 49.4311V24.4416C40.0609 24.5606 40.766 24.6227 41.4855 24.6227C42.7114 24.6227 43.8961 24.4425 45.0143 24.1072V28.8859C45.0143 29.533 45.5391 30.0578 46.1862 30.0578C46.8333 30.0578 47.358 29.533 47.358 28.8859V23.1291C51.1891 21.0401 53.7945 16.9744 53.7945 12.3114ZM37.0311 49.4312C37.0311 50.4905 36.1693 51.3524 35.11 51.3524H4.46988C3.41062 51.3524 2.54883 50.4906 2.54883 49.4312V6.80145C2.54883 5.74219 3.41062 4.88039 4.46988 4.88039H31.6774C30.2065 6.81785 29.2955 9.20262 29.1874 11.7914H9.23145C8.58434 11.7914 8.05957 12.3162 8.05957 12.9633V17.9126C8.05957 18.5597 8.58434 19.0845 9.23145 19.0845H30.3484C30.6148 19.0845 30.8604 18.9955 31.0573 18.8457C32.4572 21.0728 34.5502 22.822 37.0311 23.7886V49.4312ZM29.1765 14.1352V16.7407H10.4033V14.1352H29.1765ZM41.4854 22.2789C35.9906 22.2789 31.5203 17.8075 31.5203 12.3112C31.5203 6.81516 35.9906 2.34363 41.4854 2.34363C46.9804 2.34363 51.4507 6.81504 51.4507 12.3112C51.4507 17.8075 46.9804 22.2789 41.4854 22.2789Z" fill="currentColor"/>
<path d="M46.1859 35.3345C45.7031 35.3345 45.2605 35.0254 45.0903 34.5749C44.9156 34.1124 45.0587 33.5687 45.4429 33.2559C45.8279 32.9427 46.3821 32.905 46.8043 33.1671C47.2257 33.4286 47.4415 33.9446 47.3274 34.4285C47.204 34.9518 46.7244 35.3345 46.1859 35.3345Z" fill="currentColor"/>
<path d="M30.3484 25.5039H9.23145C8.58434 25.5039 8.05957 24.9793 8.05957 24.332C8.05957 23.6849 8.58434 23.1602 9.23145 23.1602H30.3484C30.9955 23.1602 31.5203 23.6849 31.5203 24.332C31.5203 24.9791 30.9956 25.5039 30.3484 25.5039Z" fill="currentColor"/>
<path d="M30.3484 31.062H9.23145C8.58434 31.062 8.05957 30.5372 8.05957 29.8901C8.05957 29.2429 8.58434 28.7183 9.23145 28.7183H30.3484C30.9955 28.7183 31.5203 29.2429 31.5203 29.8901C31.5203 30.5372 30.9956 31.062 30.3484 31.062Z" fill="currentColor"/>
<path d="M30.3484 36.6201H9.23145C8.58434 36.6201 8.05957 36.0954 8.05957 35.4482C8.05957 34.8011 8.58434 34.2764 9.23145 34.2764H30.3484C30.9955 34.2764 31.5203 34.8011 31.5203 35.4482C31.5203 36.0955 30.9956 36.6201 30.3484 36.6201Z" fill="currentColor"/>
<path d="M30.3484 42.1787H9.23145C8.58434 42.1787 8.05957 41.6539 8.05957 41.0068C8.05957 40.3596 8.58434 39.835 9.23145 39.835H30.3484C30.9955 39.835 31.5203 40.3596 31.5203 41.0068C31.5203 41.6539 30.9956 42.1787 30.3484 42.1787Z" fill="currentColor"/>
</svg>
