<svg width="32" height="32" viewBox="0 0 32 32" fill="none" xmlns="http://www.w3.org/2000/svg">
<g clip-path="url(#clip0_827_2438)">
<path d="M15.9997 27.5729H15.9998C19.0676 27.5687 22.0086 26.3482 24.1779 24.1789C26.3472 22.0096 27.5678 19.0686 27.5719 16.0008V16.0007C27.5719 13.7119 26.8932 11.4745 25.6216 9.57147C24.3501 7.66843 22.5427 6.18519 20.4282 5.30931C18.3136 4.43344 15.9868 4.20427 13.7421 4.65079C11.4973 5.0973 9.43529 6.19945 7.81688 7.81785C6.19848 9.43626 5.09633 11.4982 4.64982 13.743C4.2033 15.9878 4.43247 18.3146 5.30834 20.4291C6.18422 22.5437 7.66746 24.351 9.5705 25.6226C11.4735 26.8942 13.7109 27.5729 15.9997 27.5729ZM16.9523 17.5515L16.8719 17.5676V17.6495V19.8895C16.8719 20.1209 16.78 20.3427 16.6164 20.5063C16.4529 20.6699 16.231 20.7618 15.9997 20.7618C15.7684 20.7618 15.5465 20.6699 15.3829 20.5063C15.2194 20.3427 15.1275 20.1209 15.1275 19.8895V17.4862L15.1275 17.4859C15.1261 17.0959 15.2643 16.7183 15.517 16.4212C15.7697 16.1242 16.1202 15.9273 16.5054 15.8661L16.506 15.866C17.2101 15.7493 17.8495 15.3855 18.3096 14.8399C18.7696 14.2943 19.0202 13.6027 19.0164 12.889L19.0163 12.8872C18.9979 12.0936 18.6744 11.3375 18.1131 10.7761C17.5517 10.2148 16.7957 9.89129 16.002 9.8729V9.87287H15.9997C15.1996 9.87287 14.4323 10.1907 13.8666 10.7564C13.3008 11.3222 12.983 12.0895 12.983 12.8895C12.983 13.1209 12.8911 13.3427 12.7275 13.5063C12.564 13.6699 12.3421 13.7618 12.1108 13.7618C11.8795 13.7618 11.6576 13.6699 11.494 13.5063C11.3305 13.3427 11.2386 13.1209 11.2386 12.8895C11.2386 11.6268 11.7402 10.4158 12.6331 9.52293C13.5258 8.6302 14.7365 8.1286 15.999 8.12843C17.257 8.14439 18.4589 8.65119 19.3485 9.54076C20.2381 10.4304 20.7449 11.6323 20.7608 12.8903C20.7644 13.9881 20.3866 15.0531 19.692 15.9033C18.9973 16.7535 18.0289 17.3361 16.9523 17.5515ZM16.6001 22.3704L16.6063 22.38L16.6145 22.3879C16.6963 22.4675 16.7613 22.5627 16.8056 22.6679C16.8498 22.7731 16.8724 22.8861 16.8719 23.0003H16.8717L16.8721 23.0068C16.8755 23.0624 16.8757 23.1181 16.8725 23.1737C16.8604 23.2282 16.8424 23.2812 16.8189 23.3319L16.8189 23.3319L16.8175 23.3353C16.7961 23.3861 16.7706 23.4351 16.741 23.4816C16.6747 23.5754 16.593 23.6573 16.4995 23.7241L16.3444 23.8053C16.2952 23.828 16.2438 23.8454 16.1911 23.8573H16.0152H15.8394C15.7881 23.8457 15.7382 23.8289 15.6903 23.8073L15.5192 23.6957C15.4241 23.6284 15.3412 23.5455 15.2739 23.4505C15.2443 23.404 15.2188 23.355 15.1975 23.3042L15.1975 23.3042L15.196 23.3008C15.1725 23.2501 15.1545 23.1971 15.1424 23.1425C15.1392 23.087 15.1394 23.0313 15.1428 22.9757L15.143 22.9757L15.143 22.9691C15.1426 22.855 15.1651 22.742 15.2094 22.6368C15.2536 22.5316 15.3186 22.4363 15.4005 22.3568L15.4006 22.3569L15.4042 22.353C15.4414 22.3127 15.4834 22.2771 15.5292 22.247L15.6845 22.1657C15.7362 22.1442 15.7902 22.1286 15.8454 22.1192L15.8454 22.1195L15.8526 22.1177C15.9594 22.0913 16.0711 22.0913 16.1779 22.1177L16.1778 22.118L16.1851 22.1192C16.2403 22.1286 16.2943 22.1442 16.346 22.1657L16.4939 22.2431C16.5343 22.2811 16.57 22.3238 16.6001 22.3704ZM8.60134 4.92825C10.7912 3.465 13.3659 2.684 15.9996 2.68398C19.5302 2.68809 22.915 4.09241 25.4114 6.58889C27.9079 9.08539 29.3123 12.4702 29.3163 16.0008C29.3163 18.6345 28.5353 21.2091 27.0721 23.399C25.6088 25.5889 23.5291 27.2957 21.0957 28.3036C18.6624 29.3116 15.9849 29.5753 13.4017 29.0614C10.8185 28.5476 8.44574 27.2793 6.58338 25.417C4.72101 23.5546 3.45272 21.1818 2.93889 18.5986C2.42506 16.0154 2.68878 13.3379 3.69668 10.9046C4.70459 8.47128 6.41142 6.3915 8.60134 4.92825Z" fill="currentColor" stroke="white" stroke-width="0.2"/>
</g>
<defs>
<clipPath id="clip0_827_2438">
<rect width="28" height="28" fill="white" transform="translate(2 2)"/>
</clipPath>
</defs>
</svg>
