<svg width="50" height="50" viewBox="0 0 50 50" fill="none" xmlns="http://www.w3.org/2000/svg">
<g clip-path="url(#clip0_692_3873)">
<path d="M25 17.9688C21.1234 17.9688 17.9688 21.1234 17.9688 25C17.9688 28.8766 21.1234 32.0312 25 32.0312C28.8766 32.0312 32.0312 28.8766 32.0312 25C32.0312 21.1234 28.8766 17.9688 25 17.9688ZM25 30.4688C21.9844 30.4688 19.5312 28.0156 19.5312 25C19.5312 21.9844 21.9844 19.5312 25 19.5312C28.0156 19.5312 30.4688 21.9844 30.4688 25C30.4688 28.0156 28.0156 30.4688 25 30.4688Z" fill="currentColor"/>
<path d="M42.1875 13.2812H48.4375C48.8688 13.2812 49.2188 12.9313 49.2188 12.5V6.25C49.2188 5.81875 48.8688 5.46875 48.4375 5.46875H42.1875C41.7562 5.46875 41.4062 5.81875 41.4062 6.25V8.59375H39.0625C38.6312 8.59375 38.2812 8.94375 38.2812 9.375V24.2188H37.5V23.4375C37.5 23.0461 37.2102 22.7148 36.8219 22.6633L34.818 22.3961C34.5875 21.5242 34.2398 20.6891 33.7805 19.9023L35.0117 18.293C35.2492 17.982 35.2203 17.543 34.9438 17.2664L32.7336 15.0562C32.457 14.7789 32.0172 14.75 31.707 14.9883L30.0977 16.2195C29.3109 15.7609 28.4758 15.4133 27.6039 15.182L27.3367 13.1781C27.2852 12.7898 26.9539 12.5 26.5625 12.5H23.4375C23.0461 12.5 22.7148 12.7898 22.6633 13.1781L22.3961 15.182C21.5242 15.4125 20.6891 15.7602 19.9023 16.2195L18.293 14.9883C17.982 14.7508 17.543 14.7797 17.2664 15.0562L15.0562 17.2664C14.7797 17.543 14.75 17.9828 14.9883 18.293L16.2195 19.9023C15.7609 20.6891 15.4133 21.5242 15.182 22.3961L13.1781 22.6633C12.7898 22.7148 12.5 23.0461 12.5 23.4375V24.2188H11.7188V9.375C11.7188 8.94375 11.3687 8.59375 10.9375 8.59375H8.59375V6.25C8.59375 5.81875 8.24375 5.46875 7.8125 5.46875H1.5625C1.13125 5.46875 0.78125 5.81875 0.78125 6.25V12.5C0.78125 12.9313 1.13125 13.2812 1.5625 13.2812H7.8125C8.24375 13.2812 8.59375 12.9313 8.59375 12.5V10.1562H10.1562V24.2188H8.59375V21.875C8.59375 21.4438 8.24375 21.0938 7.8125 21.0938H1.5625C1.13125 21.0938 0.78125 21.4438 0.78125 21.875V28.125C0.78125 28.5562 1.13125 28.9062 1.5625 28.9062H7.8125C8.24375 28.9062 8.59375 28.5562 8.59375 28.125V25.7812H10.1562V39.8438H8.59375V37.5C8.59375 37.0688 8.24375 36.7188 7.8125 36.7188H1.5625C1.13125 36.7188 0.78125 37.0688 0.78125 37.5V43.75C0.78125 44.1813 1.13125 44.5312 1.5625 44.5312H7.8125C8.24375 44.5312 8.59375 44.1813 8.59375 43.75V41.4062H10.9375C11.3687 41.4062 11.7188 41.0563 11.7188 40.625V25.7812H12.5V26.5625C12.5 26.9539 12.7898 27.2852 13.1781 27.3367L15.182 27.6039C15.4125 28.4758 15.7602 29.3109 16.2195 30.0977L14.9883 31.707C14.7508 32.018 14.7797 32.457 15.0562 32.7336L17.2664 34.9438C17.543 35.2203 17.9813 35.2492 18.293 35.0117L19.9023 33.7805C20.6891 34.2391 21.5242 34.5867 22.3961 34.818L22.6633 36.8219C22.7148 37.2102 23.0461 37.5 23.4375 37.5H26.5625C26.9539 37.5 27.2852 37.2102 27.3367 36.8219L27.6039 34.818C28.4758 34.5875 29.3109 34.2398 30.0977 33.7805L31.707 35.0117C32.018 35.25 32.4578 35.2211 32.7336 34.9438L34.9438 32.7336C35.2203 32.457 35.25 32.0172 35.0117 31.707L33.7805 30.0977C34.2391 29.3109 34.5867 28.4758 34.818 27.6039L36.8219 27.3367C37.2102 27.2852 37.5 26.9539 37.5 26.5625V25.7812H38.2812V40.625C38.2812 41.0563 38.6312 41.4062 39.0625 41.4062H41.4062V43.75C41.4062 44.1813 41.7562 44.5312 42.1875 44.5312H48.4375C48.8688 44.5312 49.2188 44.1813 49.2188 43.75V37.5C49.2188 37.0688 48.8688 36.7188 48.4375 36.7188H42.1875C41.7562 36.7188 41.4062 37.0688 41.4062 37.5V39.8438H39.8438V25.7812H41.4062V28.125C41.4062 28.5562 41.7562 28.9062 42.1875 28.9062H48.4375C48.8688 28.9062 49.2188 28.5562 49.2188 28.125V21.875C49.2188 21.4438 48.8688 21.0938 48.4375 21.0938H42.1875C41.7562 21.0938 41.4062 21.4438 41.4062 21.875V24.2188H39.8438V10.1562H41.4062V12.5C41.4062 12.9313 41.7562 13.2812 42.1875 13.2812ZM42.9688 7.03125H47.6562V11.7188H42.9688V7.03125ZM7.03125 11.7188H2.34375V7.03125H7.03125V11.7188ZM7.03125 27.3438H2.34375V22.6562H7.03125V27.3438ZM7.03125 42.9688H2.34375V38.2812H7.03125V42.9688ZM35.9375 25.8789L34.0781 26.1266C33.7492 26.1703 33.4836 26.418 33.4164 26.7437C33.1992 27.8 32.7828 28.8 32.1805 29.7148C31.9977 29.9922 32.0109 30.3547 32.2125 30.6188L33.3555 32.1133L32.1133 33.3555L30.6188 32.2125C30.3547 32.0109 29.9914 31.9977 29.7148 32.1805C28.8 32.7828 27.8 33.1992 26.7437 33.4164C26.418 33.4836 26.1711 33.7492 26.1266 34.0781L25.8789 35.9375H24.1219L23.8742 34.0781C23.8305 33.7492 23.5828 33.4836 23.257 33.4164C22.2008 33.1992 21.2008 32.7828 20.2859 32.1805C20.0094 31.9984 19.6469 32.0109 19.382 32.2125L17.8875 33.3555L16.6453 32.1133L17.7883 30.6188C17.9898 30.3547 18.0031 29.9922 17.8203 29.7148C17.218 28.8 16.8016 27.8 16.5844 26.7437C16.5172 26.418 16.2516 26.1711 15.9227 26.1266L14.0625 25.8789V24.1219L15.9219 23.8742C16.2508 23.8305 16.5164 23.5828 16.5836 23.257C16.8008 22.2008 17.2172 21.2008 17.8195 20.2859C18.0023 20.0086 17.9891 19.6461 17.7875 19.382L16.6445 17.8875L17.8867 16.6453L19.3813 17.7883C19.6445 17.9898 20.0078 18.0023 20.2852 17.8203C21.2 17.218 22.2 16.8016 23.2563 16.5844C23.582 16.5172 23.8289 16.2516 23.8734 15.9227L24.1211 14.0625H25.8781L26.1258 15.9219C26.1695 16.2508 26.4172 16.5164 26.743 16.5836C27.7992 16.8008 28.7992 17.2172 29.7141 17.8195C29.9922 18.0023 30.3547 17.9898 30.618 17.7875L32.1125 16.6445L33.3547 17.8867L32.2117 19.3813C32.0102 19.6453 31.9969 20.0078 32.1797 20.2852C32.782 21.2 33.1984 22.2 33.4156 23.2563C33.4828 23.582 33.7484 23.8289 34.0773 23.8734L35.9375 24.1211V25.8789ZM42.9688 38.2812H47.6562V42.9688H42.9688V38.2812ZM42.9688 22.6562H47.6562V27.3438H42.9688V22.6562Z" fill="currentColor"/>
</g>
<defs>
<clipPath id="clip0_692_3873">
<rect width="50" height="50" fill="white"/>
</clipPath>
</defs>
</svg>
