<svg width="50" height="50" viewBox="0 0 50 50" fill="none" xmlns="http://www.w3.org/2000/svg">
<path d="M43.9979 34.3758C44.0126 34.0105 43.9501 33.6462 43.814 33.3053C43.678 32.9645 43.4714 32.6544 43.207 32.3942C42.3362 31.577 40.826 31.2257 38.159 31.2747C35.4135 31.3907 32.6854 31.7573 30.0106 32.3697C28.3293 32.7257 26.6716 33.18 25.0467 33.7302C23.7847 34.1388 22.9139 34.4289 21.9001 34.4289H21.8622C21.5373 34.4459 21.2132 34.3838 20.9194 34.2483C20.6255 34.1127 20.3712 33.9079 20.1795 33.6526C19.9965 33.3704 19.8874 33.049 19.8617 32.7164C19.836 32.3838 19.8946 32.0501 20.0323 31.7446C20.7042 29.9638 20.9614 28.0605 20.7853 26.1717C20.5077 23.5364 19.1573 22.0206 17.075 22.0042C16.7496 21.9848 16.4238 22.0323 16.1186 22.1435C15.8134 22.2548 15.5358 22.4273 15.304 22.6498C14.5426 23.4179 14.5299 24.5864 14.5846 25.8162C14.6309 26.9357 13.3773 28.0756 12.6285 28.7579C10.9458 30.3023 9.65016 32.5576 9.36831 34.5024C9.32624 34.7925 9.29679 35.0581 9.26735 35.3196C9.26148 35.7523 9.16859 36.1798 8.99391 36.578C8.1544 37.3131 7.27085 37.9993 6.34789 38.6331C6.25859 38.6972 6.18324 38.7779 6.1262 38.8705C6.06917 38.963 6.03156 39.0656 6.01556 39.1724C6.01556 39.2745 5.67482 41.681 8.18202 44.7739C9.97828 46.9924 12.5444 47.9934 14.1976 47.9934H14.2565C14.5042 48.0158 14.7538 47.9808 14.9849 47.8913C15.216 47.8018 15.4219 47.6604 15.5858 47.4786C16.0065 46.9107 17.6345 45.1947 18.2781 44.8597C19.9061 44.0058 21.5467 43.2254 23.0233 42.5921C26.5148 42.5268 35.4288 42.4696 37.448 42.9558C37.7864 43.0381 38.1341 43.0793 38.4829 43.0783C40.0015 43.0783 41.5832 42.3388 42.0712 40.8353C42.2384 40.4059 42.3105 39.9471 42.283 39.4888C42.2555 39.0306 42.1288 38.5831 41.9114 38.1755C41.7511 37.8993 41.5466 37.6497 41.3056 37.436C43.4721 36.7332 43.9895 35.434 43.9979 34.3758ZM40.4685 40.345C40.174 41.2479 38.8531 41.6116 37.8561 41.3705C36.1987 40.9619 31.0707 40.9047 27.2552 40.917L27.6506 40.774C31.2466 39.4471 34.978 38.4966 38.7816 37.9385C39.6229 38.1755 40.1866 38.5268 40.4348 38.964C40.5372 39.1798 40.5929 39.4136 40.5987 39.6511C40.6045 39.8886 40.5602 40.1248 40.4685 40.345ZM39.5598 36.1816C32.7996 37.1867 29.2113 38.486 27.0659 39.2623L26.4307 39.4502C23.3579 40.5699 20.367 41.8913 17.4788 43.4052C16.4987 43.9159 14.8707 45.7218 14.3533 46.3428C13.6676 46.4368 11.2445 45.9015 9.50292 43.7484C7.94223 41.824 7.70245 40.3164 7.67721 39.6994C8.46807 39.1234 9.96566 38.008 10.3316 37.5504C10.7523 36.9988 10.8491 36.3246 10.95 35.4748C10.9753 35.246 11.0047 34.9968 11.0426 34.723C11.2739 33.146 12.3761 31.2257 13.7896 29.9428C14.6856 29.1256 16.3556 27.6057 16.2715 25.7386C16.2463 25.1666 16.2 24.1043 16.5239 23.7774C16.5618 23.7407 16.6711 23.6303 17.0582 23.6303C18.2318 23.6303 18.9217 24.5455 19.1068 26.331C19.267 27.9706 19.05 29.6243 18.4716 31.1726C18.2361 31.7246 18.1437 32.3243 18.2023 32.9191C18.261 33.5139 18.469 34.0856 18.8081 34.5841C19.1527 35.0561 19.6115 35.4386 20.1441 35.698C20.6766 35.9573 21.2666 36.0855 21.8622 36.0713C23.1747 36.0713 24.1885 35.7486 25.5936 35.291C27.171 34.7539 28.781 34.3118 30.4144 33.9672C32.9783 33.3771 35.5939 33.0242 38.2263 32.9131C40.2708 32.8763 41.5496 33.0928 42.0376 33.5627C42.143 33.6706 42.2226 33.7998 42.2706 33.9411C42.3186 34.0824 42.3338 34.2322 42.3152 34.3798C42.311 34.7067 42.3026 35.7731 39.5598 36.1816Z" fill="currentColor"/>
<path d="M14.8168 16.8168C14.8781 16.8168 21.1144 17.748 23.6873 20.3209C26.2602 22.8938 27.1832 29.1219 27.1832 29.1832C27.1832 29.3998 27.2693 29.6076 27.4224 29.7608C27.5756 29.9139 27.7834 30 28 30C28.2166 30 28.4244 29.9139 28.5776 29.7608C28.7307 29.6076 28.8168 29.3998 28.8168 29.1832C28.8168 29.1219 29.748 22.8856 32.3209 20.3127C34.8938 17.7398 41.1219 16.8168 41.1832 16.8168C41.3998 16.8168 41.6076 16.7307 41.7608 16.5776C41.9139 16.4244 42 16.2166 42 16C42 15.7834 41.9139 15.5756 41.7608 15.4224C41.6076 15.2693 41.3998 15.1832 41.1832 15.1832C41.1219 15.1832 34.8856 14.252 32.3127 11.6791C29.7398 9.10618 28.8168 2.87806 28.8168 2.8168C28.8168 2.60017 28.7307 2.39242 28.5776 2.23924C28.4244 2.08606 28.2166 2 28 2C27.7834 2 27.5756 2.08606 27.4224 2.23924C27.2693 2.39242 27.1832 2.60017 27.1832 2.8168C27.1832 2.87806 26.252 9.11435 23.6791 11.6873C21.1062 14.2602 14.8781 15.1832 14.8168 15.1832C14.6002 15.1832 14.3924 15.2693 14.2392 15.4224C14.0861 15.5756 14 15.7834 14 16C14 16.2166 14.0861 16.4244 14.2392 16.5776C14.3924 16.7307 14.6002 16.8168 14.8168 16.8168ZM24.8431 12.8512C26.3868 11.3075 27.3915 8.76721 28 6.68028C28.6085 8.77946 29.6336 11.3075 31.1569 12.8512C32.6803 14.395 35.241 15.3997 37.3279 16.0082C35.2246 16.6167 32.7007 17.6418 31.1569 19.1651C29.6132 20.6884 28.6085 23.2287 28 25.3279C27.3915 23.2287 26.3664 20.7007 24.8431 19.1569C23.3197 17.6132 20.759 16.6085 18.6721 16C20.7754 15.3915 23.2993 14.3868 24.8431 12.8431V12.8512Z" fill="currentColor"/>
<path d="M35.0106 10C35.2794 9.99887 35.5367 9.89131 35.7262 9.70092L37.756 7.67327C37.9222 7.47933 38.0091 7.22985 37.9992 6.97469C37.9894 6.71954 37.8835 6.4775 37.7027 6.29694C37.522 6.11639 37.2797 6.01061 37.0243 6.00076C36.7688 5.9909 36.5191 6.07769 36.3249 6.24378L34.2951 8.27143C34.1541 8.4132 34.0581 8.59346 34.0193 8.78956C33.9805 8.98567 34.0006 9.18885 34.077 9.37358C34.1535 9.55831 34.2829 9.71633 34.449 9.82779C34.6151 9.93925 34.8105 9.99916 35.0106 10Z" fill="currentColor"/>
<path d="M34.2951 23.2213C34.1061 23.364 34 23.5569 34 23.758C34 23.9591 34.1061 24.152 34.2951 24.2946L36.3249 25.817C36.5191 25.9417 36.7688 26.0068 37.0243 25.9994C37.2797 25.992 37.522 25.9126 37.7027 25.7771C37.8835 25.6415 37.9894 25.4598 37.9992 25.2682C38.0091 25.0766 37.9222 24.8893 37.756 24.7437L35.7261 23.2213C35.536 23.0796 35.2788 23 35.0106 23C34.7425 23 34.4853 23.0796 34.2951 23.2213Z" fill="currentColor"/>
<path d="M19.7275 9.7528C19.875 9.92122 20.0647 10.0092 20.2587 9.99923C20.4528 9.98924 20.6369 9.88198 20.7742 9.69889C20.9115 9.51581 20.9919 9.27037 20.9994 9.01164C21.0069 8.75291 20.9409 8.49994 20.8146 8.30327L19.2725 6.2472C19.125 6.07878 18.9353 5.99077 18.7413 6.00077C18.5472 6.01076 18.3631 6.11802 18.2258 6.30111C18.0885 6.48419 18.0081 6.72963 18.0006 6.98836C17.9931 7.24709 18.0591 7.50006 18.1854 7.69673L19.7275 9.7528Z" fill="currentColor"/>
</svg>
