<svg width="50" height="50" viewBox="0 0 50 50" fill="none" xmlns="http://www.w3.org/2000/svg">
<path d="M29.9636 8.14761C33.9354 9.31685 37.3655 11.8535 39.6468 15.3085C39.0997 15.8038 38.7537 16.4829 38.6748 17.2167C38.5959 17.9505 38.7894 18.6877 39.2187 19.288C39.648 19.8883 40.283 20.3098 41.0028 20.4724C41.7227 20.6349 42.4772 20.5272 43.1228 20.1696C43.7684 19.812 44.2599 19.2295 44.504 18.533C44.748 17.8365 44.7274 17.0746 44.4462 16.3923C44.165 15.71 43.6428 15.1549 42.9788 14.8326C42.3149 14.5103 41.5557 14.4434 40.8456 14.6445C38.388 10.8755 34.6664 8.1068 30.3499 6.83628C30.2633 6.80898 30.172 6.79922 30.0816 6.80759C29.9911 6.81596 29.9032 6.84229 29.823 6.88502C29.7428 6.92776 29.672 6.98605 29.6146 7.05649C29.5572 7.12694 29.5144 7.20811 29.4887 7.29528C29.4631 7.38244 29.4551 7.47385 29.4652 7.56415C29.4752 7.65445 29.5032 7.74183 29.5475 7.82119C29.5917 7.90055 29.6514 7.97029 29.7229 8.02634C29.7944 8.08238 29.876 8.12361 29.9636 8.14761ZM43.2796 17.5292C43.2796 17.8516 43.184 18.1667 43.005 18.4347C42.8259 18.7027 42.5714 18.9115 42.2736 19.0349C41.9758 19.1582 41.6481 19.1905 41.332 19.1276C41.0159 19.0647 40.7255 18.9095 40.4976 18.6816C40.2697 18.4537 40.1144 18.1633 40.0516 17.8472C39.9887 17.5311 40.021 17.2034 40.1443 16.9056C40.2677 16.6078 40.4765 16.3533 40.7445 16.1742C41.0125 15.9951 41.3276 15.8996 41.6499 15.8996C42.082 15.9 42.4963 16.0718 42.8018 16.3773C43.1074 16.6829 43.2792 17.0972 43.2796 17.5292Z" fill="currentColor"/>
<path d="M20.0357 41.8528C16.0647 40.6831 12.6353 38.1465 10.3545 34.6918C10.9016 34.1965 11.2476 33.5174 11.3265 32.7836C11.4054 32.0499 11.2119 31.3127 10.7826 30.7124C10.3533 30.1121 9.71833 29.6905 8.99846 29.528C8.27858 29.3654 7.52407 29.4732 6.87849 29.8308C6.23292 30.1884 5.74134 30.7709 5.49732 31.4674C5.25329 32.1638 5.27384 32.9257 5.55506 33.6081C5.83627 34.2904 6.35853 34.8455 7.02244 35.1678C7.68635 35.4901 8.44558 35.557 9.15565 35.3559C11.6128 39.1246 15.3336 41.8932 19.6494 43.1641C19.7122 43.1826 19.7773 43.192 19.8428 43.1918C20.0069 43.1915 20.1655 43.132 20.2895 43.0244C20.4135 42.9167 20.4945 42.7681 20.5179 42.6055C20.5413 42.443 20.5054 42.2775 20.4168 42.1393C20.3282 42.0011 20.1928 41.8994 20.0353 41.8528H20.0357ZM6.71971 32.4711C6.71986 32.1488 6.81557 31.8338 6.99474 31.5659C7.17391 31.298 7.42848 31.0893 7.72628 30.966C8.02408 30.8428 8.35173 30.8106 8.66781 30.8736C8.98389 30.9366 9.2742 31.0919 9.50203 31.3198C9.72987 31.5478 9.88501 31.8381 9.94782 32.1542C10.0106 32.4704 9.97833 32.798 9.85496 33.0957C9.73159 33.3935 9.5227 33.648 9.25472 33.827C8.98674 34.006 8.67168 34.1016 8.34939 34.1016C7.91717 34.1012 7.50277 33.9292 7.19721 33.6235C6.89165 33.3178 6.71991 32.9033 6.71971 32.4711Z" fill="currentColor"/>
<path fill-rule="evenodd" clip-rule="evenodd" d="M35.0384 41.7656H27.499C27.4523 41.7656 27.4073 41.7462 27.3747 41.7136C27.3412 41.6801 27.3227 41.636 27.3227 41.5893V40.3098C27.3227 39.5779 27.8456 38.9325 28.6515 38.384C30.0906 37.4017 32.4194 36.7826 35.0384 36.7826C35.4034 36.7826 35.6997 36.4864 35.6997 36.1213C35.6997 35.7571 35.4034 35.46 35.0384 35.46C32.109 35.46 29.5157 36.1927 27.9055 37.2906C26.6772 38.1283 26 39.1926 26 40.3098V41.5893C26 41.9861 26.1578 42.3679 26.4391 42.6492C26.7204 42.9296 27.1014 43.0883 27.499 43.0883H35.0384C35.4034 43.0874 35.6997 42.7912 35.6997 42.4261C35.6997 42.0619 35.4034 41.7648 35.0384 41.7656Z" fill="currentColor"/>
<path fill-rule="evenodd" clip-rule="evenodd" d="M35.0373 25C32.3602 25 30.1875 27.1727 30.1875 29.8498C30.1875 32.527 32.3602 34.6997 35.0373 34.6997C37.7145 34.6997 39.8872 32.527 39.8872 29.8498C39.8872 27.1727 37.7145 25 35.0373 25ZM35.0373 26.3227C36.9843 26.3227 38.5645 27.9029 38.5645 29.8498C38.5645 31.7968 36.9843 33.377 35.0373 33.377C33.0904 33.377 31.5102 31.7968 31.5102 29.8498C31.5102 27.9029 33.0904 26.3227 35.0373 26.3227Z" fill="currentColor"/>
<path fill-rule="evenodd" clip-rule="evenodd" d="M40.3284 36.1875C38.5948 36.1875 37.1875 37.5948 37.1875 39.3284C37.1875 41.062 38.5948 42.4703 40.3284 42.4703C42.062 42.4703 43.4703 41.062 43.4703 39.3284C43.4703 37.5948 42.062 36.1875 40.3284 36.1875ZM40.3284 37.5102C41.3319 37.5102 42.1476 38.325 42.1476 39.3284C42.1476 40.3319 41.3319 41.1476 40.3284 41.1476C39.325 41.1476 38.5093 40.3319 38.5093 39.3284C38.5093 38.325 39.325 37.5102 40.3284 37.5102Z" fill="currentColor"/>
<path fill-rule="evenodd" clip-rule="evenodd" d="M40.9907 36.8481V35.3606C40.9907 34.9955 40.6944 34.6992 40.3293 34.6992C39.9643 34.6992 39.668 34.9955 39.668 35.3606V36.849C39.668 37.2132 39.9643 37.5104 40.3293 37.5104C40.6944 37.5095 40.9907 37.2132 40.9907 36.8481Z" fill="currentColor"/>
<path fill-rule="evenodd" clip-rule="evenodd" d="M42.5506 38.0436L43.6025 36.9908C43.8609 36.7333 43.8609 36.3136 43.6025 36.0561C43.3451 35.7977 42.9253 35.7977 42.6678 36.0561L41.615 37.1081C41.3575 37.3664 41.3575 37.7853 41.615 38.0436C41.8734 38.3011 42.2922 38.3011 42.5506 38.0436Z" fill="currentColor"/>
<path fill-rule="evenodd" clip-rule="evenodd" d="M42.8089 39.9907H44.2974C44.6624 39.9907 44.9587 39.6944 44.9587 39.3293C44.9587 38.9643 44.6624 38.668 44.2974 38.668H42.8089C42.4447 38.668 42.1484 38.9643 42.1484 39.3293C42.1476 39.6944 42.4447 39.9907 42.8089 39.9907Z" fill="currentColor"/>
<path fill-rule="evenodd" clip-rule="evenodd" d="M41.615 41.5506L42.6678 42.6025C42.9253 42.8609 43.3451 42.8609 43.6025 42.6025C43.8609 42.3451 43.8609 41.9253 43.6025 41.6678L42.5506 40.615C42.2922 40.3575 41.8734 40.3575 41.615 40.615C41.3575 40.8734 41.3575 41.2922 41.615 41.5506Z" fill="currentColor"/>
<path fill-rule="evenodd" clip-rule="evenodd" d="M39.668 41.8088V43.2973C39.668 43.6623 39.9643 43.9586 40.3293 43.9586C40.6944 43.9586 40.9907 43.6623 40.9907 43.2973V41.8088C40.9907 41.4446 40.6944 41.1483 40.3293 41.1475C39.9643 41.1475 39.668 41.4446 39.668 41.8088Z" fill="currentColor"/>
<path fill-rule="evenodd" clip-rule="evenodd" d="M38.109 40.615L37.0571 41.6678C36.7987 41.9253 36.7987 42.3451 37.0571 42.6025C37.3145 42.8609 37.7343 42.8609 37.9918 42.6025L39.0446 41.5506C39.3021 41.2922 39.3021 40.8734 39.0446 40.615C38.7862 40.3575 38.3674 40.3575 38.109 40.615Z" fill="currentColor"/>
<path fill-rule="evenodd" clip-rule="evenodd" d="M37.8481 38.668H36.3606C35.9955 38.668 35.6992 38.9643 35.6992 39.3293C35.6992 39.6944 35.9955 39.9907 36.3606 39.9907H37.8481C38.2132 39.9907 38.5104 39.6944 38.5095 39.3293C38.5095 38.9643 38.2132 38.668 37.8481 38.668Z" fill="currentColor"/>
<path fill-rule="evenodd" clip-rule="evenodd" d="M39.0446 37.1071L37.9918 36.0551C37.7343 35.7967 37.3145 35.7967 37.0571 36.0551C36.7987 36.3126 36.7987 36.7323 37.0571 36.9898L38.109 38.0427C38.3674 38.3001 38.7862 38.3001 39.0446 38.0427C39.3021 37.7843 39.3021 37.3654 39.0446 37.1071Z" fill="currentColor"/>
<g clip-path="url(#clip0_864_5336)">
<path d="M24.4141 11.4218C24.7377 11.4218 25 11.1595 25 10.8359V8.49216C25 8.25532 24.8574 8.04173 24.6386 7.95099L15.2246 4.04474C15.0808 3.98509 14.9192 3.98509 14.7754 4.04474L5.36137 7.95099C5.14258 8.04173 5 8.25532 5 8.49216V10.8359C5 11.1595 5.26234 11.4218 5.58594 11.4218H6.60156V18.0625H6.40625C6.08266 18.0625 5.82031 18.3248 5.82031 18.6484V20.4062H5.58594C5.26234 20.4062 5 20.6686 5 20.9922V23.414C5 23.7376 5.26234 24 5.58594 24H24.4141C24.7377 24 25 23.7376 25 23.414V20.9922C25 20.6686 24.7377 20.4062 24.4141 20.4062H24.1797V18.6484C24.1797 18.3248 23.9173 18.0625 23.5938 18.0625H23.3984V11.4218H24.4141ZM23.8281 21.5781V22.8281H6.17188V21.5781H23.8281ZM9.72656 19.2343V20.4062H6.99219V19.2343H9.72656ZM7.77344 18.0625V11.4218H8.94531V18.0625H7.77344ZM10.3125 18.0625H10.1172V11.4218H19.8828V18.0625H19.6875C19.3639 18.0625 19.1016 18.3248 19.1016 18.6484V20.4062H10.8984V18.6484C10.8984 18.3248 10.6361 18.0625 10.3125 18.0625ZM23.0078 19.2343V20.4062H20.2734V19.2343H23.0078ZM21.0547 18.0625V11.4218H22.2266V18.0625H21.0547ZM6.17188 10.25V8.88341L15 5.22028L23.8281 8.88337V10.25H6.17188Z" fill="currentColor"/>
<path d="M18.5156 7.90625H11.4844C11.1608 7.90625 10.8984 8.16859 10.8984 8.49219C10.8984 8.81578 11.1608 9.07812 11.4844 9.07812H18.5156C18.8392 9.07812 19.1016 8.81578 19.1016 8.49219C19.1016 8.16859 18.8392 7.90625 18.5156 7.90625Z" fill="currentColor"/>
<path d="M15 17.6719C14.6769 17.6719 14.4141 17.409 14.4141 17.0859C14.4141 16.7623 14.1517 16.5 13.8281 16.5C13.5045 16.5 13.2422 16.7623 13.2422 17.0859C13.2422 17.8498 13.7321 18.5011 14.4141 18.743V19.0391C14.4141 19.3627 14.6764 19.625 15 19.625C15.3236 19.625 15.5859 19.3627 15.5859 19.0391V18.743C16.2679 18.5011 16.7578 17.8498 16.7578 17.0859C16.7578 16.1167 15.9693 15.3281 15 15.3281C14.6769 15.3281 14.4141 15.0653 14.4141 14.7422C14.4141 14.4191 14.6769 14.1562 15 14.1562C15.3231 14.1562 15.5859 14.4191 15.5859 14.7422C15.5859 15.0658 15.8483 15.3281 16.1719 15.3281C16.4955 15.3281 16.7578 15.0658 16.7578 14.7422C16.7578 13.9783 16.2679 13.327 15.5859 13.0852V12.7891C15.5859 12.4655 15.3236 12.2031 15 12.2031C14.6764 12.2031 14.4141 12.4655 14.4141 12.7891V13.0852C13.7321 13.327 13.2422 13.9783 13.2422 14.7422C13.2422 15.7114 14.0307 16.5 15 16.5C15.3231 16.5 15.5859 16.7629 15.5859 17.0859C15.5859 17.409 15.3231 17.6719 15 17.6719Z" fill="currentColor"/>
</g>
<defs>
<clipPath id="clip0_864_5336">
<rect width="20" height="20" fill="white" transform="translate(5 4)"/>
</clipPath>
</defs>
</svg>
