<svg width="179" height="163" viewBox="0 0 179 163" fill="none" xmlns="http://www.w3.org/2000/svg">
<circle cx="70.8105" cy="70.5" r="70" fill="#FFEFE9"/>
<path d="M144.192 54.2143V62.3571C144.192 63.077 144.478 63.7674 144.988 64.2764C145.498 64.7854 146.189 65.0714 146.91 65.0714C147.631 65.0714 148.322 64.7854 148.832 64.2764C149.341 63.7674 149.628 63.077 149.628 62.3571V54.2143H157.782C158.503 54.2143 159.194 53.9283 159.704 53.4193C160.214 52.9103 160.5 52.2199 160.5 51.5C160.5 50.7801 160.214 50.0897 159.704 49.5807C159.194 49.0717 158.503 48.7857 157.782 48.7857H111.358C110.67 44.0314 108.205 39.7135 104.459 36.7009C100.712 33.6884 95.9617 32.2048 91.1638 32.5488C86.366 32.8928 81.8766 35.0388 78.5993 38.555C75.322 42.0711 73.5 46.6964 73.5 51.5C73.5 56.3036 75.322 60.9289 78.5993 64.445C81.8766 67.9612 86.366 70.1072 91.1638 70.4512C95.9617 70.7952 100.712 69.3116 104.459 66.2991C108.205 63.2865 110.67 58.9686 111.358 54.2143H133.319V61C133.319 61.7199 133.606 62.4102 134.116 62.9193C134.625 63.4283 135.317 63.7143 136.038 63.7143C136.758 63.7143 137.45 63.4283 137.959 62.9193C138.469 62.4102 138.756 61.7199 138.756 61V54.2143H144.192ZM92.5487 65.0714C89.8608 65.0714 87.2332 64.2755 84.9983 62.7842C82.7634 61.293 81.0215 59.1734 79.9929 56.6936C78.9643 54.2137 78.6952 51.4849 79.2195 48.8524C79.7439 46.2198 81.0383 43.8016 82.9389 41.9036C84.8395 40.0056 87.2611 38.713 89.8973 38.1894C92.5336 37.6657 95.2661 37.9345 97.7494 38.9617C100.233 39.9888 102.355 41.7283 103.849 43.9601C105.342 46.1919 106.139 48.8158 106.139 51.5C106.139 55.0994 104.707 58.5513 102.158 61.0964C99.6098 63.6416 96.153 65.0714 92.5487 65.0714Z" fill="#FE6321"/>
<path d="M84.2574 83.8594H58.0438C57.4645 83.8594 56.9089 84.0895 56.4992 84.4992C56.0895 84.9089 55.8594 85.4645 55.8594 86.0438C55.8594 86.6232 56.0895 87.1788 56.4992 87.5885C56.9089 87.9982 57.4645 88.2283 58.0438 88.2283H84.2574C84.8368 88.2283 85.3924 87.9982 85.8021 87.5885C86.2118 87.1788 86.4419 86.6232 86.4419 86.0438C86.4419 85.4645 86.2118 84.9089 85.8021 84.4992C85.3924 84.0895 84.8368 83.8594 84.2574 83.8594Z" fill="#FE6321"/>
<path d="M58.0438 105.704H77.704C78.2834 105.704 78.839 105.474 79.2487 105.064C79.6584 104.654 79.8885 104.099 79.8885 103.519C79.8885 102.94 79.6584 102.384 79.2487 101.975C78.839 101.565 78.2834 101.335 77.704 101.335H58.0438C57.4645 101.335 56.9089 101.565 56.4992 101.975C56.0895 102.384 55.8594 102.94 55.8594 103.519C55.8594 104.099 56.0895 104.654 56.4992 105.064C56.9089 105.474 57.4645 105.704 58.0438 105.704Z" fill="#FE6321"/>
<path d="M84.2574 118.811H58.0438C57.4645 118.811 56.9089 119.041 56.4992 119.45C56.0895 119.86 55.8594 120.416 55.8594 120.995C55.8594 121.574 56.0895 122.13 56.4992 122.54C56.9089 122.949 57.4645 123.179 58.0438 123.179H84.2574C84.8368 123.179 85.3924 122.949 85.8021 122.54C86.2118 122.13 86.4419 121.574 86.4419 120.995C86.4419 120.416 86.2118 119.86 85.8021 119.45C85.3924 119.041 84.8368 118.811 84.2574 118.811Z" fill="#FE6321"/>
<path d="M75.5196 136.286H58.0438C57.4645 136.286 56.9089 136.516 56.4992 136.926C56.0895 137.336 55.8594 137.891 55.8594 138.471C55.8594 139.05 56.0895 139.606 56.4992 140.015C56.9089 140.425 57.4645 140.655 58.0438 140.655H75.5196C76.0989 140.655 76.6546 140.425 77.0642 140.015C77.4739 139.606 77.704 139.05 77.704 138.471C77.704 137.891 77.4739 137.336 77.0642 136.926C76.6546 136.516 76.0989 136.286 75.5196 136.286Z" fill="#FE6321"/>
<path d="M95.1786 88.2283H117.023C117.603 88.2283 118.158 87.9982 118.568 87.5885C118.978 87.1788 119.208 86.6232 119.208 86.0438C119.208 85.4645 118.978 84.9089 118.568 84.4992C118.158 84.0895 117.603 83.8594 117.023 83.8594H95.1786C94.5993 83.8594 94.0436 84.0895 93.634 84.4992C93.2243 84.9089 92.9941 85.4645 92.9941 86.0438C92.9941 86.6232 93.2243 87.1788 93.634 87.5885C94.0436 87.9982 94.5993 88.2283 95.1786 88.2283Z" fill="#FE6321"/>
<path d="M121.392 101.335H95.1786C94.5993 101.335 94.0436 101.565 93.634 101.975C93.2243 102.384 92.9941 102.94 92.9941 103.519C92.9941 104.099 93.2243 104.654 93.634 105.064C94.0436 105.474 94.5993 105.704 95.1786 105.704H121.392C121.972 105.704 122.527 105.474 122.937 105.064C123.347 104.654 123.577 104.099 123.577 103.519C123.577 102.94 123.347 102.384 122.937 101.975C122.527 101.565 121.972 101.335 121.392 101.335Z" fill="#FE6321"/>
<path d="M95.1786 123.179H112.654C113.234 123.179 113.789 122.949 114.199 122.54C114.609 122.13 114.839 121.574 114.839 120.995C114.839 120.416 114.609 119.86 114.199 119.45C113.789 119.041 113.234 118.811 112.654 118.811H95.1786C94.5993 118.811 94.0436 119.041 93.634 119.45C93.2243 119.86 92.9941 120.416 92.9941 120.995C92.9941 121.574 93.2243 122.13 93.634 122.54C94.0436 122.949 94.5993 123.179 95.1786 123.179Z" fill="#FE6321"/>
<path d="M117.023 136.286H95.1786C94.5993 136.286 94.0436 136.516 93.634 136.926C93.2243 137.336 92.9941 137.891 92.9941 138.471C92.9941 139.05 93.2243 139.606 93.634 140.015C94.0436 140.425 94.5993 140.655 95.1786 140.655H117.023C117.603 140.655 118.158 140.425 118.568 140.015C118.978 139.606 119.208 139.05 119.208 138.471C119.208 137.891 118.978 137.336 118.568 136.926C118.158 136.516 117.603 136.286 117.023 136.286Z" fill="#FE6321"/>
<path d="M130.131 86.0438C130.131 86.6232 130.361 87.1788 130.771 87.5885C131.18 87.9982 131.736 88.2283 132.315 88.2283H158.529C159.108 88.2283 159.664 87.9982 160.074 87.5885C160.483 87.1788 160.713 86.6232 160.713 86.0438C160.713 85.4645 160.483 84.9089 160.074 84.4992C159.664 84.0895 159.108 83.8594 158.529 83.8594H132.315C131.736 83.8594 131.18 84.0895 130.771 84.4992C130.361 84.9089 130.131 85.4645 130.131 86.0438Z" fill="#FE6321"/>
<path d="M156.344 103.519C156.344 102.94 156.114 102.384 155.705 101.975C155.295 101.565 154.739 101.335 154.16 101.335H132.315C131.736 101.335 131.18 101.565 130.771 101.975C130.361 102.384 130.131 102.94 130.131 103.519C130.131 104.099 130.361 104.654 130.771 105.064C131.18 105.474 131.736 105.704 132.315 105.704H154.16C154.739 105.704 155.295 105.474 155.705 105.064C156.114 104.654 156.344 104.099 156.344 103.519Z" fill="#FE6321"/>
<path d="M132.315 118.811C131.736 118.811 131.18 119.041 130.771 119.45C130.361 119.86 130.131 120.416 130.131 120.995C130.131 121.574 130.361 122.13 130.771 122.54C131.18 122.949 131.736 123.179 132.315 123.179H151.976C152.555 123.179 153.111 122.949 153.52 122.54C153.93 122.13 154.16 121.574 154.16 120.995C154.16 120.416 153.93 119.86 153.52 119.45C153.111 119.041 152.555 118.811 151.976 118.811H132.315Z" fill="#FE6321"/>
<path d="M158.529 136.286H132.315C131.736 136.286 131.18 136.516 130.771 136.926C130.361 137.336 130.131 137.891 130.131 138.471C130.131 139.05 130.361 139.606 130.771 140.015C131.18 140.425 131.736 140.655 132.315 140.655H158.529C159.108 140.655 159.664 140.425 160.074 140.015C160.483 139.606 160.713 139.05 160.713 138.471C160.713 137.891 160.483 137.336 160.074 136.926C159.664 136.516 159.108 136.286 158.529 136.286Z" fill="#FE6321"/>
</svg>
