<svg width="50" height="50" viewBox="0 0 50 50" fill="none" xmlns="http://www.w3.org/2000/svg">
<g clip-path="url(#clip0_864_4903)">
<path d="M20.9158 43.7314C22.9476 43.7868 24.9164 43.0235 26.38 41.6131C29.7916 38.2006 28.9991 31.8572 24.6125 27.4706C20.2258 23.0839 13.8808 22.2914 10.47 25.7031C7.05914 29.1147 7.85164 35.4581 12.2383 39.8447C14.5119 42.2243 17.6266 43.6193 20.9158 43.7314ZM11.6483 26.8814C12.8008 25.7774 14.349 25.1837 15.9441 25.2339C18.7898 25.3567 21.476 26.5821 23.4341 28.6506C27.17 32.3872 27.9641 37.6739 25.2016 40.4364C22.4391 43.1989 17.1533 42.4031 13.4158 38.6672C9.6783 34.9314 8.88747 29.6431 11.6483 26.8814Z" fill="currentColor"/>
<path d="M6.93584 45.1476C9.83743 48.1503 13.8048 49.8897 17.9792 49.9892C20.8898 50.0531 23.7043 48.9462 25.7917 46.9167L28.7375 43.9709C31.0843 41.5416 32.1952 38.1748 31.755 34.8259C31.324 31.1351 29.6341 27.7056 26.97 25.1151C24.3794 22.4511 20.95 20.7613 17.2592 20.3301C13.9104 19.8896 10.5436 21.0003 8.11418 23.3467L5.16668 26.2917C0.456678 31.0001 1.25001 39.4617 6.93584 45.1476ZM15.9167 21.9276C16.3088 21.9276 16.7007 21.9474 17.0908 21.9867C20.3998 22.3789 23.4725 23.8992 25.7917 26.2917C28.1832 28.6106 29.7034 31.6822 30.0967 34.9901C30.4829 37.8411 29.5488 40.7127 27.5592 42.7909C25.4814 44.7806 22.61 45.7147 19.7592 45.3284C16.4512 44.9346 13.3795 43.4145 11.06 41.0234C8.6689 38.7039 7.14879 35.6322 6.75501 32.3242C6.36869 29.4732 7.3028 26.6015 9.29251 24.5234C11.0622 22.8034 13.4496 21.8679 15.9167 21.9276ZM5.25001 28.8401C5.02196 30.0428 4.96947 31.2723 5.09418 32.4901C5.52607 36.1809 7.21581 39.6104 9.87918 42.2017C12.4705 44.8651 15.9 46.5548 19.5908 46.9867C20.0458 47.0317 20.4947 47.0542 20.9375 47.0542C21.7053 47.0547 22.4715 46.983 23.2258 46.8401C19.0192 49.5726 12.6217 48.4784 8.11168 43.9692C3.60168 39.4601 2.50751 33.0459 5.25001 28.8401Z" fill="currentColor"/>
<path d="M9.57245 3.55439C7.45662 3.04272 5.63578 3.41689 4.44495 4.60855C3.25412 5.80022 2.87995 7.62022 3.39078 9.73605C3.9845 11.907 5.15409 13.8771 6.77578 15.4377C9.12162 17.7844 11.8991 19.0527 14.2241 19.0519C15.4783 19.0979 16.6979 18.6351 17.6058 17.7686C19.9875 15.3852 18.9641 10.6286 15.2725 6.93939C13.7128 5.31733 11.7431 4.14764 9.57245 3.55439ZM16.4275 16.5902C14.7608 18.2527 10.8833 17.1877 7.95412 14.2569C6.54859 12.9127 5.53199 11.2141 5.01162 9.34022C4.64078 7.81022 4.85912 6.54689 5.62328 5.78272C6.21735 5.2391 7.00502 4.95712 7.80912 5.00022C8.27195 5.00457 8.73264 5.06359 9.18162 5.17605C11.0556 5.69662 12.7543 6.71352 14.0983 8.11939C17.0241 11.0452 18.0916 14.9261 16.4275 16.5902Z" fill="currentColor"/>
<path d="M46.3472 7.40652L43.8472 4.90652C40.873 1.92985 34.8972 3.24985 30.243 7.90485C28.1858 9.88267 26.7018 12.38 25.948 15.1324C25.3105 17.7724 25.7697 20.0357 27.2413 21.5082H27.2455L29.7455 24.0082C30.8708 25.0799 32.3818 25.651 33.9347 25.5915C36.8597 25.5915 40.3738 23.9799 43.3513 21.0082C48.0005 16.354 49.3205 10.379 46.3472 7.40652ZM27.568 15.5232C28.2502 13.0691 29.5813 10.8444 31.4213 9.08318C34.023 6.48152 37.2097 5.00902 39.6963 5.00902C40.7906 4.95399 41.8611 5.34105 42.6672 6.08318C43.7105 7.12902 44.013 8.83318 43.5172 10.8865C42.8366 13.3409 41.5065 15.5663 39.6672 17.3282C35.8047 21.1899 30.6555 22.5632 28.4172 20.3282C27.3747 19.284 27.0713 17.5774 27.568 15.5232ZM31.2288 23.0832C31.2955 23.0832 31.3613 23.0907 31.4297 23.0907C34.3555 23.0907 37.8697 21.479 40.8463 18.5032C42.9027 16.5252 44.3864 14.0283 45.1405 11.2765C45.3344 10.4875 45.4235 9.67633 45.4055 8.86402C47.2838 11.224 45.8797 16.114 42.1705 19.8282C38.4722 23.5282 33.5997 24.9374 31.2288 23.0832Z" fill="currentColor"/>
<path d="M22.3372 0C21.877 0 21.5039 0.373096 21.5039 0.833333V3.33333C21.5039 3.79357 21.877 4.16667 22.3372 4.16667C22.7975 4.16667 23.1706 3.79357 23.1706 3.33333V0.833333C23.1706 0.373096 22.7975 0 22.3372 0Z" fill="currentColor"/>
<path d="M21.5039 9.16732C21.5039 9.62756 21.877 10.0007 22.3372 10.0007C22.7975 10.0007 23.1706 9.62756 23.1706 9.16732V6.66732C23.1706 6.20708 22.7975 5.83398 22.3372 5.83398C21.877 5.83398 21.5039 6.20708 21.5039 6.66732V9.16732Z" fill="currentColor"/>
<path d="M24.0052 5.83268H26.5052C26.9654 5.83268 27.3385 5.45959 27.3385 4.99935C27.3385 4.53911 26.9654 4.16602 26.5052 4.16602H24.0052C23.545 4.16602 23.1719 4.53911 23.1719 4.99935C23.1719 5.45959 23.545 5.83268 24.0052 5.83268Z" fill="currentColor"/>
<path d="M20.6693 4.16602H18.1693C17.709 4.16602 17.3359 4.53911 17.3359 4.99935C17.3359 5.45959 17.709 5.83268 18.1693 5.83268H20.6693C21.1295 5.83268 21.5026 5.45959 21.5026 4.99935C21.5026 4.53911 21.1295 4.16602 20.6693 4.16602Z" fill="currentColor"/>
<path d="M41.8416 30.244C41.5162 29.9187 40.9887 29.9187 40.6633 30.244L38.9966 31.9107C38.78 32.1199 38.6931 32.4297 38.7694 32.7211C38.8456 33.0124 39.0732 33.24 39.3645 33.3162C39.6559 33.3925 39.9657 33.3056 40.1749 33.089L41.8416 31.4223C42.1669 31.0969 42.1669 30.5694 41.8416 30.244Z" fill="currentColor"/>
<path d="M36.4914 34.4107L34.8247 36.0774C34.6081 36.2866 34.5212 36.5964 34.5975 36.8878C34.6738 37.1791 34.9013 37.4067 35.1927 37.4829C35.484 37.5592 35.7938 37.4723 36.0031 37.2557L37.6697 35.589C37.9856 35.262 37.981 34.7423 37.6596 34.4208C37.3381 34.0994 36.8184 34.0949 36.4914 34.4107Z" fill="currentColor"/>
<path d="M40.1701 34.4107C39.8431 34.0949 39.3233 34.0994 39.0019 34.4208C38.6804 34.7423 38.6759 35.262 38.9917 35.589L40.6584 37.2557C40.9854 37.5715 41.5051 37.567 41.8266 37.2455C42.148 36.9241 42.1526 36.4043 41.8367 36.0774L40.1701 34.4107Z" fill="currentColor"/>
<path d="M37.6727 31.9104L36.006 30.2437C35.679 29.9279 35.1593 29.9324 34.8378 30.2538C34.5164 30.5753 34.5119 31.095 34.8277 31.422L36.4943 33.0887C36.8213 33.4045 37.3411 33.4 37.6625 33.0785C37.984 32.7571 37.9885 32.2373 37.6727 31.9104Z" fill="currentColor"/>
<path d="M15.0433 35.7503C15.2411 35.8492 15.4701 35.8654 15.6799 35.7954C15.8896 35.7253 16.0629 35.5748 16.1617 35.3769L19.495 28.7103C19.7007 28.2984 19.5336 27.7977 19.1217 27.5919C18.7098 27.3862 18.2091 27.5534 18.0033 27.9653L14.67 34.6319C14.5711 34.8297 14.5549 35.0587 14.6249 35.2685C14.6949 35.4782 14.8455 35.6515 15.0433 35.7503Z" fill="currentColor"/>
<path d="M18.3793 38.2499C18.5771 38.3488 18.806 38.3651 19.0158 38.295C19.2256 38.225 19.3989 38.0745 19.4976 37.8766L21.1643 34.5433C21.37 34.1314 21.2028 33.6307 20.7909 33.4249C20.379 33.2192 19.8783 33.3864 19.6726 33.7983L18.0059 37.1316C17.907 37.3294 17.8908 37.5584 17.9609 37.7681C18.0309 37.9779 18.1814 38.1512 18.3793 38.2499Z" fill="currentColor"/>
<path d="M32.1778 13.1904C32.2676 13.1906 32.3569 13.176 32.4419 13.1471L39.5128 10.7904C39.95 10.6447 40.1863 10.1722 40.0407 9.73498C39.895 9.29776 39.4225 9.0614 38.9853 9.20707L31.9144 11.5662C31.5263 11.6952 31.2891 12.0867 31.3546 12.4904C31.42 12.8942 31.7688 13.1907 32.1778 13.1904Z" fill="currentColor"/>
<path d="M36.0362 14.5129L32.5004 15.692C32.2176 15.7863 32.0065 16.0242 31.9467 16.3163C31.8869 16.6083 31.9874 16.9101 32.2104 17.108C32.4334 17.3058 32.7451 17.3696 33.0279 17.2754L36.5629 16.097C37.0001 15.9514 37.2365 15.4789 37.0908 15.0416C36.9452 14.6044 36.4726 14.368 36.0354 14.5137L36.0362 14.5129Z" fill="currentColor"/>
</g>
<defs>
<clipPath id="clip0_864_4903">
<rect width="50" height="50" fill="white"/>
</clipPath>
</defs>
</svg>
