<svg width="50" height="50" viewBox="0 0 50 50" fill="none" xmlns="http://www.w3.org/2000/svg">
<path d="M9.5978 23.125H16.0272C16.4955 23.125 16.875 22.7053 16.875 22.1875C16.875 21.67 16.4955 21.25 16.0272 21.25H9.5978C9.12952 21.25 8.75 21.67 8.75 22.1875C8.75 22.7053 9.12952 23.125 9.5978 23.125Z" fill="currentColor"/>
<path d="M9.60363 27.5H16.6464C17.1175 27.5 17.5 27.08 17.5 26.5625C17.5 26.0447 17.1175 25.625 16.6464 25.625H9.60363C9.13213 25.625 8.75 26.0447 8.75 26.5625C8.75 27.08 9.13213 27.5 9.60363 27.5Z" fill="currentColor"/>
<path d="M20.3125 27.5C20.559 27.5 20.801 27.4008 20.9753 27.2253C21.1497 27.051 21.25 26.8101 21.25 26.5625C21.25 26.316 21.1497 26.074 20.9753 25.8997C20.801 25.7253 20.559 25.625 20.3125 25.625C20.066 25.625 19.824 25.7253 19.6497 25.8997C19.4742 26.074 19.375 26.316 19.375 26.5625C19.375 26.8101 19.4742 27.051 19.6497 27.2253C19.824 27.4008 20.0649 27.5 20.3125 27.5Z" fill="currentColor"/>
<path d="M28.4375 21.875C32.7455 21.875 36.25 18.3705 36.25 14.0625C36.25 9.75486 32.7455 6.25 28.4375 6.25C24.1299 6.25 20.625 9.75486 20.625 14.0625C20.625 18.3705 24.1299 21.875 28.4375 21.875ZM28.4375 8.02584C31.7662 8.02584 34.4745 10.7338 34.4745 14.0625C34.4745 17.3912 31.7662 20.0995 28.4375 20.0995C25.1088 20.0995 22.4008 17.3912 22.4008 14.0625C22.4008 10.7338 25.1088 8.02584 28.4375 8.02584Z" fill="currentColor"/>
<path d="M45.3722 26.593L44.3018 25.5304V13.5728C44.3018 11.1497 42.3156 9.17797 39.8746 9.17797H38.835C37.0155 5.24109 33.0078 2.5 28.3665 2.5C23.7255 2.5 19.7175 5.24109 17.8983 9.17797H8.17721C5.73586 9.17797 3.75 11.1497 3.75 13.5728V35.722C3.75 38.1455 5.73586 40.1168 8.17721 40.1168H19.5958V42.2283C17.1942 42.2743 15.255 44.2264 15.255 46.6211C15.255 47.1066 15.6514 47.5 16.1404 47.5H31.9049C32.3939 47.5 32.7902 47.1066 32.7902 46.6211C32.7902 44.2264 30.8511 42.2746 28.4498 42.2283V40.1168H39.8746C42.316 40.1168 44.3018 38.1455 44.3018 35.722V31.4926C44.6989 31.3453 45.0634 31.1146 45.3722 30.808C46.5426 29.6458 46.5426 27.7552 45.3722 26.593ZM39.8746 10.9361C41.3393 10.9361 42.5311 12.1189 42.5311 13.5728V23.7726L38.3449 19.617C39.3192 17.9406 39.877 15.997 39.877 13.9261C39.877 12.892 39.737 11.8895 39.4762 10.9361H39.8746ZM28.3665 4.25781C33.7368 4.25781 38.1059 8.59501 38.1059 13.9261C38.1059 19.2572 33.7368 23.5944 28.3665 23.5944C22.9962 23.5944 18.627 19.2572 18.627 13.9261C18.627 8.59501 22.9962 4.25781 28.3665 4.25781ZM8.17721 10.9361H17.2571C16.9964 11.8895 16.8563 12.892 16.8563 13.9261C16.8563 15.0412 17.0188 16.1186 17.3201 17.1383H9.16496C8.67593 17.1383 8.27958 17.5317 8.27958 18.0172C8.27958 18.5023 8.67593 18.8961 9.16496 18.8961H18.0031C19.8686 22.7138 23.813 25.3526 28.3665 25.3526C30.4523 25.3526 32.4102 24.7988 34.0989 23.832L41.1262 30.808C41.5198 31.1987 42.0037 31.4672 42.5311 31.5952V32.3821H5.52075V13.5728C5.52075 12.1189 6.71254 10.9361 8.17721 10.9361ZM30.868 45.7422H17.1776C17.5428 44.7187 18.5278 43.984 19.6822 43.984H28.363C29.5175 43.984 30.5025 44.7187 30.868 45.7422ZM26.6791 42.2262H21.3665V40.1168H26.6791V42.2262ZM39.8746 38.359H8.17721C6.71254 38.359 5.52075 37.1759 5.52075 35.722V34.1399H42.5311V35.722C42.5311 37.1759 41.3393 38.359 39.8746 38.359ZM44.1199 29.5648C43.6399 30.0417 42.8583 30.0414 42.3782 29.5648L35.584 22.8199C36.2245 22.307 36.8087 21.7271 37.3254 21.0913L44.1199 27.8362C44.6 28.3127 44.6 29.0883 44.1199 29.5648Z" fill="currentColor"/>
<path d="M28.4091 11.8183C29.6623 11.8183 30.6818 12.8379 30.6818 14.0908C30.6818 14.593 31.0888 15 31.5909 15C32.093 15 32.5 14.593 32.5 14.0908C32.5 11.835 30.6648 10 28.4091 10C27.907 10 27.5 10.4073 27.5 10.9092C27.5 11.4113 27.907 11.8183 28.4091 11.8183Z" fill="currentColor"/>
</svg>
