<svg width="48" height="48" viewBox="0 0 48 48" fill="none" xmlns="http://www.w3.org/2000/svg">
<path d="M42.48 8H5.52C4.12829 8 3 9.11933 3 10.5C3 11.8807 4.12829 13 5.52 13H42.48C43.8717 13 45 11.8807 45 10.5C45 9.11933 43.8717 8 42.48 8Z" fill="currentColor"/>
<path d="M42.48 21H5.52C4.12829 21 3 22.3432 3 24C3 25.6568 4.12829 27 5.52 27H42.48C43.8717 27 45 25.6568 45 24C45 22.3432 43.8717 21 42.48 21Z" fill="currentColor"/>
<path d="M17.5175 35H5.48248C4.11149 35 3 36.1193 3 37.5C3 38.8807 4.11149 40 5.48248 40H17.5175C18.8885 40 20 38.8807 20 37.5C20 36.1193 18.8885 35 17.5175 35Z" fill="currentColor"/>
</svg>
