<svg width="32" height="32" viewBox="0 0 32 32" fill="none" xmlns="http://www.w3.org/2000/svg">
<path d="M10.6883 10.9375C10.7273 10.4914 11.0864 10.1398 11.5326 10.1026L12.6792 10.0071C12.8801 9.08034 13.2467 8.21708 13.7438 7.44462L12.9984 6.56372C12.7092 6.22192 12.704 5.71933 12.9918 5.37634C13.1482 5.19003 13.3129 5.0084 13.4882 4.83307C13.6635 4.65775 13.8451 4.49313 14.0314 4.33673C14.3744 4.04885 14.877 4.05403 15.2188 4.34327L16.0997 5.08868C16.8722 4.59161 17.7355 4.22502 18.6622 4.02406L18.7577 2.87747C18.7949 2.43121 19.1466 2.07211 19.5926 2.03324C19.8351 2.01206 20.08 2 20.3278 2C20.5758 2 20.8207 2.01206 21.063 2.03318C21.5091 2.07211 21.8607 2.43116 21.8979 2.87741L21.9935 4.024C22.9202 4.2249 23.7835 4.5915 24.5559 5.08862L25.4368 4.34321C25.7786 4.05397 26.2812 4.04873 26.6242 4.33668C26.8105 4.49307 26.9921 4.65769 27.1675 4.83302C27.3428 5.00834 27.5074 5.18997 27.6638 5.37629C27.9517 5.71921 27.9465 6.22181 27.6572 6.56367L26.9119 7.44457C27.4089 8.21702 27.7755 9.08034 27.9765 10.007L29.1231 10.1025C29.5693 10.1397 29.9284 10.4914 29.9673 10.9375C29.9884 11.1798 30.0005 11.4247 30.0005 11.6726C30.0005 11.9206 29.9884 12.1654 29.9673 12.4077C29.9284 12.8538 29.5693 13.2055 29.1231 13.2427L27.9765 13.3382C27.7756 14.2649 27.409 15.1282 26.9119 15.9006L27.6572 16.7815C27.9464 17.1233 27.9517 17.6259 27.6638 17.9689C27.5074 18.1551 27.3427 18.3368 27.1675 18.5121C26.9921 18.6875 26.8105 18.8521 26.6242 19.0085C26.2813 19.2964 25.7787 19.2911 25.4368 19.0019L24.5559 18.2565C23.7835 18.7536 22.9201 19.1202 21.9935 19.3211L21.8979 20.4677C21.8607 20.914 21.5091 21.2731 21.063 21.312C20.8207 21.3331 20.5758 21.3451 20.3278 21.3451C20.0799 21.3451 19.835 21.3331 19.5927 21.312C19.1467 21.273 18.795 20.914 18.7578 20.4677L18.6623 19.3211C17.7356 19.1202 16.8722 18.7537 16.0998 18.2565L15.2189 19.0019C14.8771 19.2911 14.3745 19.2964 14.0316 19.0085C13.8452 18.8521 13.6636 18.6874 13.4883 18.5121C13.313 18.3368 13.1483 18.1551 12.992 17.9689C12.7041 17.6259 12.7092 17.1233 12.9985 16.7815L13.7439 15.9006C13.2468 15.1282 12.8802 14.2649 12.6793 13.3382L11.5327 13.2427C11.0865 13.2055 10.7274 12.8538 10.6885 12.4077C10.6673 12.1654 10.6553 11.9205 10.6553 11.6726C10.6552 11.4247 10.6672 11.1799 10.6883 10.9375Z" stroke="currentColor" stroke-width="1.5" stroke-miterlimit="10" stroke-linecap="round" stroke-linejoin="round"/>
<path d="M9.27337 25.4911C10.7997 25.4911 12.037 24.2538 12.037 22.7275C12.037 21.2012 10.7997 19.9639 9.27337 19.9639C7.74708 19.9639 6.50977 21.2012 6.50977 22.7275C6.50977 24.2538 7.74708 25.4911 9.27337 25.4911Z" stroke="currentColor" stroke-width="1.5" stroke-miterlimit="10" stroke-linecap="round" stroke-linejoin="round"/>
<path d="M16.3072 20.5294C16.3371 20.6251 16.3652 20.7217 16.3914 20.8194C16.4487 21.0332 16.4955 21.2471 16.5326 21.461C16.6101 21.908 16.3382 22.3429 15.9072 22.4844L14.7943 22.8499C14.7749 23.7247 14.5498 24.5945 14.1174 25.3825L14.8972 26.2539C15.1996 26.592 15.2177 27.1046 14.9271 27.4529C14.7881 27.6196 14.6405 27.7815 14.484 27.938C14.3276 28.0944 14.1657 28.242 13.999 28.381C13.6506 28.6716 13.138 28.6536 12.8 28.3511L11.9285 27.5714C11.1405 28.0037 10.2708 28.2289 9.39598 28.2482L9.03051 29.3611C8.88899 29.7921 8.45406 30.064 8.00708 29.9865C7.79322 29.9495 7.57924 29.9027 7.3655 29.8454C7.15181 29.7881 6.94302 29.7216 6.7393 29.6468C6.3135 29.4904 6.07276 29.0375 6.16572 28.5935L6.40578 27.4463C6.03592 27.2213 5.68426 26.9548 5.36454 26.6352C5.04482 26.3154 4.7784 25.9638 4.55338 25.5939L3.40623 25.8341C2.96217 25.927 2.50927 25.6863 2.35287 25.2605C2.27806 25.0568 2.21163 24.848 2.15434 24.6343C2.09704 24.4206 2.05022 24.2066 2.01315 23.9927C1.93569 23.5457 2.20758 23.1108 2.63856 22.9693L3.75147 22.6039C3.77085 21.7291 3.99597 20.8593 4.42831 20.0713L3.64859 19.1999C3.34611 18.8618 3.32809 18.3492 3.61868 18.0008C3.75766 17.8342 3.90527 17.6723 4.06172 17.5158C4.21817 17.3594 4.38009 17.2118 4.54673 17.0728C4.89507 16.7822 5.40769 16.8002 5.74578 17.1027L6.61722 17.8824C7.40527 17.4501 8.27496 17.2249 9.14978 17.2056L9.51525 16.0927C9.65677 15.6617 10.0917 15.3898 10.5386 15.4673C10.7525 15.5043 10.9665 15.5511 11.1802 15.6084C11.2776 15.6345 11.374 15.6625 11.4693 15.6924" stroke="currentColor" stroke-width="1.5" stroke-miterlimit="10" stroke-linecap="round" stroke-linejoin="round"/>
<path d="M17.457 7.49985C18.2731 6.93737 19.2612 6.60645 20.3274 6.60645C23.1257 6.60645 25.394 8.87484 25.394 11.6731C25.394 14.4714 23.1257 16.7398 20.3274 16.7398C17.5291 16.7398 15.2607 14.4714 15.2607 11.6731C15.2607 10.6069 15.5917 9.61884 16.1542 8.80267" stroke="currentColor" stroke-width="1.5" stroke-miterlimit="10" stroke-linecap="round" stroke-linejoin="round"/>
</svg>
