<svg width="28" height="28" viewBox="0 0 28 28" fill="none" xmlns="http://www.w3.org/2000/svg">
<path d="M27.7413 13.5146L27.7413 13.5147C27.9528 13.8038 27.9529 14.1966 27.7413 14.4861C27.6187 14.6537 26.0717 16.741 23.6078 18.7854C21.1421 20.8314 17.7715 22.8233 13.9999 22.8233C10.2282 22.8233 6.85752 20.8314 4.39182 18.7854C1.9279 16.741 0.380926 14.6536 0.25844 14.4859C0.0471959 14.1964 0.0471867 13.8038 0.258413 13.5143C0.380927 13.3467 1.9279 11.2594 4.39182 9.21498C6.85752 7.16908 10.2282 5.17715 13.9999 5.17715C17.7715 5.17715 21.1421 7.16907 23.6078 9.21502C26.0717 11.2595 27.6187 13.3468 27.7413 13.5146ZM2.02168 13.9361L1.96936 13.9997L2.02175 14.0632C2.74325 14.9383 4.32259 16.7145 6.42631 18.2726C8.52866 19.8298 11.1655 21.1772 13.9999 21.1772C16.8402 21.1772 19.4775 19.8305 21.5786 18.2738C23.6811 16.7161 25.2575 14.9403 25.978 14.0644L26.0304 14.0008L25.978 13.9372C25.2562 13.0616 23.6768 11.2855 21.5731 9.72747C19.4708 8.17046 16.8341 6.82329 13.9999 6.82329C11.1595 6.82329 8.52223 8.16996 6.42109 9.72663C4.31861 11.2843 2.74226 13.0601 2.02168 13.9361Z" fill="currentColor" stroke="white" stroke-width="0.2"/>
<path d="M8.56094 13.9994C8.56094 11.0008 11.0008 8.56094 13.9994 8.56094C16.9981 8.56094 19.4379 11.0008 19.4379 13.9994C19.4379 16.9981 16.9981 19.4379 13.9994 19.4379C11.0008 19.4379 8.56094 16.9981 8.56094 13.9994ZM10.2071 13.9994C10.2071 16.0906 11.9082 17.7917 13.9994 17.7917C16.0907 17.7917 17.7917 16.0906 17.7917 13.9994C17.7917 11.9082 16.0906 10.2071 13.9994 10.2071C11.9082 10.2071 10.2071 11.9082 10.2071 13.9994Z" fill="currentColor" stroke="white" stroke-width="0.2"/>
</svg>
