<svg width="50" height="50" viewBox="0 0 50 50" fill="none" xmlns="http://www.w3.org/2000/svg">
<g clip-path="url(#clip0_864_4929)">
<path d="M49.2882 13.1291C49.2881 13.1291 49.2881 13.1291 49.288 13.1291L49.2863 13.1275L46.0589 12.667C45.6053 12.6024 45.29 12.1823 45.3546 11.7287C45.3856 11.5107 45.502 11.3141 45.6781 11.182L48.2866 9.22563C48.6532 8.95071 48.7274 8.43072 48.4525 8.06412L45.4657 4.08179C45.1908 3.71519 44.6708 3.64093 44.3042 3.91586L41.6966 5.87218C41.3316 6.14918 40.8112 6.07783 40.5342 5.71278C40.3997 5.53555 40.342 5.31165 40.3742 5.09148L40.8355 1.86413C40.9005 1.41052 40.5855 0.990197 40.132 0.925069C40.1317 0.925069 40.1314 0.924966 40.1311 0.924966L35.2063 0.221421C34.7528 0.156293 34.3322 0.471146 34.2671 0.924758C34.2671 0.924862 34.2671 0.924862 34.2671 0.924966L33.8058 4.15231C33.7412 4.60592 33.3211 4.92129 32.8675 4.85669C32.6495 4.82568 32.4529 4.70922 32.3207 4.53312L30.3653 1.9247C30.0903 1.55809 29.5703 1.48384 29.2037 1.75877L26.7106 3.62963C25.5827 3.50975 24.4453 3.50975 23.3174 3.62963C15.9308 4.4739 10.1382 10.3646 9.41821 17.7644C9.39581 17.9992 9.38751 18.2323 9.3759 18.4655H9.127C8.73333 18.4662 8.39431 18.7435 8.3156 19.1292L7.74231 21.8554L5.44584 20.2716C5.11626 20.0442 4.67115 20.0847 4.38803 20.3679L1.89907 22.8568C1.61637 23.1398 1.57593 23.5843 1.80284 23.9138L3.37917 26.2061L0.652108 26.7794C0.270676 26.863 -0.000827756 27.2012 1.8962e-06 27.5916V30.9102C-0.000205517 31.3027 0.27472 31.6416 0.658745 31.7225L3.38581 32.2958L1.80947 34.5881C1.58256 34.9176 1.62301 35.362 1.90571 35.6451L4.39467 38.134C4.67779 38.4171 5.12289 38.4577 5.45247 38.2303L7.7448 36.6498L8.31809 39.3768C8.3968 39.7625 8.73582 40.0398 9.12949 40.0406H12.4481C12.8405 40.0408 13.1794 39.7658 13.2603 39.3818L13.8336 36.6548L16.1259 38.2311C16.4554 38.458 16.8999 38.4176 17.1829 38.1348L18.4714 36.8423V39.2068C18.4751 40.387 19.1074 41.4759 20.1307 42.0641V46.6736C20.1307 48.5064 21.6165 49.9922 23.4493 49.9922H26.7679C28.6007 49.9922 30.0865 48.5064 30.0865 46.6736V42.0641C31.1098 41.4759 31.7421 40.387 31.7458 39.2068V35.923C31.7683 34.5413 32.4911 33.2657 33.6648 32.5364C34.3533 32.0897 35.0062 31.5903 35.6178 31.043L34.511 29.8068C33.964 30.2971 33.3795 30.744 32.763 31.1434C31.1156 32.1773 30.1071 33.9781 30.0865 35.923V39.2068C30.0865 40.1232 29.3436 40.8661 28.4272 40.8661H21.79C20.8735 40.8661 20.1307 40.1232 20.1307 39.2068V35.8541C20.1115 33.946 19.1189 32.18 17.499 31.1716C10.9233 27.0397 8.94209 18.3596 13.074 11.7839C15.6376 7.70395 20.1117 5.2207 24.9302 5.20348C24.9179 5.23304 24.907 5.26322 24.8979 5.29391C24.867 5.5117 24.9241 5.7329 25.0563 5.90868L27.0118 8.51628C27.218 8.78312 27.2378 9.14961 27.0616 9.43719C26.8919 9.72653 26.5639 9.88437 26.2319 9.83626L23.0046 9.37497C22.551 9.30995 22.1306 9.6249 22.0655 10.0784C22.0655 10.0787 22.0654 10.079 22.0654 10.0793L21.361 15.0066C21.296 15.4602 21.611 15.8806 22.0645 15.9457C22.0648 15.9457 22.0651 15.9458 22.0654 15.9458L25.2928 16.4071C25.7464 16.4717 26.0617 16.8918 25.9971 17.3454C25.9661 17.5634 25.8497 17.7601 25.6736 17.8922L23.066 19.8477C22.6994 20.1226 22.6251 20.6426 22.9 21.0092L25.8868 24.9915C26.1617 25.3581 26.6817 25.4324 27.0483 25.1574L29.6567 23.2019C30.0236 22.9275 30.5436 23.0025 30.818 23.3695C30.9493 23.5451 31.0058 23.7656 30.975 23.9826L30.5146 27.21C30.4495 27.6635 30.7643 28.084 31.2179 28.1492C31.218 28.1492 31.218 28.1492 31.2181 28.1492L36.1463 28.8535C36.1851 28.8585 36.2242 28.861 36.2632 28.861C36.6763 28.8615 37.0267 28.5581 37.0854 28.1492L37.5459 24.9218C37.6105 24.4682 38.0306 24.1528 38.4842 24.2174C38.7022 24.2484 38.8988 24.3649 39.031 24.541L40.9873 27.1486C41.2622 27.5152 41.7822 27.5895 42.1488 27.3145L46.1311 24.3278C46.4977 24.0529 46.572 23.5329 46.2971 23.1663L44.3416 20.5587C44.1363 20.2914 44.1165 19.9255 44.2918 19.6378C44.4578 19.3446 44.7889 19.1857 45.1214 19.2395L48.3488 19.7C48.8023 19.7651 49.2228 19.4502 49.288 18.9966C49.288 18.9965 49.288 18.9965 49.288 18.9964L49.9915 14.0683C50.0566 13.6147 49.7418 13.1943 49.2882 13.1291ZM21.79 42.5254H28.4272V44.1847H21.79V42.5254ZM21.79 45.844H28.4272V46.6736C28.4272 47.5901 27.6843 48.3329 26.7679 48.3329H23.4493C22.5328 48.3329 21.79 47.5901 21.79 46.6736V45.844ZM15.1851 31.5366C15.6381 31.9071 16.1114 32.252 16.603 32.5695C17.3869 33.0649 17.977 33.8144 18.2747 34.6926L16.4951 36.4689L14.772 35.2808C14.0174 34.7609 12.9842 34.9511 12.4641 35.7056C12.3394 35.8866 12.2519 36.0905 12.2067 36.3055L11.7719 38.3771H9.79985L9.36511 36.3088C9.17636 35.412 8.29641 34.838 7.39966 35.0268C7.18468 35.072 6.98079 35.1595 6.79983 35.2842L5.07581 36.4689L3.56419 34.9606L4.75142 33.2382C5.27192 32.484 5.08234 31.4507 4.32809 30.9302C4.14702 30.8052 3.94292 30.7175 3.72763 30.6721L1.65931 30.2366V28.2653L3.72763 27.8297C4.62407 27.6397 5.19673 26.7589 5.00664 25.8623C4.96153 25.6496 4.87514 25.4479 4.75225 25.2686L3.56419 23.5413L5.07581 22.033L6.80066 23.221C7.55554 23.7405 8.58876 23.5497 9.10823 22.7948C9.23268 22.614 9.32 22.4104 9.36511 22.1956L9.5103 21.5053C9.64325 22.4613 9.86342 23.4029 10.1682 24.3187C7.43835 24.6441 5.48919 27.121 5.81462 29.8509C6.14005 32.5807 8.61697 34.5299 11.3468 34.2045C12.9902 34.0085 14.4287 33.0086 15.1851 31.5366ZM13.8967 30.3676C13.2771 32.0897 11.379 32.9834 9.65694 32.364C7.93489 31.7445 7.04115 29.8463 7.66059 28.1243C8.13453 26.8069 9.38533 25.9294 10.7854 25.9323C10.7962 25.9323 10.8061 25.9323 10.8169 25.9323C11.5799 27.5774 12.6218 29.078 13.8967 30.3676ZM47.7581 17.9378L45.3521 17.5943C43.9912 17.4 42.7306 18.3457 42.5362 19.7064C42.4429 20.3599 42.613 21.0237 43.0091 21.5518L44.4668 23.4956L41.812 25.4868L40.3534 23.5438C39.5288 22.444 37.9687 22.2209 36.869 23.0456C36.3409 23.4415 35.9917 24.0311 35.8982 24.6845L35.5622 27.0938L32.2776 26.6243L32.6211 24.2183C32.8159 22.8575 31.8708 21.5965 30.51 21.4017C29.8562 21.3081 29.192 21.4781 28.6636 21.8745L26.7198 23.3322L24.7286 20.6773L26.6716 19.2188C27.7715 18.3941 27.9945 16.8341 27.1699 15.7344C26.7739 15.2063 26.1843 14.8571 25.5309 14.7636L23.1249 14.4201L23.5945 11.1355L26.0005 11.479C27.3612 11.6738 28.6223 10.7286 28.817 9.36792C28.9107 8.71405 28.7406 8.04991 28.3442 7.52153L26.8815 5.57599L29.5364 3.58483L30.995 5.5287C31.8196 6.62851 33.3797 6.85158 34.4794 6.02691C35.0075 5.63096 35.3566 5.04139 35.4502 4.38793L35.7937 1.98194L39.0783 2.4507L38.7348 4.85669C38.5404 6.21752 39.486 7.47818 40.8469 7.67252C41.5003 7.76586 42.1641 7.59578 42.6922 7.19962L44.6361 5.74192L46.6273 8.39681L44.6834 9.85534C43.5836 10.68 43.3605 12.2401 44.1852 13.3398C44.5811 13.8678 45.1707 14.217 45.8242 14.3106L48.2301 14.654L47.7581 17.9378Z" fill="currentColor"/>
<path d="M35.6763 7.89941C32.0107 7.89941 29.0391 10.871 29.0391 14.5366C29.0391 18.2022 32.0107 21.1738 35.6763 21.1738C39.3419 21.1738 42.3135 18.2022 42.3135 14.5366C42.3093 10.8727 39.3402 7.90346 35.6763 7.89941ZM35.6763 19.5145C32.927 19.5145 30.6984 17.2859 30.6984 14.5366C30.6984 11.7874 32.927 9.55872 35.6763 9.55872C38.4255 9.55872 40.6542 11.7874 40.6542 14.5366C40.651 17.2845 38.4242 19.5113 35.6763 19.5145Z" fill="currentColor"/>
<path d="M25.9406 36.7188H24.2812V39.2077H25.9406V36.7188Z" fill="currentColor"/>
<path d="M21.4815 28.5705C16.36 26.5698 13.8301 20.796 15.8309 15.6745C16.6062 13.69 17.9976 12.0065 19.8006 10.8715L18.9137 9.46777C13.4862 12.8871 11.8581 20.0589 15.2774 25.4865C16.6016 27.5885 18.565 29.2106 20.8792 30.1145C22.9276 30.8993 24.2802 32.8656 24.2808 35.0592H25.9401C25.9427 32.1811 24.1691 29.6 21.4815 28.5705Z" fill="currentColor"/>
<path d="M46.6787 30.9102H40.8711V32.5695H46.6787V30.9102Z" fill="currentColor"/>
<path d="M40.5738 35.2496L39.5117 36.5244L44.49 40.672L45.5521 39.3972L40.5738 35.2496Z" fill="currentColor"/>
<path d="M37.5538 37.5479H35.8945V43.3554H37.5538V37.5479Z" fill="currentColor"/>
<path d="M7.48441 12.6828L0.847656 14.3418L1.24984 15.9507L7.88659 14.2917L7.48441 12.6828Z" fill="currentColor"/>
<path d="M3.19047 4.51769L2.22656 5.86719L8.03367 10.015L8.99757 8.66552L3.19047 4.51769Z" fill="currentColor"/>
<path d="M10.9396 0.00695925L9.33203 0.417969L11.0289 7.05467L12.6364 6.64366L10.9396 0.00695925Z" fill="currentColor"/>
</g>
<defs>
<clipPath id="clip0_864_4929">
<rect width="50" height="50" fill="white"/>
</clipPath>
</defs>
</svg>
