<svg width="32" height="32" viewBox="0 0 32 32" fill="none" xmlns="http://www.w3.org/2000/svg">
<path d="M9.96879 25.8335C8.47885 26.689 6.7994 26.9959 5.80491 27.1059C5.91501 26.1115 6.22184 24.432 7.07645 22.9412C7.30026 22.5522 7.16579 22.0559 6.77684 21.8321C6.38428 21.6074 5.89064 21.7436 5.66774 22.1326C4.13719 24.802 4.11914 27.8505 4.11914 27.9795C4.11914 28.428 4.48283 28.7917 4.93134 28.7917C5.06039 28.7917 8.10885 28.7737 10.7783 27.2431C11.1672 27.0193 11.3017 26.5239 11.0779 26.134C10.8559 25.7451 10.3604 25.6097 9.96879 25.8335Z" fill="currentColor"/>
<path d="M29.9098 4.97184C29.9197 4.4385 29.7185 3.93854 29.3431 3.56403C28.9686 3.18951 28.4271 3.00451 27.938 3C25.6891 3.04241 19.6228 3.68766 13.8833 8.83972C12.8599 8.44174 11.3176 7.85064 10.1472 8.00135C8.4253 8.22245 5.88131 10.5652 3.38966 13.065C3.05937 13.3962 2.92761 13.8654 3.03861 14.3203C3.14871 14.7769 3.48261 15.1352 3.93023 15.2787L7.89196 16.5511C7.59325 17.0962 7.29905 17.6539 7.01478 18.2423C6.65742 18.9823 6.80903 19.8712 7.392 20.4524L12.4574 25.5178C12.8292 25.8905 13.3274 26.0872 13.83 26.0872C14.1143 26.0872 14.4013 26.025 14.6684 25.8959C15.2568 25.6117 15.8145 25.3175 16.3578 25.0197L17.6311 28.9805C17.7746 29.4281 18.1329 29.762 18.5904 29.873C18.696 29.8983 18.8025 29.9109 18.909 29.9109C19.2564 29.9109 19.5913 29.7746 19.8457 29.521C22.3455 27.0294 24.6883 24.4863 24.9085 22.7653C25.061 21.584 24.4681 20.0508 24.0701 19.0274C29.2212 13.2879 29.8674 7.22164 29.9098 4.97184ZM4.87509 13.8772C6.19717 12.5605 9.06875 9.77826 10.3538 9.61312C10.9269 9.54002 11.8266 9.81165 12.5865 10.0869C11.2445 11.474 9.94141 13.1363 8.72672 15.1135L4.87509 13.8772ZM13.9618 24.4331C13.8472 24.489 13.7001 24.4637 13.6062 24.3699L8.53992 19.3036C8.44696 19.2106 8.42079 19.0644 8.47765 18.948C14.7866 5.8797 24.9915 4.68125 27.9696 4.6253H27.9768C28.0842 4.6253 28.1546 4.67313 28.1961 4.71465C28.2304 4.74894 28.289 4.82474 28.2872 4.94206C28.2295 7.92013 27.0301 18.125 13.9618 24.4331ZM23.2976 22.5578C23.1324 23.842 20.3502 26.7144 19.0335 28.0356L17.7954 24.1849C19.7745 22.9702 21.4368 21.6662 22.8238 20.3242C23.1 21.0832 23.3716 21.9811 23.2976 22.5578Z" fill="currentColor"/>
<path d="M23.7902 13.9413C25.1186 12.612 25.1186 10.4497 23.7902 9.12044C22.5015 7.83355 20.2562 7.83355 18.9693 9.12044C18.3259 9.76388 17.9712 10.6203 17.9712 11.5309C17.9712 12.4414 18.3268 13.2979 18.9693 13.9413C19.6127 14.5847 20.4692 14.9394 21.3797 14.9394C22.2903 14.9394 23.1458 14.5847 23.7902 13.9413ZM22.6404 12.7925C21.9663 13.4675 20.7904 13.4675 20.1181 12.7925C19.7806 12.4559 19.5947 12.0074 19.5947 11.5309C19.5947 11.0544 19.7806 10.6068 20.1181 10.2693C20.4547 9.93264 20.9023 9.74673 21.3788 9.74673C21.8544 9.74673 22.3029 9.93264 22.6395 10.2693C23.3362 10.965 23.3362 12.0967 22.6404 12.7925Z" fill="currentColor"/>
</svg>
