<svg width="25" height="24" viewBox="0 0 25 24" fill="none" xmlns="http://www.w3.org/2000/svg">
<g clip-path="url(#clip0_692_3818)">
<path d="M24.2241 18.2974L19.8955 13.9688L20.209 13.6553L20.3189 13.7651C20.392 13.8383 20.488 13.875 20.584 13.875C20.68 13.875 20.776 13.8383 20.8491 13.7651L21.9741 12.6401C22.1207 12.4935 22.1207 12.2565 21.9741 12.1099L19.834 9.96975V3C19.834 1.5525 18.6561 0.375 17.209 0.375H2.95898C1.92511 0.375 1.08398 1.21613 1.08398 2.25V5.25C1.08398 5.457 1.25161 5.625 1.45898 5.625H4.08398V21.75C4.08398 22.7839 4.92511 23.625 5.95898 23.625H19.459C20.4929 23.625 21.334 22.7839 21.334 21.75V21C21.334 20.793 21.1664 20.625 20.959 20.625H19.834V16.8428L22.7564 19.7651C22.8295 19.8383 22.9255 19.875 23.0215 19.875C23.1175 19.875 23.2135 19.8383 23.2866 19.7651L24.2241 18.8276C24.3707 18.681 24.3707 18.444 24.2241 18.2974ZM17.584 15.2197L16.2392 13.875L18.334 11.7802L19.6787 13.125L17.584 15.2197ZM17.4287 16.125L16.834 16.7197L14.7392 14.625L15.334 14.0303L17.4287 16.125ZM20.584 12.9697L18.4892 10.875L19.084 10.2802L21.1787 12.375L20.584 12.9697ZM4.08398 4.875H1.83398V2.25C1.83398 1.62975 2.33873 1.125 2.95898 1.125C3.57923 1.125 4.08398 1.62975 4.08398 2.25V4.875ZM20.584 21.75C20.584 22.3703 20.0792 22.875 19.459 22.875H7.45823C7.69411 22.5615 7.83398 22.1719 7.83398 21.75V21.375H20.584V21.75ZM19.084 20.625H7.45898C7.25161 20.625 7.08398 20.793 7.08398 21V21.75C7.08398 22.3703 6.57923 22.875 5.95898 22.875C5.33873 22.875 4.83398 22.3703 4.83398 21.75V2.25C4.83398 1.82625 4.68736 1.43925 4.44923 1.125H17.209C18.2429 1.125 19.084 1.96613 19.084 3V9.375C18.988 9.375 18.892 9.41175 18.8189 9.48487L17.6939 10.6099C17.5472 10.7565 17.5472 10.9935 17.6939 11.1401L17.8037 11.25L15.709 13.3447L15.5991 13.2349C15.4525 13.0883 15.2155 13.0883 15.0689 13.2349L13.9439 14.3599C13.7972 14.5065 13.7972 14.7435 13.9439 14.8901L16.5689 17.5151C16.642 17.5883 16.738 17.625 16.834 17.625C16.93 17.625 17.026 17.5883 17.0991 17.5151L18.2241 16.3901C18.3707 16.2435 18.3707 16.0065 18.2241 15.8599L18.1142 15.75L18.4277 15.4365L19.084 16.0928V20.625ZM23.0215 18.9697L18.958 14.9062L19.3652 14.499L23.4287 18.5625L23.0215 18.9697Z" fill="currentColor"/>
<path d="M5.95898 7.125H18.334V7.875H5.95898V7.125Z" fill="currentColor"/>
<path d="M5.95898 10.125H16.834V10.875H5.95898V10.125Z" fill="currentColor"/>
<path d="M5.95898 8.625H18.334V9.375H5.95898V8.625Z" fill="currentColor"/>
<path d="M5.95898 4.125H18.334V4.875H5.95898V4.125Z" fill="currentColor"/>
<path d="M5.95898 2.625H18.334V3.375H5.95898V2.625Z" fill="currentColor"/>
<path d="M5.95898 5.625H18.334V6.375H5.95898V5.625Z" fill="currentColor"/>
<path d="M5.95898 11.625H16.084V12.375H5.95898V11.625Z" fill="currentColor"/>
<path d="M8.95898 13.125C7.09786 13.125 5.58398 14.6393 5.58398 16.5C5.58398 18.3608 7.09786 19.875 8.95898 19.875C10.8201 19.875 12.334 18.3608 12.334 16.5C12.334 14.6393 10.8201 13.125 8.95898 13.125ZM8.95898 19.125C7.51186 19.125 6.33398 17.9475 6.33398 16.5C6.33398 15.0525 7.51186 13.875 8.95898 13.875C10.4061 13.875 11.584 15.0525 11.584 16.5C11.584 17.9475 10.4061 19.125 8.95898 19.125Z" fill="currentColor"/>
<path d="M8.95898 14.625C7.92511 14.625 7.08398 15.4661 7.08398 16.5C7.08398 17.5339 7.92511 18.375 8.95898 18.375C9.99286 18.375 10.834 17.5339 10.834 16.5C10.834 15.4661 9.99286 14.625 8.95898 14.625ZM8.95898 17.625C8.33873 17.625 7.83398 17.1202 7.83398 16.5C7.83398 15.8798 8.33873 15.375 8.95898 15.375C9.57923 15.375 10.084 15.8798 10.084 16.5C10.084 17.1202 9.57923 17.625 8.95898 17.625Z" fill="currentColor"/>
<path d="M15.334 18.3751C15.334 18.2101 15.226 18.0638 15.0677 18.0162C14.9102 17.9682 14.7385 18.0293 14.647 18.167L14.521 18.356C14.2 18.8375 13.6626 19.1251 13.084 19.1251V19.8751C13.7384 19.8751 14.356 19.6186 14.8135 19.172C15.079 19.5938 15.5492 19.8751 16.084 19.8751H17.584V19.1251H16.084C15.6704 19.1251 15.334 18.7887 15.334 18.3751Z" fill="currentColor"/>
</g>
<defs>
<clipPath id="clip0_692_3818">
<rect width="24" height="24" fill="white" transform="translate(0.708984)"/>
</clipPath>
</defs>
</svg>
