<svg width="32" height="32" viewBox="0 0 32 32" fill="none" xmlns="http://www.w3.org/2000/svg">
<path d="M24.0318 28.2001H8.31293C7.14685 28.2001 6.19824 27.2514 6.19824 26.0854V25.3329C6.19824 25.046 6.43069 24.8136 6.71747 24.8136C7.00432 24.8136 7.23677 25.046 7.23677 25.3329V26.0854C7.23677 26.6788 7.71946 27.1616 8.31299 27.1616H24.0318C24.6253 27.1616 25.1081 26.6789 25.1081 26.0854V6.06202C25.1081 5.46855 24.6253 4.98579 24.0318 4.98579H22.8256C22.5388 4.98579 22.3063 4.75335 22.3063 4.4665C22.3063 4.17971 22.5388 3.94727 22.8256 3.94727H24.0318C25.1979 3.94727 26.1465 4.89594 26.1465 6.06195V26.0852C26.1465 27.2515 25.1979 28.2001 24.0318 28.2001Z" fill="currentColor" stroke="currentColor" stroke-width="0.5"/>
<path d="M15.4329 25.8523H5.51124C4.34516 25.8523 3.39648 24.9037 3.39648 23.7377V3.7143C3.39648 2.54828 4.34509 1.59961 5.51124 1.59961H21.23C22.3961 1.59961 23.345 2.54828 23.345 3.7143V17.2967C23.345 17.5835 23.1125 17.8159 22.8257 17.8159C22.5389 17.8159 22.3064 17.5835 22.3064 17.2967V3.7143C22.3064 3.12083 21.8235 2.63807 21.23 2.63807H5.51124C4.91776 2.63807 4.43501 3.12076 4.43501 3.7143V23.7376C4.43501 24.3311 4.91776 24.8138 5.51124 24.8138H15.4329C15.7197 24.8138 15.9522 25.0463 15.9522 25.3331C15.9521 25.6199 15.7197 25.8523 15.4329 25.8523Z" fill="currentColor" stroke="currentColor" stroke-width="0.5"/>
<path d="M19.6877 8.0619H7.05341C6.76663 8.0619 6.53418 7.82952 6.53418 7.54267C6.53418 7.25589 6.76663 7.02344 7.05341 7.02344H19.6878C19.9746 7.02344 20.2071 7.25589 20.2071 7.54267C20.207 7.82945 19.9746 8.0619 19.6877 8.0619Z" fill="currentColor" stroke="currentColor" stroke-width="0.5"/>
<path d="M19.6877 12.6176H7.05341C6.76663 12.6176 6.53418 12.3852 6.53418 12.0984C6.53418 11.8115 6.76663 11.5791 7.05341 11.5791H19.6878C19.9746 11.5791 20.2071 11.8115 20.2071 12.0984C20.207 12.3852 19.9746 12.6176 19.6877 12.6176Z" fill="currentColor" stroke="currentColor" stroke-width="0.5"/>
<path d="M16.4272 17.1743H7.05341C6.76663 17.1743 6.53418 16.9418 6.53418 16.655C6.53418 16.3682 6.76663 16.1357 7.05341 16.1357H16.4272C16.7141 16.1357 16.9465 16.3682 16.9465 16.655C16.9465 16.9418 16.714 17.1743 16.4272 17.1743Z" fill="currentColor" stroke="currentColor" stroke-width="0.5"/>
<path d="M13.1935 21.7299H7.05341C6.76663 21.7299 6.53418 21.4975 6.53418 21.2107C6.53418 20.9239 6.76663 20.6914 7.05341 20.6914H13.1935C13.4804 20.6914 13.7128 20.9239 13.7128 21.2107C13.7128 21.4976 13.4804 21.7299 13.1935 21.7299Z" fill="currentColor" stroke="currentColor" stroke-width="0.5"/>
<path d="M19.1397 25.3282C16.8692 25.3282 15.022 23.481 15.022 21.2105C15.022 18.94 16.8691 17.0928 19.1397 17.0928C21.4102 17.0928 23.2574 18.94 23.2574 21.2105C23.2573 23.481 21.4101 25.3282 19.1397 25.3282ZM19.1397 18.1313C17.4417 18.1313 16.0605 19.5126 16.0605 21.2105C16.0605 22.9084 17.4418 24.2896 19.1397 24.2896C20.8376 24.2896 22.2188 22.9084 22.2188 21.2105C22.2188 19.5126 20.8376 18.1313 19.1397 18.1313Z" fill="currentColor"/>
<path d="M18.7107 23.1301C18.5975 23.1301 18.4867 23.0932 18.3957 23.0236L17.1525 22.0749C16.9246 21.9009 16.8807 21.5752 17.0547 21.3472C17.2288 21.1192 17.5545 21.0754 17.7825 21.2494L18.5978 21.8715L19.9897 19.9057C20.1554 19.6716 20.4797 19.6164 20.7134 19.7819C20.9474 19.9476 21.0028 20.2716 20.8371 20.5057L19.1343 22.9108C19.053 23.0259 18.9282 23.1029 18.7889 23.1242C18.763 23.1281 18.7367 23.1301 18.7107 23.1301Z" fill="currentColor"/>
</svg>
