<svg width="32" height="32" viewBox="0 0 32 32" fill="none" xmlns="http://www.w3.org/2000/svg">
<path fill-rule="evenodd" clip-rule="evenodd" d="M18.1333 14.8846C18.1343 14.9016 18.1343 14.9221 18.1333 14.9392C18.1053 15.3315 17.9078 15.8672 17.1268 16.2049C16.9002 16.3005 16.6587 16.3687 16.4052 16.3994V16.7031C16.4052 16.9249 16.2237 17.1091 16.0002 17.1091C15.7767 17.1091 15.5952 16.9249 15.5952 16.7031V16.4063C15.0759 16.3585 14.575 16.2254 14.1031 16.0105C13.8998 15.9184 13.8094 15.6762 13.9025 15.4748C13.9946 15.2701 14.2345 15.1814 14.4385 15.2736C15.1046 15.5752 16.0943 15.7708 16.8078 15.4612C17.223 15.2803 17.3056 15.0654 17.323 14.9084C17.3066 14.7583 17.2258 14.5468 16.805 14.3591C16.514 14.2397 16.2673 14.2226 15.9814 14.2022C15.6692 14.1817 15.3147 14.1578 14.9036 13.9872C14.8992 13.9838 14.8947 13.9838 14.8906 13.9804C14.0878 13.6085 13.9039 13.0796 13.8916 12.7009C13.8916 12.6906 13.8916 12.6804 13.8919 12.6668C13.9222 11.8781 14.6355 11.3351 15.5952 11.203V10.896C15.5952 10.6742 15.7767 10.4899 16.0002 10.4899C16.2237 10.4899 16.4052 10.6742 16.4052 10.896V11.1962C16.9538 11.2474 17.4438 11.377 17.8948 11.592C18.0968 11.6875 18.1824 11.9297 18.0863 12.131C17.9904 12.3323 17.7488 12.421 17.5472 12.3255C17.1005 12.1105 16.5973 12.0014 16.0094 11.9809C15.5389 11.9754 14.7073 12.2044 14.7019 12.694C14.7071 12.7896 14.7446 13.0181 15.2236 13.2433C15.5071 13.3594 15.7518 13.3764 16.0353 13.3935C16.3482 13.414 16.704 13.4378 17.1207 13.6119C17.1245 13.6152 17.1275 13.6152 17.1309 13.6152C17.9156 13.9667 18.1097 14.499 18.1333 14.8846ZM25.2721 24.6836H22.2109V14.2056H25.2721V24.6836ZM27.0463 25.6696V28.3787C27.0463 28.4776 26.9675 28.5561 26.8702 28.5561H5.12977C5.03255 28.5561 4.95409 28.4776 4.95409 28.3787V25.6696C4.95409 25.5741 5.03255 25.4956 5.12977 25.4956H26.8702C26.9675 25.4957 27.0463 25.5742 27.0463 25.6696ZM6.72823 14.2056H9.7891V24.6836H6.72823V14.2056ZM14.4699 19.8216C15.4681 20.0721 16.5321 20.0719 17.5304 19.8216V24.6837H14.4699V19.8216ZM13.6599 19.5521V24.6836H10.5991V16.8634C11.2852 18.0679 12.3641 19.0232 13.6599 19.5521ZM16.0002 19.2007C18.9785 19.2007 21.4013 16.7782 21.4013 13.7996C21.4013 10.8209 18.9785 8.39848 16.0002 8.39848C13.0219 8.39848 10.5991 10.8209 10.5991 13.7996C10.5991 16.7782 13.0219 19.2007 16.0002 19.2007ZM18.3404 24.6836V19.5521C19.6363 19.0232 20.7147 18.0679 21.4013 16.8635V24.6837H18.3404V24.6836ZM4.95403 13.2195C4.95403 13.3151 5.03249 13.3936 5.12971 13.3936H9.80267C10.0121 10.1591 12.7113 7.5899 16.0001 7.5899C19.2889 7.5899 21.9881 10.1591 22.1975 13.3936H26.8702C26.9675 13.3936 27.0462 13.3151 27.0462 13.2195V10.8551C27.0462 10.4013 26.8347 10.0192 26.4509 9.77691L16.7112 3.65934C16.2663 3.37953 15.7341 3.37953 15.2891 3.65934L5.54942 9.77691C5.16561 10.0192 4.95403 10.4013 4.95403 10.8551V13.2195ZM26.8702 14.2056C27.4141 14.2056 27.8563 13.762 27.8563 13.2195V10.8551C27.8563 10.1249 27.5008 9.48008 26.8818 9.09448L17.1421 2.97352C16.4273 2.52315 15.573 2.52315 14.8582 2.97352L5.11851 9.09454C4.49924 9.48008 4.14404 10.1249 4.14404 10.8551V13.2196C4.14404 13.7621 4.58622 14.2056 5.12977 14.2056H5.91825V24.6837H5.12977C4.58628 24.6837 4.14404 25.1272 4.14404 25.6697V28.3788C4.14404 28.9247 4.58622 29.3648 5.12977 29.3648H26.8702C27.4141 29.3648 27.8563 28.9247 27.8563 28.3788V25.6697C27.8563 25.1272 27.4141 24.6837 26.8702 24.6837H26.0821V14.2056H26.8702Z" fill="currentColor" stroke="currentColor" stroke-width="0.5"/>
</svg>
