<svg width="50" height="50" viewBox="0 0 50 50" fill="none" xmlns="http://www.w3.org/2000/svg">
<g clip-path="url(#clip0_864_4967)">
<path fill-rule="evenodd" clip-rule="evenodd" d="M11.8612 44.3132L12.4336 45.3245C12.434 45.3252 12.4344 45.3257 12.4348 45.3264C12.942 46.2288 12.6202 47.3803 11.7231 47.887L9.63505 49.0704C9.63426 49.0709 9.63348 49.0713 9.6327 49.0718C8.73034 49.5792 7.57887 49.2574 7.07181 48.3598L0.931716 37.5103C0.419755 36.607 0.74152 35.4545 1.63995 34.947L3.73034 33.7636L3.73103 33.7632C4.62897 33.256 5.78083 33.5748 6.29221 34.4727L6.29319 34.4745L6.75368 35.2881L12.1829 32.1448C13.8381 31.1875 15.53 30.5658 17.3479 31.1561C19.1045 31.7257 21.9721 32.9539 24.8989 33.4827C24.9335 33.489 24.9676 33.4975 25.001 33.5084C26.5017 33.9943 27.4132 35.5121 27.0034 37.036C26.9498 37.2358 26.8813 37.4237 26.7987 37.5985C27.0812 37.5103 27.3583 37.3881 27.6311 37.2291L35.0763 32.893C37.7886 31.3129 39.5975 31.4908 40.621 32.1775C41.5072 32.7721 41.9187 33.7868 41.8922 34.7833C41.8654 35.7904 41.3843 36.7519 40.5944 37.2384L27.0848 45.5561C25.6528 46.4399 24.0844 46.6475 22.4595 46.214L22.4586 46.2138L12.9726 43.6714L11.8612 44.3132ZM11.0675 46.0955L4.92897 35.2487C4.84358 35.0992 4.65211 35.0446 4.5025 35.129L2.4127 36.3121L2.41201 36.3125C2.26338 36.3964 2.21172 36.5874 2.29632 36.7367L2.29662 36.7371L8.43701 47.5871L8.4373 47.5877C8.52172 47.737 8.71348 47.7888 8.86348 47.7047L10.9496 46.5223L10.9506 46.5217C11.1 46.4374 11.1517 46.2455 11.0675 46.0955ZM11.0887 42.9479L12.4696 42.1505C12.6498 42.0465 12.8639 42.0183 13.0648 42.0722L22.864 44.6984C24.0571 45.0166 25.2096 44.8702 26.2608 44.2212L26.2616 44.2208L39.7718 35.9027C40.1376 35.6775 40.3117 35.208 40.3241 34.7416C40.3388 34.1894 40.1084 33.6043 39.5244 33.3613C38.7563 33.0417 37.5778 33.2511 35.8659 34.2484L28.4209 38.5844C27.2178 39.2855 25.9569 39.4797 24.5827 39.2609C24.5818 39.2607 24.5809 39.2606 24.58 39.2605L23.6571 39.1104C23.6567 39.1103 20.3831 38.2512 18.6531 37.7863C18.235 37.674 17.9868 37.2434 18.0992 36.8254C18.2115 36.4073 18.6421 36.1591 19.0601 36.2714C20.7476 36.7249 22.2687 37.2222 23.9067 37.5609C24.7119 37.6494 25.3033 37.3191 25.4885 36.6291L25.4886 36.6287C25.676 35.9319 25.2387 35.2575 24.5623 35.0158C21.5773 34.4674 18.6557 33.2293 16.8638 32.6482L16.8635 32.6481C15.4849 32.2004 14.2235 32.7767 12.9683 33.5026L7.52632 36.6534L11.0887 42.9479ZM4.18407 36.3678C4.65789 36.2972 5.09799 36.6245 5.16848 37.0984C5.23623 37.5723 4.90897 38.0152 4.43505 38.0828C3.96123 38.1534 3.52113 37.8233 3.45064 37.3495C3.38289 36.8755 3.71015 36.4355 4.18407 36.3678ZM8.89466 10.8476C13.4279 10.8476 17.1018 14.5216 17.1018 19.0549C17.1018 23.588 13.4279 27.262 8.89466 27.262C4.36152 27.262 0.6875 23.588 0.6875 19.0549C0.6875 14.5216 4.36152 10.8476 8.89466 10.8476ZM14.429 22.7228C15.1267 21.6719 15.5332 20.4109 15.5332 19.0549C15.5332 15.3881 12.5614 12.4162 8.89466 12.4162C5.22789 12.4162 2.25613 15.3881 2.25613 19.0549C2.25613 20.4109 2.6626 21.6719 3.36034 22.7228C3.93652 21.2956 5.04819 20.1421 6.44603 19.5116C5.85417 18.8982 5.48897 18.0649 5.48897 17.15C5.48897 15.2762 7.02093 13.7443 8.89466 13.7443C10.7685 13.7443 12.3004 15.2762 12.3004 17.15C12.3004 18.0649 11.9352 18.8982 11.3433 19.5116C12.7412 20.1421 13.8529 21.2956 14.429 22.7228ZM4.58005 24.1004C5.74034 25.0936 7.2474 25.6934 8.89466 25.6934C10.542 25.6934 12.049 25.0936 13.2094 24.1004C12.8119 22.08 11.0306 20.5557 8.89466 20.5557C6.75877 20.5557 4.9775 22.08 4.58005 24.1004ZM8.89466 18.9871C9.90544 18.9871 10.7318 18.1607 10.7318 17.15C10.7318 16.1393 9.90544 15.3129 8.89466 15.3129C7.88397 15.3129 7.0576 16.1393 7.0576 17.15C7.0576 18.1607 7.88397 18.9871 8.89466 18.9871ZM27.0687 2.04819C27.5225 2.18496 27.9613 2.36672 28.3793 2.59133L29.2204 2.21731C29.517 2.08545 29.8642 2.14986 30.0937 2.37937L31.5133 3.79898C31.7425 4.02819 31.8071 4.37476 31.6758 4.67123C31.6758 4.67123 31.3031 5.5127 31.303 5.5127C31.528 5.93133 31.71 6.37094 31.8469 6.82633L32.7045 7.15643C33.0073 7.273 33.2071 7.56398 33.2071 7.88839V9.89643C33.2071 10.2209 33.0073 10.5119 32.7045 10.6285L31.8464 10.9587C31.7093 11.4125 31.5268 11.8513 31.3027 12.2694L31.6758 13.1116C31.8071 13.4081 31.7425 13.7547 31.5133 13.9839L30.0937 15.4035C29.8645 15.6327 29.5179 15.6973 29.2214 15.566C29.2214 15.566 28.3803 15.1935 28.3803 15.1934C27.9626 15.4181 27.5229 15.6001 27.0684 15.7368L26.7383 16.5947C26.6217 16.8975 26.3307 17.0973 26.0062 17.0973H23.9982C23.6738 17.0973 23.3828 16.8975 23.2662 16.5947L22.9361 15.7369C22.4809 15.5998 22.0416 15.4171 21.6233 15.1929L20.781 15.566C20.4846 15.6973 20.138 15.6327 19.9088 15.4035L18.4892 13.9839C18.2597 13.7544 18.1952 13.4072 18.3271 13.1106L18.7009 12.27C18.4764 11.8525 18.2945 11.4131 18.1568 10.959L17.298 10.6285C16.9951 10.5119 16.7953 10.2209 16.7953 9.89643V7.88839C16.7953 7.56398 16.9951 7.273 17.298 7.15643C17.298 7.15643 18.1566 6.82594 18.1565 6.82604C18.2943 6.37094 18.4763 5.93163 18.701 5.51339L18.3271 4.67221C18.1952 4.37565 18.2597 4.02849 18.4892 3.79898L19.9088 2.37937C20.1383 2.14986 20.4854 2.08545 20.782 2.21731C20.782 2.21731 21.6232 2.59133 21.6231 2.59133C22.0413 2.36663 22.4803 2.18476 22.9345 2.048L23.2665 1.18751C23.3832 0.885057 23.674 0.685547 23.9982 0.685547H26.0062C26.3309 0.685547 26.622 0.885547 26.7384 1.18859L27.0687 2.04819ZM25.7473 2.9827L25.4674 2.25417H24.5362L24.2547 2.98378C24.1616 3.22486 23.9557 3.40466 23.7044 3.46447C23.1304 3.60084 22.5831 3.82761 22.08 4.13761C21.8597 4.27339 21.5865 4.29172 21.35 4.18653L20.637 3.86947L19.9793 4.52721L20.2963 5.24015C20.4015 5.47672 20.3832 5.74986 20.2474 5.97025C19.937 6.47388 19.7101 7.02192 19.5718 7.59819C19.5116 7.84917 19.3317 8.05447 19.0909 8.14721L18.364 8.42692V9.3579L19.0909 9.6377C19.3316 9.73035 19.5113 9.93535 19.5717 10.1861C19.71 10.7604 19.9365 11.31 20.2467 11.8115C20.3831 12.0321 20.4016 12.3057 20.2963 12.5427L19.9793 13.2556L20.6376 13.9139L21.3509 13.5979C21.5866 13.4935 21.8586 13.5116 22.0784 13.6462C22.5819 13.9548 23.1296 14.1838 23.7058 14.3203C23.9577 14.38 24.164 14.5602 24.257 14.8017L24.5367 15.5287H25.4677L25.7475 14.8017C25.8404 14.5604 26.0464 14.3803 26.2981 14.3204C26.8716 14.1842 27.4204 13.9577 27.9213 13.648C28.1415 13.5118 28.4148 13.4931 28.6515 13.5979L29.3649 13.9139L30.0237 13.2551L29.7077 12.5417C29.6033 12.306 29.6214 12.0341 29.756 11.8143C30.0647 11.3107 30.2937 10.7629 30.4302 10.1883C30.49 9.93663 30.6701 9.73065 30.9115 9.6377L31.6385 9.3579V8.42692L30.9115 8.14721C30.67 8.05417 30.4898 7.8479 30.43 7.59604C30.2938 7.02045 30.067 6.47319 29.7571 5.97025C29.6215 5.75015 29.6031 5.47751 29.7077 5.24114L30.0237 4.5278L29.3654 3.86947L28.6525 4.18653C28.4159 4.29172 28.1428 4.27339 27.9224 4.13761C27.4194 3.82761 26.872 3.60084 26.2981 3.46447C26.0463 3.40457 25.8401 3.22437 25.7473 2.9827ZM25.0012 4.60466C27.3698 4.60466 29.2901 6.5229 29.2901 8.89143C29.2901 11.2599 27.3697 13.1803 25.0012 13.1803C22.6327 13.1803 20.7145 11.26 20.7145 8.89143C20.7145 6.5228 22.6326 4.60466 25.0012 4.60466ZM25.0012 6.17329C23.4994 6.17329 22.2831 7.38957 22.2831 8.89143C22.2831 10.3935 23.4992 11.6116 25.0012 11.6116C26.5034 11.6116 27.7214 10.3936 27.7214 8.89143C27.7214 7.38937 26.5033 6.17329 25.0012 6.17329ZM41.1091 27.262C36.5896 27.262 32.9032 23.5756 32.9032 19.0561C32.9032 14.5366 36.5896 10.8503 41.1091 10.8503C45.6286 10.8503 49.315 14.5366 49.315 19.0561C49.315 23.5756 45.6286 27.262 41.1091 27.262ZM41.1091 25.6934C44.7647 25.6934 47.7463 22.7117 47.7463 19.0561C47.7463 15.4005 44.7647 12.4189 41.1091 12.4189C37.4535 12.4189 34.4718 15.4005 34.4718 19.0561C34.4718 22.7117 37.4535 25.6934 41.1091 25.6934ZM40.3248 14.722V14.3612C40.3248 13.9284 40.6762 13.5769 41.1091 13.5769C41.5419 13.5769 41.8934 13.9284 41.8934 14.3612V14.7131C42.7802 14.9176 43.5958 15.4919 44.0186 16.4994C44.1861 16.8986 43.998 17.3586 43.5989 17.5261C43.1998 17.6936 42.7397 17.5055 42.5722 17.1063C42.1964 16.2109 41.1914 16.033 40.471 16.3164C40.0666 16.4755 39.7371 16.7975 39.7606 17.2721L39.7607 17.2741C39.778 17.64 40.0199 17.8455 40.3026 17.9836C40.5919 18.1249 40.9267 18.2033 41.2426 18.2548L41.244 18.255C42.5914 18.4768 44.0623 19.098 44.255 20.6998C44.4431 22.2533 43.2075 23.1625 41.8934 23.4149V23.7535C41.8934 24.1863 41.5419 24.5378 41.1091 24.5378C40.6762 24.5378 40.3248 24.1863 40.3248 23.7535V23.4033C39.215 23.1653 38.2631 22.4276 37.9683 21.2435C37.8638 20.8234 38.12 20.3975 38.54 20.293C38.96 20.1884 39.3859 20.4446 39.4905 20.8646C39.6785 21.62 40.4477 21.9367 41.1863 21.9184H41.1881C41.5899 21.9093 42.0376 21.8111 42.3671 21.584C42.5863 21.4328 42.7363 21.2068 42.6977 20.8882L42.6976 20.8873C42.647 20.466 42.3563 20.2379 42.0229 20.0865C41.6998 19.9397 41.3326 19.8593 40.9904 19.803C39.6692 19.5878 38.2679 18.9149 38.1939 17.3482C38.135 16.1457 38.8718 15.2599 39.8967 14.8567C40.035 14.8023 40.1781 14.7573 40.3248 14.722ZM25.7855 25.2217C25.7855 25.6546 25.4341 26.006 25.0012 26.006C24.5684 26.006 24.2169 25.6546 24.2169 25.2217V19.8868C24.2169 19.454 24.5684 19.1025 25.0012 19.1025C25.4341 19.1025 25.7855 19.454 25.7855 19.8868V25.2217ZM27.8516 28.1405C27.5122 28.4092 27.0185 28.3516 26.75 28.0121C26.4813 27.6726 26.5389 27.179 26.8784 26.9104L31.4627 23.2833C31.8021 23.0147 32.2958 23.0722 32.5644 23.4117C32.833 23.7511 32.7754 24.2449 32.4359 24.5134L27.8516 28.1405ZM23.1241 26.9104C23.4636 27.179 23.5211 27.6726 23.2525 28.0121C22.984 28.3516 22.4902 28.4092 22.1508 28.1405L17.5665 24.5134C17.227 24.2449 17.1695 23.7511 17.4381 23.4117C17.7066 23.0722 18.2003 23.0147 18.5398 23.2833L23.1241 26.9104Z" fill="currentColor"/>
</g>
<defs>
<clipPath id="clip0_864_4967">
<rect width="50" height="50" fill="white"/>
</clipPath>
</defs>
</svg>
