<svg width="32" height="32" viewBox="0 0 32 32" fill="none" xmlns="http://www.w3.org/2000/svg">
<mask id="mask0_827_2426" style="mask-type:luminance" maskUnits="userSpaceOnUse" x="2" y="2" width="28" height="28">
<path d="M2 2H30V30H2V2Z" fill="white"/>
</mask>
<g mask="url(#mask0_827_2426)">
<path d="M18.6359 5.78881C19.6029 6.03835 20.5163 6.42143 21.3549 6.91745C21.3549 6.91745 21.759 6.51325 22.2129 6.0594C22.5424 5.72953 22.9896 5.54452 23.4558 5.54452C23.9214 5.54452 24.3687 5.72953 24.6982 6.0594C25.0979 6.45922 25.5408 6.90202 25.9405 7.30185C26.2705 7.63134 26.4554 8.07857 26.4554 8.54424C26.4554 9.01039 26.2705 9.45757 25.9405 9.78706C25.4867 10.2409 25.0826 10.6451 25.0826 10.6451C25.5785 11.4837 25.9616 12.3971 26.2112 13.3641H27.4224C28.3928 13.3641 29.1797 14.1509 29.1797 15.1213V16.8787C29.1797 17.8491 28.3928 18.6359 27.4224 18.6359H26.2112C25.9616 19.6029 25.5785 20.5163 25.0826 21.3549C25.0826 21.3549 25.4867 21.7591 25.9405 22.2129C26.2705 22.5424 26.4554 22.9896 26.4554 23.4558C26.4554 23.9214 26.2705 24.3687 25.9405 24.6982C25.5408 25.0979 25.0979 25.5408 24.6982 25.9405C24.3687 26.2705 23.9214 26.4554 23.4558 26.4554C22.9896 26.4554 22.5424 26.2705 22.2129 25.9405C21.759 25.4867 21.3549 25.0826 21.3549 25.0826C20.5163 25.5785 19.6029 25.9617 18.6359 26.2111V27.4224C18.6359 28.3928 17.8491 29.1797 16.8786 29.1797H15.1213C14.1509 29.1797 13.3641 28.3928 13.3641 27.4224V26.2111C12.3971 25.9617 11.4837 25.5785 10.6451 25.0826C10.6451 25.0826 10.2409 25.4867 9.78706 25.9405C9.45757 26.2705 9.01034 26.4554 8.54423 26.4554C8.07857 26.4554 7.63128 26.2705 7.30184 25.9405C6.90208 25.5408 6.45922 25.0979 6.0594 24.6982C5.72952 24.3687 5.54452 23.9214 5.54452 23.4558C5.54452 22.9896 5.72952 22.5424 6.0594 22.2129C6.51325 21.7591 6.91745 21.3549 6.91745 21.3549C6.42143 20.5163 6.0384 19.6029 5.7888 18.6359H4.57764C3.60716 18.6359 2.82031 17.8491 2.82031 16.8787V15.1213C2.82031 14.1509 3.60716 13.3641 4.57764 13.3641H5.7888C6.0384 12.3971 6.42143 11.4837 6.91745 10.6451C6.91745 10.6451 6.51325 10.2409 6.0594 9.78706C5.72952 9.45757 5.54452 9.01039 5.54452 8.54424C5.54452 8.07857 5.72952 7.63134 6.0594 7.30185C6.45922 6.90202 6.90208 6.45922 7.30184 6.0594C7.63128 5.72953 8.07857 5.54452 8.54423 5.54452C9.01034 5.54452 9.45757 5.72953 9.78706 6.0594C10.2409 6.51325 10.6451 6.91745 10.6451 6.91745C11.4837 6.42143 12.3971 6.03835 13.3641 5.78881V4.57759C13.3641 3.6071 14.1509 2.82031 15.1213 2.82031H16.8786C17.8491 2.82031 18.6359 3.6071 18.6359 4.57759V5.78881Z" stroke="currentColor" stroke-width="1.5" stroke-miterlimit="10" stroke-linecap="round" stroke-linejoin="round"/>
<path d="M16.0004 10.7277C18.91 10.7277 21.2723 13.09 21.2723 15.9996C21.2723 18.9092 18.91 21.2715 16.0004 21.2715C13.0907 21.2715 10.7285 18.9092 10.7285 15.9996C10.7285 13.09 13.0907 10.7277 16.0004 10.7277Z" stroke="currentColor" stroke-width="1.5" stroke-miterlimit="10" stroke-linecap="round" stroke-linejoin="round"/>
</g>
</svg>
