<svg width="316" height="317" viewBox="0 0 316 317" fill="none" xmlns="http://www.w3.org/2000/svg">
<g opacity="0.4">
<g clip-path="url(#clip0_29_6765)">
<path d="M214.098 228.437C219.898 202.253 232.724 179.754 251.017 163.353C263.602 151.815 279.417 143.22 296.263 137L308.96 133.231L312.932 132.377L314.251 140.925C313.861 141.529 314.464 141.919 314.678 142.912C315.105 144.898 314.929 146.494 314.966 149.084L315.04 154.263L309.685 155.934C308.692 156.147 306.706 156.574 305.323 157.391C289.257 162.404 275.428 170.573 264.226 181.293C249.478 194.854 238.777 212.74 234.11 234.524C230.185 252.512 217.721 286.363 179.64 312.214L178.257 313.031L175.278 313.671C174.675 313.281 174.285 313.885 173.292 314.098C167.723 314.776 162.154 315.454 156.372 315.139L129.873 315.121L153.206 302.831C187.213 284.61 206.99 260.616 214.098 228.437Z" fill="black"/>
<path d="M202.341 103.684C187.594 117.245 176.893 135.131 172.226 156.915C166.992 180.899 145.285 236.997 59.349 260.15L44.4523 263.353L43.4591 263.566L39.4867 264.421L37.2498 261.265C35.2263 259.102 32.9893 255.947 30.7523 252.791L-13.847 196.693L-29.6015 164.706C-75.9103 60.0216 65.411 -137.995 67.3126 4.7739C111.613 -4.23148 40.4342 47.4699 53.9451 -10.5032C59.7447 -36.6867 83.8704 1.12409 102.163 -15.2773C120.067 -31.0754 164.438 -63.3707 189.052 -69.702L251.828 -15.2773L268.711 26.2573C269.314 26.6471 279.511 31.7053 274.508 47.2634L273.076 47.7408L275.463 49.6504C278.09 52.2027 280.952 54.2593 283.579 56.8115L288.519 69.5699L276.778 70.5358C275.181 70.3596 273.798 71.1764 272.202 71.0001C252.553 76.2637 224.959 83.2356 202.341 103.684Z" fill="#D0D5DD"/>
<path d="M243.819 272.439L248.219 273.571L243.819 272.439C244.385 270.24 244.562 268.643 245.128 266.443C250.927 240.26 263.753 217.761 282.046 201.359C285.982 197.916 289.917 194.472 294.455 191.418L310.447 181.226L314.595 178.776L311.023 193.571C309.891 197.97 308.759 202.37 307.627 206.769L307.061 208.969L305.288 210.389C303.515 211.809 301.139 212.84 299.97 214.65C299.19 215.856 297.807 216.673 296.424 217.49C283.449 229.631 273.315 245.317 267.83 265.718C267.264 267.918 267.088 269.515 266.522 271.714L265.78 275.51L264.007 276.93C260.072 280.374 255.747 284.421 251.598 286.872L234.651 299.867L241.731 279.642C242.297 277.442 243.253 274.639 243.819 272.439Z" fill="black"/>
<path d="M59.2938 284.06L74.1905 280.857C76.1767 280.43 78.1629 280.003 80.1491 279.576C119.66 270.042 170.726 246.594 182.678 191.034C188.477 164.85 201.303 142.351 219.596 125.95C237.11 110.755 257.677 100.099 281.901 94.3709L295.415 91.9849L299.991 91.5206L302.052 96.2727C303.296 99.6418 304.326 102.018 305.96 104.784L309.051 111.912L300.892 112.627C299.899 112.84 297.913 113.267 296.92 113.481C271.879 117.826 252.091 127.275 235.57 142.257C220.823 155.818 210.122 173.704 205.455 195.488C201.14 214.079 192.815 230.935 180.871 245.452C159.924 271.255 126.307 288.874 95.5575 298.082C93.5713 298.509 92.1885 299.326 90.2022 299.753L87.2227 300.394L85.4128 299.224C81.7929 296.886 77.1799 294.761 73.56 292.422L59.2938 284.06Z" fill="black"/>
</g>
</g>
<defs>
<clipPath id="clip0_29_6765">
<rect width="316.045" height="317" rx="158.023" transform="matrix(-1 0 0 1 316.045 0)" fill="white"/>
</clipPath>
</defs>
</svg>
