<svg width="25" height="24" viewBox="0 0 25 24" fill="none" xmlns="http://www.w3.org/2000/svg">
<path fill-rule="evenodd" clip-rule="evenodd" d="M10.5 2H18.5C20.1569 2 21.5 3.34314 21.5 5V19C21.5 20.6569 20.1569 22 18.5 22H10.5C9.94772 22 9.5 21.5523 9.5 21C9.5 20.4477 9.94772 20 10.5 20H18.5C19.0523 20 19.5 19.5523 19.5 19V5C19.5 4.44771 19.0523 4 18.5 4H10.5C9.94771 4 9.5 3.55229 9.5 3C9.5 2.44772 9.94771 2 10.5 2ZM10.7929 7.29289C11.1834 6.90237 11.8166 6.90237 12.2071 7.29289L16.2071 11.2929C16.3946 11.4804 16.5 11.7348 16.5 12C16.5 12.2652 16.3946 12.5196 16.2071 12.7071L12.2071 16.7071C11.8166 17.0976 11.1834 17.0976 10.7929 16.7071C10.4024 16.3166 10.4024 15.6834 10.7929 15.2929L13.0858 13H4.5C3.94772 13 3.5 12.5523 3.5 12C3.5 11.4477 3.94772 11 4.5 11H13.0858L10.7929 8.70711C10.4024 8.31658 10.4024 7.68342 10.7929 7.29289Z" fill="currentColor"/>
</svg>
