<svg width="30" height="30" viewBox="0 0 30 30" fill="none" xmlns="http://www.w3.org/2000/svg">
<rect x="0.5" y="0.5" width="29" height="29" rx="5.5" fill="#FFEFE9"/>
<rect x="0.5" y="0.5" width="29" height="29" rx="5.5" stroke="#FE6321"/>
<path d="M15 7.77344C15.3236 7.77344 15.5859 7.51109 15.5859 7.1875V5.58594C15.5859 5.26234 15.3236 5 15 5C14.6764 5 14.4141 5.26234 14.4141 5.58594V7.1875C14.4141 7.51109 14.6764 7.77344 15 7.77344Z" fill="#FE6321"/>
<path d="M21.6643 7.08565C21.4355 6.85687 21.0645 6.85687 20.8357 7.08565L19.5857 8.33565C19.3569 8.56444 19.3569 8.93546 19.5857 9.16429C19.8145 9.39312 20.1855 9.39312 20.4143 9.16429L21.6643 7.91429C21.8931 7.68546 21.8931 7.31444 21.6643 7.08565Z" fill="#FE6321"/>
<path d="M10.4143 9.16429C10.6431 8.9355 10.6431 8.56448 10.4143 8.33565L9.16432 7.08565C8.93553 6.85687 8.56451 6.85687 8.33568 7.08565C8.10686 7.31444 8.10686 7.68546 8.33568 7.91429L9.58568 9.16429C9.81455 9.39315 10.1855 9.39312 10.4143 9.16429Z" fill="#FE6321"/>
<path d="M15 9.10156C11.7476 9.10156 9.10156 11.7476 9.10156 15C9.10156 18.0153 11.9141 19.4913 11.9141 21.25V23.1641C11.9141 24.1764 12.7377 25 13.75 25H16.25C17.2623 25 18.0859 24.1764 18.0859 23.1641V21.25C18.0859 19.4907 20.8984 18.0166 20.8984 15C20.8984 11.7476 18.2524 9.10156 15 9.10156ZM16.25 23.8281H13.75C13.3838 23.8281 13.0859 23.5302 13.0859 23.1641V21.8359H16.9141V23.1641C16.9141 23.5302 16.6162 23.8281 16.25 23.8281ZM16.9746 20.6641H15.5859V18.302C16.3117 18.0568 16.8359 17.37 16.8359 16.5625C16.8359 16.2389 16.5736 15.9766 16.25 15.9766C15.9264 15.9766 15.6641 16.2389 15.6641 16.5625C15.6641 16.9287 15.3662 17.2266 15 17.2266C14.6338 17.2266 14.3359 16.9287 14.3359 16.5625C14.3359 16.2389 14.0736 15.9766 13.75 15.9766C13.4264 15.9766 13.1641 16.2389 13.1641 16.5625C13.1641 17.37 13.6883 18.0568 14.4141 18.302V20.6641H13.0254C12.6123 18.6492 10.2734 17.3557 10.2734 15C10.2734 12.3937 12.3937 10.2734 15 10.2734C17.6062 10.2734 19.7266 12.3937 19.7266 15C19.7266 17.3537 17.3871 18.6515 16.9746 20.6641Z" fill="#FE6321"/>
</svg>
