<svg width="32" height="32" viewBox="0 0 32 32" fill="none" xmlns="http://www.w3.org/2000/svg">
<path d="M27.6684 2H4.33192C3.04632 2 2 3.04604 2 4.3319V23.789C2 25.0748 3.04605 26.1209 4.33192 26.1209H5.47578V28.3377C5.47578 29.2541 6.22165 30 7.13809 30H9.52848C10.4452 30 11.1908 29.2541 11.1908 28.3377V26.1209H20.8092V28.3377C20.8092 29.2541 21.5551 30 22.4715 30H24.8622C25.7786 30 26.5245 29.2541 26.5245 28.3377V26.1209H27.6681C28.954 26.1209 30 25.0748 30 23.789V4.3319C30.0003 3.04604 28.9542 2 27.6684 2ZM10.3824 28.3377C10.3824 28.8085 9.99923 29.1916 9.52848 29.1916H7.13809C6.66707 29.1916 6.28417 28.8085 6.28417 28.3377V26.1209H10.3827L10.3824 28.3377ZM25.7164 28.3377C25.7164 28.8085 25.3332 29.1916 24.8624 29.1916H22.4718C22.001 29.1916 21.6179 28.8085 21.6179 28.3377V26.1209H25.7164V28.3377ZM29.1919 23.789C29.1919 24.6291 28.5085 25.3125 27.6684 25.3125H26.5248V25.306H20.8095V25.3125H11.1908V25.306H5.47551V25.3125H4.33165C3.49147 25.3125 2.80811 24.6291 2.80811 23.789V4.3319C2.80811 3.49172 3.49147 2.80838 4.33165 2.80838H27.6681C28.5083 2.80838 29.1916 3.49172 29.1916 4.3319L29.1919 23.789ZM27.902 8.8782C28.1251 8.8782 28.3062 8.6974 28.3062 8.47402C28.3062 8.25064 28.1251 8.06983 27.902 8.06983H26.9847V6.27362C26.9847 5.22785 26.134 4.3769 25.0883 4.3769H6.91228C5.8665 4.3769 5.01554 5.22785 5.01554 6.27362V21.8467C5.01554 22.8928 5.8665 23.7434 6.91228 23.7434H25.0883C26.134 23.7434 26.9847 22.8928 26.9847 21.8467V20.0508H27.902C28.1251 20.0508 28.3062 19.8697 28.3062 19.6466C28.3062 19.4235 28.1251 19.2424 27.902 19.2424H26.9847V8.8782H27.902ZM26.1763 19.2427H24.7054C24.4822 19.2427 24.3012 19.4237 24.3012 19.6469C24.3012 19.87 24.4822 20.051 24.7054 20.051H26.1763V21.847C26.1763 22.4473 25.6881 22.9353 25.0883 22.9353H6.91228C6.31219 22.9353 5.82393 22.4471 5.82393 21.847V6.27389C5.82393 5.6738 6.31219 5.18554 6.91228 5.18554H25.0883C25.6883 5.18554 26.1763 5.6738 26.1763 6.27389V8.0701H24.7054C24.4822 8.0701 24.3012 8.2509 24.3012 8.47429C24.3012 8.69767 24.4822 8.87847 24.7054 8.87847H26.1763V19.2427Z" fill="currentColor" stroke="currentColor" stroke-width="0.5"/>
<circle cx="16" cy="14" r="5.25" stroke="currentColor" stroke-width="1.5"/>
<circle cx="15.9996" cy="14.0006" r="1.65" stroke="currentColor" stroke-width="1.5"/>
</svg>
